G04*
G04 #@! TF.GenerationSoftware,Altium Limited,Altium Designer,25.8.1 (18)*
G04*
G04 Layer_Color=65535*
%FSLAX44Y44*%
%MOMM*%
G71*
G04*
G04 #@! TF.SameCoordinates,6EFC5F47-AA52-4F92-BE64-3E27DE9A41CD*
G04*
G04*
G04 #@! TF.FilePolarity,Positive*
G04*
G01*
G75*
%ADD10C,0.0127*%
%ADD11C,0.2000*%
%ADD12C,0.1524*%
%ADD13C,0.2540*%
%ADD14C,0.5288*%
D10*
X941114Y403621D02*
G03*
X940853Y403537I140J-887D01*
G01*
X941495Y403658D02*
G03*
X941114Y403621I126J-3234D01*
G01*
X942112Y403664D02*
G03*
X941495Y403658I-215J-10365D01*
G01*
X943324Y403633D02*
G03*
X942112Y403663I-3883J-129151D01*
G01*
X944158Y403601D02*
G03*
X943324Y403633I-2379J-51367D01*
G01*
X944865Y403559D02*
G03*
X944158Y403601I-1950J-26783D01*
G01*
X945469Y403512D02*
G03*
X944865Y403559I-5774J-70994D01*
G01*
X945537Y403472D02*
G03*
X945469Y403512I-75J-49D01*
G01*
X945558Y403423D02*
G03*
X945537Y403472I-160J-42D01*
G01*
X945571Y403355D02*
G03*
X945558Y403423I-446J-45D01*
G01*
X945573Y403281D02*
G03*
X945571Y403355I-505J23D01*
G01*
X945563Y403211D02*
G03*
X945573Y403281I-400J88D01*
G01*
X945563Y403211D02*
G03*
X945484Y402642I3574J-791D01*
G01*
D02*
G03*
X945419Y401377I66630J-4040D01*
G01*
D02*
G03*
X945372Y400064I112697J-4688D01*
G01*
D02*
G03*
X945419Y399734I984J-29D01*
G01*
X945457Y399519D02*
G03*
X945419Y399734I-815J-35D01*
G01*
X945499Y398474D02*
G03*
X945457Y399519I-173532J-6447D01*
G01*
X945536Y397248D02*
G03*
X945499Y398474I-91044J-2155D01*
G01*
X945563Y395847D02*
G03*
X945536Y397248I-154290J-2247D01*
G01*
X945563Y395847D02*
G03*
X945591Y394301I224572J3276D01*
G01*
X945591D02*
G03*
X945631Y392629I306131J6570D01*
G01*
X945631D02*
G03*
X945677Y391079I280840J7563D01*
G01*
D02*
G03*
X945722Y389947I82081J2664D01*
G01*
X945833Y387499D02*
G03*
X945722Y389947I-1135668J-50094D01*
G01*
X945937Y385061D02*
G03*
X945833Y387499I-1114193J-46702D01*
G01*
X946027Y382854D02*
G03*
X945937Y385061I-956496J-37888D01*
G01*
X946091Y381138D02*
G03*
X946027Y382854I-353913J-12298D01*
G01*
X946122Y380120D02*
G03*
X946091Y381138I-112281J-2883D01*
G01*
X946114Y379690D02*
G03*
X946122Y380120I-4841J305D01*
G01*
X946073Y379464D02*
G03*
X946114Y379690I-947J289D01*
G01*
X945979Y379363D02*
G03*
X946073Y379464I-56J146D01*
G01*
X945851Y379335D02*
G03*
X945979Y379363I-30J440D01*
G01*
X945265Y379298D02*
G03*
X945851Y379335I-4476J74920D01*
G01*
X944575Y379262D02*
G03*
X945265Y379298I-1835J42276D01*
G01*
X943788Y379232D02*
G03*
X944575Y379262I-2283J70820D01*
G01*
X942328Y379203D02*
G03*
X943788Y379232I-460J59596D01*
G01*
X941603Y379257D02*
G03*
X942328Y379203I690J4389D01*
G01*
X941116Y379414D02*
G03*
X941603Y379257I741J1458D01*
G01*
X940659Y379724D02*
G03*
X941116Y379414I1460J1663D01*
G01*
X940127Y380391D02*
G03*
X940659Y379724I2128J1151D01*
G01*
X939714Y381365D02*
G03*
X940127Y380391I5328J1684D01*
G01*
X939402Y382677D02*
G03*
X939714Y381365I9220J1505D01*
G01*
X939182Y384397D02*
G03*
X939402Y382677I25054J2331D01*
G01*
X939055Y386627D02*
G03*
X939182Y384397I30956J639D01*
G01*
X939019Y390085D02*
G03*
X939055Y386627I166903J-13D01*
G01*
X939057Y393603D02*
G03*
X939019Y390085I163685J-3530D01*
G01*
X939182Y396144D02*
G03*
X939057Y393603I46020J-3537D01*
G01*
X939250Y396954D02*
G03*
X939182Y396144I59333J-5375D01*
G01*
X939320Y397645D02*
G03*
X939250Y396954I31565J-3556D01*
G01*
X939389Y398242D02*
G03*
X939320Y397645I101204J-12009D01*
G01*
X939425Y398298D02*
G03*
X939389Y398242I40J-65D01*
G01*
X939425Y398298D02*
G03*
X939460Y398353I-39J63D01*
G01*
D02*
G03*
X939510Y398877I-68214J6834D01*
G01*
X939510D02*
G03*
X939558Y399486I-24160J2232D01*
G01*
D02*
G03*
X939601Y400200I-45153J3028D01*
G01*
X939681Y401467D02*
G03*
X939601Y400200I51921J-3930D01*
G01*
X939780Y402093D02*
G03*
X939681Y401467I3811J-922D01*
G01*
X939958Y402550D02*
G03*
X939780Y402093I1590J-884D01*
G01*
X940293Y403062D02*
G03*
X939958Y402550I3426J-2604D01*
G01*
X940407Y403194D02*
G03*
X940293Y403062I945J-938D01*
G01*
X940556Y403331D02*
G03*
X940407Y403194I1518J-1790D01*
G01*
X940713Y403453D02*
G03*
X940556Y403331I1326J-1870D01*
G01*
X940853Y403537D02*
G03*
X940713Y403453I479J-958D01*
G01*
X965074Y411144D02*
G03*
X963274Y411046I401J-23967D01*
G01*
X967632Y411152D02*
G03*
X965074Y411144I-991J-93738D01*
G01*
X970135Y411099D02*
G03*
X967632Y411152I-3723J-115388D01*
G01*
X971280Y410962D02*
G03*
X970135Y411099I-1360J-6528D01*
G01*
X972927Y410583D02*
G03*
X971280Y410962I-10106J-40214D01*
G01*
X974071Y410228D02*
G03*
X972927Y410583I-3791J-10178D01*
G01*
X974919Y409836D02*
G03*
X974071Y410228I-2972J-5311D01*
G01*
X975603Y409351D02*
G03*
X974919Y409836I-2623J-2980D01*
G01*
X976084Y408861D02*
G03*
X975603Y409351I-3600J-3054D01*
G01*
X976653Y408146D02*
G03*
X976084Y408861I-11596J-8638D01*
G01*
X977172Y407401D02*
G03*
X976653Y408146I-12094J-7877D01*
G01*
X977489Y406820D02*
G03*
X977172Y407401I-3832J-1709D01*
G01*
X977810Y405822D02*
G03*
X977489Y406820I-4762J-983D01*
G01*
X977984Y404582D02*
G03*
X977810Y405822I-9802J-747D01*
G01*
X977999Y403349D02*
G03*
X977984Y404582I-9619J501D01*
G01*
X977827Y402383D02*
G03*
X977999Y403349I-3773J1172D01*
G01*
X977373Y401324D02*
G03*
X977827Y402383I-4872J2713D01*
G01*
X976651Y400213D02*
G03*
X977373Y401324I-7741J5824D01*
G01*
X975816Y399250D02*
G03*
X976651Y400213I-6522J6498D01*
G01*
X975023Y398657D02*
G03*
X975816Y399250I-1645J3022D01*
G01*
X973719Y398124D02*
G03*
X975023Y398657I-1739J6123D01*
G01*
X971984Y397735D02*
G03*
X973719Y398124I-2609J15685D01*
G01*
X969796Y397472D02*
G03*
X971984Y397735I-1818J24353D01*
G01*
X967074Y397335D02*
G03*
X969796Y397472I-1485J56475D01*
G01*
X964924Y397329D02*
G03*
X967074Y397335I966J45003D01*
G01*
X963320Y397453D02*
G03*
X964924Y397329I1914J14314D01*
G01*
X961935Y397734D02*
G03*
X963320Y397453I2781J10154D01*
G01*
X960498Y398214D02*
G03*
X961935Y397734I5097J12884D01*
G01*
X959732Y398610D02*
G03*
X960498Y398214I2344J3592D01*
G01*
X958922Y399215D02*
G03*
X959732Y398610I5194J6113D01*
G01*
X958169Y399939D02*
G03*
X958922Y399215I6233J5726D01*
G01*
X957573Y400699D02*
G03*
X958169Y399939I5146J3421D01*
G01*
X957053Y401668D02*
G03*
X957573Y400699I5426J2292D01*
G01*
X956657Y402820D02*
G03*
X957053Y401668I8527J2283D01*
G01*
X956408Y404078D02*
G03*
X956657Y402820I9653J1259D01*
G01*
X956324Y405364D02*
G03*
X956408Y404078I9946J-0D01*
G01*
X956391Y406484D02*
G03*
X956324Y405364I9382J-1120D01*
G01*
X956594Y407413D02*
G03*
X956391Y406484I4668J-1510D01*
G01*
X956962Y408246D02*
G03*
X956594Y407413I3853J-2198D01*
G01*
X957524Y409075D02*
G03*
X956962Y408246I5059J-4036D01*
G01*
X958370Y409861D02*
G03*
X957524Y409075I2199J-3215D01*
G01*
X959438Y410396D02*
G03*
X958370Y409861I1442J-4205D01*
G01*
X960951Y410766D02*
G03*
X959438Y410396I1270J-8486D01*
G01*
X963274Y411046D02*
G03*
X960951Y410766I3792J-41135D01*
G01*
X958655Y421634D02*
G03*
X958474Y421600I52J-778D01*
G01*
X959021Y421651D02*
G03*
X958655Y421634I313J-10137D01*
G01*
X959456Y421656D02*
G03*
X959021Y421651I-100J-10877D01*
G01*
X959915Y421644D02*
G03*
X959456Y421656I-583J-13450D01*
G01*
X960640Y421598D02*
G03*
X959915Y421644I-1502J-17879D01*
G01*
X961086Y421525D02*
G03*
X960640Y421598I-687J-2803D01*
G01*
X961551Y421379D02*
G03*
X961086Y421525I-1357J-3494D01*
G01*
X962415Y421032D02*
G03*
X961551Y421379I-16076J-38807D01*
G01*
X962968Y420799D02*
G03*
X962415Y421032I-25421J-59792D01*
G01*
X963507Y420567D02*
G03*
X962968Y420799I-23757J-54387D01*
G01*
X963968Y420363D02*
G03*
X963507Y420567I-22005J-49112D01*
G01*
X964224Y420241D02*
G03*
X963968Y420363I-2752J-5450D01*
G01*
X964650Y419979D02*
G03*
X964224Y420242I-1767J-2393D01*
G01*
X965302Y419477D02*
G03*
X964650Y419979I-12482J-15521D01*
G01*
X965979Y418907D02*
G03*
X965302Y419477I-13209J-15014D01*
G01*
X966535Y418383D02*
G03*
X965979Y418907I-7908J-7832D01*
G01*
X966535Y418383D02*
G03*
X966692Y418233I2561J2537D01*
G01*
D02*
G03*
X966867Y418086I2954J3301D01*
G01*
Y418086D02*
G03*
X967032Y417959I2493J3093D01*
G01*
Y417959D02*
G03*
X967157Y417882I600J830D01*
G01*
X967273Y417808D02*
G03*
X967157Y417882I-490J-639D01*
G01*
X967408Y417695D02*
G03*
X967273Y417808I-1409J-1549D01*
G01*
X967539Y417565D02*
G03*
X967408Y417695I-1636J-1523D01*
G01*
X967646Y417437D02*
G03*
X967539Y417565I-1190J-882D01*
G01*
X967646Y417437D02*
G03*
X967768Y417289I1488J1102D01*
G01*
X967768Y417289D02*
G03*
X967954Y417093I5238J4793D01*
G01*
Y417093D02*
G03*
X968166Y416886I5600J5530D01*
G01*
D02*
G03*
X968374Y416699I4293J4570D01*
G01*
X968572Y416523D02*
G03*
X968374Y416699I-4908J-5310D01*
G01*
X968753Y416349D02*
G03*
X968572Y416523I-4150J-4120D01*
G01*
X968899Y416196D02*
G03*
X968753Y416349I-3997J-3670D01*
G01*
X968960Y416109D02*
G03*
X968899Y416196I-375J-201D01*
G01*
X968960Y416109D02*
G03*
X969014Y416027I472J253D01*
G01*
D02*
G03*
X969115Y415907I2602J2078D01*
G01*
Y415907D02*
G03*
X969238Y415774I2842J2497D01*
G01*
Y415774D02*
G03*
X969366Y415647I2727J2637D01*
G01*
X969741Y415263D02*
G03*
X969366Y415647I-4648J-4162D01*
G01*
X970250Y414678D02*
G03*
X969741Y415263I-19911J-16787D01*
G01*
X970765Y414047D02*
G03*
X970250Y414678I-20987J-16629D01*
G01*
X971179Y413497D02*
G03*
X970765Y414047I-11117J-7931D01*
G01*
X971179Y413497D02*
G03*
X971342Y413273I13751J9812D01*
G01*
Y413273D02*
G03*
X971508Y413052I13239J9777D01*
G01*
D02*
G03*
X971655Y412863I11689J8939D01*
G01*
Y412863D02*
G03*
X971748Y412754I1620J1281D01*
G01*
X971926Y412518D02*
G03*
X971748Y412754I-1366J-846D01*
G01*
X971916Y412382D02*
G03*
X971926Y412518I-89J74D01*
G01*
X971767Y412314D02*
G03*
X971916Y412382I2J192D01*
G01*
X971399Y412338D02*
G03*
X971767Y412314I405J3333D01*
G01*
X971399Y412338D02*
G03*
X969638Y412505I-4036J-33190D01*
G01*
D02*
G03*
X967876Y412578I-2246J-32941D01*
G01*
Y412578D02*
G03*
X966001Y412559I-552J-37699D01*
G01*
Y412559D02*
G03*
X963897Y412448I2104J-59952D01*
G01*
D02*
G03*
X960735Y412112I3119J-44364D01*
G01*
Y412112D02*
G03*
X958694Y411576I1296J-9083D01*
G01*
Y411576D02*
G03*
X957250Y410715I1864J-4774D01*
G01*
X957250Y410715D02*
G03*
X956071Y409392I4066J-4810D01*
G01*
X956071Y409392D02*
G03*
X955421Y408199I6415J-4265D01*
G01*
D02*
G03*
X955029Y406966I5821J-2531D01*
G01*
X955029D02*
G03*
X954887Y405648I6569J-1372D01*
G01*
D02*
G03*
X954985Y404197I9641J-77D01*
G01*
D02*
G03*
X955356Y402353I16757J2411D01*
G01*
D02*
G03*
X955892Y400892I7755J2014D01*
G01*
X955892D02*
G03*
X956666Y399640I6325J3044D01*
G01*
X956666D02*
G03*
X957758Y398437I8199J6346D01*
G01*
D02*
G03*
X958490Y397807I7538J8008D01*
G01*
Y397807D02*
G03*
X959172Y397342I3671J4659D01*
G01*
Y397342D02*
G03*
X959932Y396965I3187J5465D01*
G01*
Y396964D02*
G03*
X960903Y396603I5353J12882D01*
G01*
Y396603D02*
G03*
X962004Y396289I4328J13079D01*
G01*
Y396289D02*
G03*
X963048Y396094I2396J9947D01*
G01*
D02*
G03*
X964262Y395984I1897J14230D01*
G01*
Y395984D02*
G03*
X965924Y395934I2307J48437D01*
G01*
Y395934D02*
G03*
X967866Y395948I630J47347D01*
G01*
D02*
G03*
X969610Y396045I-858J30955D01*
G01*
Y396045D02*
G03*
X971218Y396230I-2219J26320D01*
G01*
Y396231D02*
G03*
X972751Y396509I-3293J22489D01*
G01*
X974161Y396812D02*
G03*
X972751Y396509I56287J-265765D01*
G01*
X974564Y396871D02*
G03*
X974161Y396812I272J-3248D01*
G01*
X974738Y396824D02*
G03*
X974564Y396871I-151J-214D01*
G01*
X974816Y396682D02*
G03*
X974738Y396824I-184J-9D01*
G01*
X974821Y396507D02*
G03*
X974815Y396682I-6252J-124D01*
G01*
X974841Y395525D02*
G03*
X974821Y396507I-2153328J-41731D01*
G01*
X974862Y394383D02*
G03*
X974841Y395525I-958136J-17435D01*
G01*
X974885Y393073D02*
G03*
X974862Y394383I-1654411J-28818D01*
G01*
X974885Y393073D02*
G03*
X974915Y391732I145337J2530D01*
G01*
D02*
G03*
X974953Y390667I58704J1564D01*
G01*
X974953D02*
G03*
X974995Y389774I212773J9536D01*
G01*
D02*
G03*
X975034Y389754I26J1D01*
G01*
X975167Y389676D02*
G03*
X975034Y389754I-87J3D01*
G01*
X975042Y386447D02*
G03*
X975167Y389676I-760173J30997D01*
G01*
X974871Y383123D02*
G03*
X975042Y386447I-155161J9657D01*
G01*
X974634Y379947D02*
G03*
X974871Y383123I-129865J11274D01*
G01*
X974634Y379947D02*
G03*
X974587Y379399I223918J-19438D01*
G01*
D02*
G03*
X974510Y378477I1622833J-136896D01*
G01*
X974510D02*
G03*
X974421Y377416I1804781J-151159D01*
G01*
X974421D02*
G03*
X974333Y376347I1855435J-154346D01*
G01*
X974160Y374379D02*
G03*
X974333Y376347I-189361J17623D01*
G01*
X974032Y373342D02*
G03*
X974160Y374379I-17280J2658D01*
G01*
X973870Y372551D02*
G03*
X974032Y373342I-8017J2049D01*
G01*
X973611Y371653D02*
G03*
X973870Y372551I-14145J4579D01*
G01*
X973421Y371113D02*
G03*
X973611Y371653I-11260J4247D01*
G01*
X973261Y370769D02*
G03*
X973421Y371113I-2149J1215D01*
G01*
X973059Y370474D02*
G03*
X973261Y370769I-1604J1315D01*
G01*
X972740Y370112D02*
G03*
X973059Y370474I-4896J4639D01*
G01*
X972380Y369753D02*
G03*
X972740Y370112I-6474J6834D01*
G01*
X972140Y369575D02*
G03*
X972380Y369753I-622J1088D01*
G01*
X971865Y369459D02*
G03*
X972141Y369575I-346J1202D01*
G01*
X971374Y369332D02*
G03*
X971865Y369459I-2099J9124D01*
G01*
X970853Y369238D02*
G03*
X971374Y369332I-718J5479D01*
G01*
X970272Y369183D02*
G03*
X970853Y369238I-468J8058D01*
G01*
X969480Y369155D02*
G03*
X970272Y369183I-207J17230D01*
G01*
X968204Y369147D02*
G03*
X969480Y369155I1J106551D01*
G01*
X967218Y369154D02*
G03*
X968204Y369147I986J75011D01*
G01*
X966450Y369174D02*
G03*
X967218Y369154I1138J28095D01*
G01*
X965834Y369203D02*
G03*
X966450Y369174I2670J50649D01*
G01*
X965736Y369247D02*
G03*
X965834Y369203I106J104D01*
G01*
X965650Y369440D02*
G03*
X965736Y369247I298J17D01*
G01*
X965514Y371892D02*
G03*
X965650Y369440I882261J47966D01*
G01*
X965407Y374190D02*
G03*
X965514Y371892I144178J5535D01*
G01*
X965374Y375894D02*
G03*
X965407Y374190I44523J4D01*
G01*
X966224Y377257D02*
G03*
X967045Y377392I-2053J15052D01*
G01*
Y377392D02*
G03*
X967977Y377590I-4945J25667D01*
G01*
Y377589D02*
G03*
X968830Y377800I-6682J28952D01*
G01*
Y377800D02*
G03*
X969224Y377950I-500J1907D01*
G01*
D02*
G03*
X969334Y378014I-500J984D01*
G01*
Y378014D02*
G03*
X969457Y378102I-1222J1842D01*
G01*
Y378102D02*
G03*
X969574Y378198I-1350J1760D01*
G01*
D02*
G03*
X969666Y378288I-754J856D01*
G01*
D02*
G03*
X969763Y378410I-895J810D01*
G01*
D02*
G03*
X969800Y378503I-183J127D01*
G01*
D02*
G03*
X969791Y378598I-197J31D01*
G01*
D02*
G03*
X969734Y378728I-836J-287D01*
G01*
D02*
G03*
X969539Y378991I-976J-522D01*
G01*
D02*
G03*
X969317Y379102I-281J-283D01*
G01*
Y379102D02*
G03*
X968986Y379091I-135J-901D01*
G01*
D02*
G03*
X968361Y378933I2336J-10598D01*
G01*
X967456Y378739D02*
G03*
X968361Y378933I-1053J7092D01*
G01*
X966106Y378568D02*
G03*
X967456Y378739I-3358J31898D01*
G01*
X964642Y378445D02*
G03*
X966106Y378568I-2102J33998D01*
G01*
X963324Y378403D02*
G03*
X964642Y378445I-49J22150D01*
G01*
X962528Y378432D02*
G03*
X963324Y378403I774J10292D01*
G01*
X961561Y378526D02*
G03*
X962528Y378432I2661J22448D01*
G01*
X960640Y378655D02*
G03*
X961561Y378526I3545J22006D01*
G01*
X960025Y378794D02*
G03*
X960640Y378655I1403J4751D01*
G01*
X960025Y378794D02*
G03*
X959652Y378877I-789J-2671D01*
G01*
Y378877D02*
G03*
X959328Y378890I-217J-1440D01*
G01*
Y378890D02*
G03*
X959068Y378833I70J-955D01*
G01*
D02*
G03*
X958886Y378711I158J-430D01*
G01*
D02*
G03*
X958733Y378421I494J-447D01*
G01*
Y378421D02*
G03*
X958626Y377851I5428J-1317D01*
G01*
Y377851D02*
G03*
X958543Y376999I11390J-1536D01*
G01*
D02*
G03*
X958480Y375697I58059J-3462D01*
G01*
X958428Y374466D02*
G03*
X958480Y375697I-124541J5864D01*
G01*
X958357Y373051D02*
G03*
X958428Y374466I-216396J11604D01*
G01*
X958268Y371490D02*
G03*
X958357Y373051I-261074J15570D01*
G01*
X958164Y369811D02*
G03*
X958268Y371490I-348744J22481D01*
G01*
X956533Y368217D02*
G03*
X957389Y368545I-2060J6647D01*
G01*
X955665Y368014D02*
G03*
X956533Y368217I-970J6133D01*
G01*
X954597Y367905D02*
G03*
X955665Y368014I-466J9813D01*
G01*
X953074Y367863D02*
G03*
X954597Y367905I-297J38351D01*
G01*
X951557Y367881D02*
G03*
X953074Y367863I1220J38182D01*
G01*
X950604Y367982D02*
G03*
X951557Y367881I1162J6449D01*
G01*
X949794Y368207D02*
G03*
X950604Y367982I1616J4249D01*
G01*
X948824Y368629D02*
G03*
X949794Y368207I4970J10095D01*
G01*
X947954Y370297D02*
G03*
X947914Y372025I-129437J-2126D01*
G01*
X947914D02*
G03*
X947822Y374952I-964208J-28714D01*
G01*
X947822D02*
G03*
X947722Y377908I-1366121J-44838D01*
G01*
D02*
G03*
X947668Y378997I-37948J-1327D01*
G01*
X947644Y379424D02*
G03*
X947668Y378997I35153J1815D01*
G01*
X947604Y380203D02*
G03*
X947644Y379424I337870J16643D01*
G01*
X947561Y381112D02*
G03*
X947604Y380203I369592J17305D01*
G01*
X947518Y382047D02*
G03*
X947561Y381112I414719J18481D01*
G01*
X947320Y386545D02*
G03*
X947518Y382047I4179980J181712D01*
G01*
X947192Y389600D02*
G03*
X947320Y386545I932498J37480D01*
G01*
X947097Y392096D02*
G03*
X947192Y389600I562712J20121D01*
G01*
X947011Y394663D02*
G03*
X947097Y392096I629253J19927D01*
G01*
X946944Y397206D02*
G03*
X947011Y394663I239542J5040D01*
G01*
X946944Y398762D02*
G03*
X946944Y397206I36596J-786D01*
G01*
X947009Y400541D02*
G03*
X946944Y398762I58983J-3049D01*
G01*
X947223Y404547D02*
G03*
X947009Y400541I1160346J-63980D01*
G01*
X947263Y405090D02*
G03*
X947223Y404547I14290J-1333D01*
G01*
X947325Y405642D02*
G03*
X947263Y405090I15544J-2007D01*
G01*
X947397Y406131D02*
G03*
X947325Y405642I13701J-2268D01*
G01*
X947468Y406447D02*
G03*
X947397Y406131I2651J-767D01*
G01*
X947468Y406447D02*
G03*
X947622Y406999I-27201J7874D01*
G01*
X947622D02*
G03*
X947836Y407809I-120091J32151D01*
G01*
X947836D02*
G03*
X948042Y408612I-123475J32163D01*
G01*
D02*
G03*
X948163Y409113I-20045J5083D01*
G01*
X948201Y409235D02*
G03*
X948163Y409113I765J-304D01*
G01*
X948250Y409307D02*
G03*
X948201Y409235I138J-147D01*
G01*
X948315Y409338D02*
G03*
X948250Y409307I18J-120D01*
G01*
X948399Y409334D02*
G03*
X948315Y409338I-52J-206D01*
G01*
X948399Y409334D02*
G03*
X948509Y409373I26J102D01*
G01*
D02*
G03*
X948615Y409558I-673J508D01*
G01*
X948615D02*
G03*
X948747Y409932I-3448J1429D01*
G01*
X948747D02*
G03*
X948973Y410718I-52719J15551D01*
G01*
X949364Y411997D02*
G03*
X948973Y410718I25633J-8536D01*
G01*
X949792Y413161D02*
G03*
X949364Y411997I18502J-7467D01*
G01*
X950275Y414256D02*
G03*
X949791Y413161I16719J-8038D01*
G01*
X950834Y415332D02*
G03*
X950275Y414256I16972J-9504D01*
G01*
X951489Y416468D02*
G03*
X950834Y415332I44610J-26484D01*
G01*
X952006Y417280D02*
G03*
X951489Y416468I12775J-8703D01*
G01*
X952464Y417894D02*
G03*
X952006Y417280I7173J-5813D01*
G01*
X952923Y418397D02*
G03*
X952464Y417894I4040J-4150D01*
G01*
X952923Y418397D02*
G03*
X953150Y418623I-9703J9964D01*
G01*
Y418623D02*
G03*
X953364Y418847I-8732J8565D01*
G01*
D02*
G03*
X953542Y419043I-8153J7602D01*
G01*
D02*
G03*
X953631Y419157I-849J755D01*
G01*
X953934Y419497D02*
G03*
X953631Y419157I1155J-1337D01*
G01*
X954623Y420067D02*
G03*
X953934Y419497I13502J-16987D01*
G01*
X955346Y420614D02*
G03*
X954623Y420067I11263J-15628D01*
G01*
X955855Y420924D02*
G03*
X955346Y420614I1732J-3420D01*
G01*
X956125Y421040D02*
G03*
X955855Y420924I798J-2224D01*
G01*
X956495Y421162D02*
G03*
X956125Y421040I2065J-6912D01*
G01*
X956900Y421272D02*
G03*
X956495Y421162I1862J-7697D01*
G01*
X957283Y421351D02*
G03*
X956900Y421272I1024J-5893D01*
G01*
X957283Y421351D02*
G03*
X957646Y421417I-3863J22241D01*
G01*
D02*
G03*
X958000Y421488I-3879J20349D01*
G01*
Y421488D02*
G03*
X958304Y421554I-3824J18327D01*
G01*
Y421554D02*
G03*
X958474Y421600I-481J2127D01*
G01*
X961974Y423035D02*
G03*
X961162Y423231I-1391J-3972D01*
G01*
Y423231D02*
G03*
X960038Y423340I-1874J-13485D01*
G01*
D02*
G03*
X958908Y423356I-750J-13600D01*
G01*
D02*
G03*
X958074Y423250I120J-4288D01*
G01*
X957801Y423193D02*
G03*
X958074Y423250I-1426J7512D01*
G01*
X957474Y423135D02*
G03*
X957801Y423193I-2516J15022D01*
G01*
X957147Y423083D02*
G03*
X957474Y423135I-2178J15012D01*
G01*
X956874Y423049D02*
G03*
X957147Y423083I-777J7271D01*
G01*
X956874Y423049D02*
G03*
X956532Y422989I270J-2526D01*
G01*
Y422989D02*
G03*
X956160Y422877I955J-3848D01*
G01*
Y422877D02*
G03*
X955723Y422702I2030J-5718D01*
G01*
Y422702D02*
G03*
X955174Y422446I6635J-14905D01*
G01*
Y422445D02*
G03*
X954503Y422094I6392J-13033D01*
G01*
D02*
G03*
X954047Y421798I1947J-3496D01*
G01*
D02*
G03*
X953576Y421403I3470J-4619D01*
G01*
D02*
G03*
X952794Y420658I33213J-35601D01*
G01*
X952228Y420119D02*
G03*
X952794Y420658I-20597J22239D01*
G01*
X951758Y419706D02*
G03*
X952228Y420119I-8071J9635D01*
G01*
X951384Y419408D02*
G03*
X951758Y419706I-5496J7306D01*
G01*
X951168Y419295D02*
G03*
X951384Y419408I-235J713D01*
G01*
X951168Y419295D02*
G03*
X951009Y419226I292J-885D01*
G01*
X951008Y419226D02*
G03*
X950869Y419129I415J-750D01*
G01*
Y419129D02*
G03*
X950751Y419007I546J-642D01*
G01*
D02*
G03*
X950660Y418864I680J-534D01*
G01*
X950559Y418679D02*
G03*
X950660Y418864I-3162J1839D01*
G01*
X950343Y418310D02*
G03*
X950559Y418679I-43495J25798D01*
G01*
X950082Y417876D02*
G03*
X950343Y418310I-45285J27449D01*
G01*
X949805Y417422D02*
G03*
X950083Y417876I-55306J34141D01*
G01*
X949805Y417422D02*
G03*
X948788Y415601I20170J-12452D01*
G01*
X948788Y415601D02*
G03*
X947939Y413702I20940J-10507D01*
G01*
Y413702D02*
G03*
X947193Y411567I26251J-10372D01*
G01*
D02*
G03*
X946487Y409023I49956J-15241D01*
G01*
D02*
G03*
X946307Y408283I45632J-11435D01*
G01*
D02*
G03*
X946137Y407527I49114J-11466D01*
G01*
D02*
G03*
X945996Y406856I43896J-9540D01*
G01*
X945996D02*
G03*
X945921Y406422I7973J-1606D01*
G01*
X945871Y406106D02*
G03*
X945921Y406423I-11246J1962D01*
G01*
X945818Y405839D02*
G03*
X945871Y406106I-5818J1291D01*
G01*
X945766Y405618D02*
G03*
X945818Y405839I-10584J2582D01*
G01*
X945738Y405595D02*
G03*
X945766Y405618I-1J31D01*
G01*
X945687Y405594D02*
G03*
X945738Y405595I-15J1620D01*
G01*
X944944Y405587D02*
G03*
X945687Y405594I-98759J10324398D01*
G01*
X944106Y405579D02*
G03*
X944944Y405586I-15880J1744666D01*
G01*
X943124Y405570D02*
G03*
X944106Y405579I-28719J3273810D01*
G01*
X943124Y405570D02*
G03*
X941495Y405550I2262J-257311D01*
G01*
D02*
G03*
X940853Y405518I135J-8906D01*
G01*
D02*
G03*
X940454Y405446I194J-2219D01*
G01*
D02*
G03*
X940082Y405304I555J-2011D01*
G01*
D02*
G03*
X939605Y405003I1231J-2483D01*
G01*
D02*
G03*
X939095Y404553I3570J-4559D01*
G01*
D02*
G03*
X938633Y404037I4180J-4209D01*
G01*
D02*
G03*
X938302Y403536I2656J-2114D01*
G01*
D02*
G03*
X937992Y402780I3403J-1837D01*
G01*
D02*
G03*
X937801Y401878I5962J-1735D01*
G01*
D02*
G03*
X937656Y400441I20980J-2843D01*
G01*
D02*
G03*
X937464Y397352I351258J-23377D01*
G01*
D02*
G03*
X937323Y394724I319324J-18428D01*
G01*
D02*
G03*
X937258Y392942I70629J-3494D01*
G01*
D02*
G03*
X937240Y391233I62721J-1518D01*
G01*
X937240D02*
G03*
X937260Y388897I213072J647D01*
G01*
X937260D02*
G03*
X937289Y387308I186115J2602D01*
G01*
D02*
G03*
X937330Y385799I151327J3410D01*
G01*
D02*
G03*
X937377Y384524I144636J4704D01*
G01*
X937377D02*
G03*
X937422Y383897I10372J429D01*
G01*
X937422D02*
G03*
X937684Y382209I16378J1673D01*
G01*
D02*
G03*
X938104Y380727I10685J2229D01*
G01*
Y380727D02*
G03*
X938659Y379509I7821J2827D01*
G01*
D02*
G03*
X939330Y378620I3518J1959D01*
G01*
D02*
G03*
X940178Y377958I3122J3122D01*
G01*
D02*
G03*
X941101Y377579I1693J2818D01*
G01*
Y377579D02*
G03*
X942312Y377427I1291J5358D01*
G01*
D02*
G03*
X944124Y377466I365J25309D01*
G01*
X944801Y377499D02*
G03*
X944124Y377466I1785J-43054D01*
G01*
X945384Y377516D02*
G03*
X944801Y377499I401J-23742D01*
G01*
X945884Y377522D02*
G03*
X945384Y377516I489J-58470D01*
G01*
X945954Y377496D02*
G03*
X945884Y377522I-69J-80D01*
G01*
X945988Y377428D02*
G03*
X945954Y377496I-98J-6D01*
G01*
X946040Y376540D02*
G03*
X945988Y377428I-282447J-15916D01*
G01*
X946089Y375527D02*
G03*
X946040Y376540I-66741J-2745D01*
G01*
X946132Y374337D02*
G03*
X946089Y375527I-126194J-3999D01*
G01*
X946132Y374337D02*
G03*
X946176Y373050I304299J9649D01*
G01*
X946176D02*
G03*
X946226Y371736I330180J11864D01*
G01*
X946226D02*
G03*
X946274Y370571I294423J11752D01*
G01*
X946274D02*
G03*
X946313Y369819I54529J2391D01*
G01*
D02*
G03*
X946414Y368694I17737J1024D01*
G01*
X946414D02*
G03*
X946602Y368211I1032J126D01*
G01*
D02*
G03*
X947009Y367852I1003J724D01*
G01*
X947009Y367852D02*
G03*
X948170Y367245I14365J26075D01*
G01*
X948170Y367245D02*
G03*
X949280Y366739I8545J17268D01*
G01*
D02*
G03*
X950129Y366459I2214J5292D01*
G01*
D02*
G03*
X951031Y366309I1450J5921D01*
G01*
Y366309D02*
G03*
X952324Y366228I2122J23530D01*
G01*
Y366228D02*
G03*
X953588Y366226I656J18673D01*
G01*
D02*
G03*
X954893Y366309I-697J21414D01*
G01*
Y366309D02*
G03*
X956070Y366456I-1764J18792D01*
G01*
Y366456D02*
G03*
X956906Y366658I-839J5318D01*
G01*
D02*
G03*
X957575Y366917I-2059J6290D01*
G01*
D02*
G03*
X958380Y367309I-6564J14512D01*
G01*
D02*
G03*
X959122Y367720I-8075J15472D01*
G01*
D02*
G03*
X959475Y367998I-821J1403D01*
G01*
D02*
G03*
X959630Y368188I-1144J1096D01*
G01*
D02*
G03*
X959718Y368364I-544J379D01*
G01*
D02*
G03*
X959764Y368591I-1009J326D01*
G01*
D02*
G03*
X959790Y368973I-7169J671D01*
G01*
X959878Y370858D02*
G03*
X959790Y368973I139762J-7490D01*
G01*
X960039Y373748D02*
G03*
X959878Y370858I727438J-41885D01*
G01*
X960226Y377003D02*
G03*
X960039Y373748I19845205J-1145866D01*
G01*
X960255Y377058D02*
G03*
X960226Y377003I47J-60D01*
G01*
X960272Y377062D02*
G03*
X960255Y377058I-3J-22D01*
G01*
X960489Y377029D02*
G03*
X960272Y377062I-12395J-80185D01*
G01*
X960735Y376989D02*
G03*
X960489Y377029I-2940J-17383D01*
G01*
X961024Y376939D02*
G03*
X960735Y376989I-5865J-32936D01*
G01*
X961024Y376939D02*
G03*
X961374Y376887I1037J5824D01*
G01*
D02*
G03*
X961809Y376843I1602J13684D01*
G01*
D02*
G03*
X962256Y376813I1200J14128D01*
G01*
Y376813D02*
G03*
X962643Y376801I424J7962D01*
G01*
X962980Y376793D02*
G03*
X962643Y376801I-376J-8450D01*
G01*
X963274Y376771D02*
G03*
X962980Y376793I-512J-4889D01*
G01*
X963513Y376741D02*
G03*
X963274Y376771I-881J-6103D01*
G01*
X963570Y376704D02*
G03*
X963513Y376741I-68J-42D01*
G01*
X963595Y376628D02*
G03*
X963570Y376704I-173J-15D01*
G01*
X963638Y376115D02*
G03*
X963595Y376628I-87026J-7011D01*
G01*
X963681Y375519D02*
G03*
X963638Y376115I-35212J-2236D01*
G01*
X963721Y374829D02*
G03*
X963681Y375519I-62695J-3291D01*
G01*
X963721Y374829D02*
G03*
X963765Y373990I26229490J1375943D01*
G01*
X963879Y371820D02*
G03*
X963930Y370847I48613086J2553484D01*
G01*
X963930D02*
G03*
X963982Y369984I57801J3038D01*
G01*
X963982D02*
G03*
X964042Y369211I37361J2524D01*
G01*
D02*
G03*
X964104Y368564I49105J4340D01*
G01*
D02*
G03*
X964149Y368367I798J81D01*
G01*
D02*
G03*
X964343Y368094I605J224D01*
G01*
Y368094D02*
G03*
X964695Y367879I912J1101D01*
G01*
D02*
G03*
X965242Y367705I1192J2803D01*
G01*
D02*
G03*
X966054Y367557I2649J12215D01*
G01*
D02*
G03*
X967850Y367409I2040J13733D01*
G01*
Y367409D02*
G03*
X969775Y367477I319J18118D01*
G01*
D02*
G03*
X971526Y367730I-1441J16183D01*
G01*
Y367730D02*
G03*
X972736Y368152I-915J4565D01*
G01*
D02*
G03*
X973684Y368797I-2125J4143D01*
G01*
D02*
G03*
X974416Y369638I-2758J3140D01*
G01*
D02*
G03*
X974993Y370771I-4773J3144D01*
G01*
D02*
G03*
X975477Y372313I-13678J5141D01*
G01*
X975477D02*
G03*
X975606Y372928I-7200J1831D01*
G01*
X975606D02*
G03*
X975724Y373735I-20386J3379D01*
G01*
X975724D02*
G03*
X975842Y374802I-36272J4550D01*
G01*
D02*
G03*
X975973Y376263I-123552J11825D01*
G01*
X976076Y377482D02*
G03*
X975973Y376263I640564J-54918D01*
G01*
X976180Y378679D02*
G03*
X976076Y377482I594740J-52194D01*
G01*
X976272Y379710D02*
G03*
X976180Y378679I538007J-48253D01*
G01*
X976327Y380297D02*
G03*
X976272Y379710I63853J-6318D01*
G01*
X976327Y380297D02*
G03*
X976588Y383658I-79212J7839D01*
G01*
D02*
G03*
X976783Y387928I-202780J11426D01*
G01*
D02*
G03*
X976888Y392164I-201812J7116D01*
G01*
X976888D02*
G03*
X976859Y395397I-69716J994D01*
G01*
X977390Y398787D02*
G03*
X978129Y399782I-8680J7222D01*
G01*
D02*
G03*
X978734Y400827I-8508J5625D01*
G01*
X978734D02*
G03*
X979176Y401863I-7982J4012D01*
G01*
D02*
G03*
X979421Y402829I-5193J1835D01*
G01*
X979421D02*
G03*
X979483Y403827I-5119J818D01*
G01*
D02*
G03*
X979376Y405060I-12026J-418D01*
G01*
X979376D02*
G03*
X979137Y406314I-12425J-1722D01*
G01*
X979137D02*
G03*
X978790Y407382I-7320J-1787D01*
G01*
D02*
G03*
X978186Y408501I-5547J-2271D01*
G01*
D02*
G03*
X977265Y409669I-9198J-6308D01*
G01*
Y409669D02*
G03*
X976225Y410675I-7981J-7210D01*
G01*
Y410675D02*
G03*
X975264Y411286I-2714J-3213D01*
G01*
X974989Y411412D02*
G03*
X975264Y411286I21175J45443D01*
G01*
X974735Y411532D02*
G03*
X974989Y411412I16104J33889D01*
G01*
X974522Y411634D02*
G03*
X974735Y411532I16836J34886D01*
G01*
X974431Y411681D02*
G03*
X974522Y411634I872J1571D01*
G01*
X974359Y411750D02*
G03*
X974431Y411681I168J103D01*
G01*
X974231Y411969D02*
G03*
X974359Y411750I4773J2635D01*
G01*
X974091Y412242D02*
G03*
X974231Y411969I4777J2288D01*
G01*
X973951Y412550D02*
G03*
X974091Y412242I7196J3071D01*
G01*
X973951Y412550D02*
G03*
X973334Y413724I-7517J-3208D01*
G01*
D02*
G03*
X972365Y415125I-18467J-11727D01*
G01*
D02*
G03*
X971285Y416453I-17567J-13180D01*
G01*
Y416453D02*
G03*
X970315Y417397I-6561J-5773D01*
G01*
X970059Y417616D02*
G03*
X970315Y417397I7906J8974D01*
G01*
X969774Y417872D02*
G03*
X970059Y417616I13462J14701D01*
G01*
X969504Y418124D02*
G03*
X969774Y417872I13159J13824D01*
G01*
X969297Y418329D02*
G03*
X969504Y418124I5379J5228D01*
G01*
X969297Y418329D02*
G03*
X969092Y418525I-2699J-2623D01*
G01*
D02*
G03*
X968830Y418746I-5294J-5985D01*
G01*
D02*
G03*
X968557Y418959I-5092J-6278D01*
G01*
D02*
G03*
X968315Y419126I-2520J-3395D01*
G01*
X968094Y419273D02*
G03*
X968315Y419126I4067J5864D01*
G01*
X967886Y419424D02*
G03*
X968094Y419273I3837J5081D01*
G01*
X967712Y419560D02*
G03*
X967886Y419424I3614J4420D01*
G01*
X967624Y419647D02*
G03*
X967712Y419560I494J410D01*
G01*
X967624Y419647D02*
G03*
X967327Y419948I-1910J-1585D01*
G01*
Y419948D02*
G03*
X966556Y420597I-37971J-44405D01*
G01*
D02*
G03*
X965776Y421227I-30378J-36791D01*
G01*
D02*
G03*
X965319Y421551I-3276J-4142D01*
G01*
X965319D02*
G03*
X965106Y421675I-1946J-3083D01*
G01*
Y421675D02*
G03*
X964819Y421824I-5023J-9295D01*
G01*
Y421825D02*
G03*
X964511Y421973I-5063J-10095D01*
G01*
Y421973D02*
G03*
X964229Y422097I-3166J-6821D01*
G01*
X963945Y422217D02*
G03*
X964229Y422097I11789J27594D01*
G01*
X963634Y422351D02*
G03*
X963945Y422217I17605J40346D01*
G01*
X963343Y422480D02*
G03*
X963634Y422351I16690J37454D01*
G01*
X963124Y422579D02*
G03*
X963343Y422480I5694J12189D01*
G01*
X963124Y422579D02*
G03*
X962903Y422677I-2424J-5187D01*
G01*
X962903Y422677D02*
G03*
X962601Y422800I-7088J-17011D01*
G01*
X962601D02*
G03*
X962275Y422925I-7346J-18548D01*
G01*
X962275D02*
G03*
X961974Y423035I-4975J-13233D01*
G01*
X7672350Y45950923D02*
G03*
X7672364Y45950654I8380010J439716D01*
G01*
X965374Y377141D02*
X965374Y375894D01*
X965374Y377141D02*
X966224Y377257D01*
X958104Y368875D02*
X958164Y369811D01*
X957389Y368545D02*
X958104Y368875D01*
X947974Y369047D02*
X948824Y368629D01*
X947954Y370297D02*
X947974Y369047D01*
X976774Y398047D02*
X976859Y395397D01*
X976774Y398047D02*
X977390Y398787D01*
D11*
X420100Y808840D02*
G03*
X420100Y808840I-1000J0D01*
G01*
X435340Y628800D02*
G03*
X435340Y628800I-1000J0D01*
G01*
X406400Y815340D02*
Y993140D01*
X431800Y815340D02*
Y993140D01*
X406400Y815340D02*
X431800D01*
X406400Y993140D02*
X431800D01*
X421640Y444500D02*
X447040D01*
X421640Y622300D02*
X447040D01*
X421640Y444500D02*
Y622300D01*
X447040Y444500D02*
Y622300D01*
D12*
X638810Y482600D02*
Y1016000D01*
Y482600D02*
X867410D01*
Y1016000D01*
X638810D02*
X867410D01*
X714177Y990600D02*
Y1041400D01*
Y990600D02*
X791210D01*
Y1041400D01*
X714177D02*
X791210D01*
X929894Y491490D02*
X957326D01*
X929894D02*
Y1002030D01*
X957326D01*
Y491490D02*
Y1002030D01*
X915924Y994410D02*
X928624Y988060D01*
X915924Y981710D02*
Y994410D01*
Y981710D02*
X928624Y988060D01*
X564134Y1003300D02*
X591566D01*
Y492760D02*
Y1003300D01*
X564134Y492760D02*
X591566D01*
X564134D02*
Y1003300D01*
X592836Y506730D02*
X605536Y500380D01*
Y513080D01*
X592836Y506730D02*
X605536Y513080D01*
D13*
X609600Y767080D02*
X614678D01*
X612139D01*
Y782315D01*
X609600Y779776D01*
X622296D02*
X624835Y782315D01*
X629913D01*
X632453Y779776D01*
Y769619D01*
X629913Y767080D01*
X624835D01*
X622296Y769619D01*
Y779776D01*
X397510Y1112518D02*
Y1122675D01*
X402588Y1127753D01*
X407667Y1122675D01*
Y1112518D01*
Y1120136D01*
X397510D01*
X412745Y1112518D02*
Y1122675D01*
X415284D01*
X417823Y1120136D01*
Y1112518D01*
Y1120136D01*
X420363Y1122675D01*
X422902Y1120136D01*
Y1112518D01*
X430519D02*
X435598D01*
X438137Y1115058D01*
Y1120136D01*
X435598Y1122675D01*
X430519D01*
X427980Y1120136D01*
Y1115058D01*
X430519Y1112518D01*
X443215D02*
Y1122675D01*
X450833D01*
X453372Y1120136D01*
Y1112518D01*
X463529Y1107440D02*
X466068D01*
X468607Y1109979D01*
Y1122675D01*
X460989D01*
X458450Y1120136D01*
Y1115058D01*
X460989Y1112518D01*
X468607D01*
X473685Y1122675D02*
Y1115058D01*
X476225Y1112518D01*
X483842D01*
Y1122675D01*
X488920Y1112518D02*
X496538D01*
X499077Y1115058D01*
X496538Y1117597D01*
X491460D01*
X488920Y1120136D01*
X491460Y1122675D01*
X499077D01*
X980437Y601980D02*
X970280D01*
X980437Y612137D01*
Y614676D01*
X977897Y617215D01*
X972819D01*
X970280Y614676D01*
X995672Y617215D02*
X985515D01*
Y609598D01*
X990593Y612137D01*
X993133D01*
X995672Y609598D01*
Y604519D01*
X993133Y601980D01*
X988054D01*
X985515Y604519D01*
X971550Y737866D02*
X974089Y740405D01*
X979167D01*
X981707Y737866D01*
Y735327D01*
X979167Y732787D01*
X976628D01*
X979167D01*
X981707Y730248D01*
Y727709D01*
X979167Y725170D01*
X974089D01*
X971550Y727709D01*
X986785Y737866D02*
X989324Y740405D01*
X994403D01*
X996942Y737866D01*
Y727709D01*
X994403Y725170D01*
X989324D01*
X986785Y727709D01*
Y737866D01*
X971550Y866136D02*
X974089Y868675D01*
X979167D01*
X981707Y866136D01*
Y863597D01*
X979167Y861058D01*
X976628D01*
X979167D01*
X981707Y858518D01*
Y855979D01*
X979167Y853440D01*
X974089D01*
X971550Y855979D01*
X996942Y868675D02*
X986785D01*
Y861058D01*
X991863Y863597D01*
X994403D01*
X996942Y861058D01*
Y855979D01*
X994403Y853440D01*
X989324D01*
X986785Y855979D01*
X614680Y998220D02*
X619758D01*
X617219D01*
Y1013455D01*
X614680Y1010916D01*
X627377Y908045D02*
X617220D01*
Y900427D01*
X622298Y902967D01*
X624837D01*
X627377Y900427D01*
Y895349D01*
X624837Y892810D01*
X619759D01*
X617220Y895349D01*
X609600Y640080D02*
X614678D01*
X612139D01*
Y655315D01*
X609600Y652776D01*
X632453Y655315D02*
X622296D01*
Y647698D01*
X627374Y650237D01*
X629913D01*
X632453Y647698D01*
Y642619D01*
X629913Y640080D01*
X624835D01*
X622296Y642619D01*
X979167Y980440D02*
Y995675D01*
X971550Y988057D01*
X981707D01*
X986785Y993136D02*
X989324Y995675D01*
X994403D01*
X996942Y993136D01*
Y982979D01*
X994403Y980440D01*
X989324D01*
X986785Y982979D01*
Y993136D01*
X579123Y1123948D02*
Y1111252D01*
X581662Y1108712D01*
X586741D01*
X589280Y1111252D01*
Y1123948D01*
X594358Y1108712D02*
X599437D01*
X596898D01*
Y1123948D01*
X594358Y1121408D01*
X574799Y1028187D02*
X569720D01*
X572259D01*
Y1015491D01*
X569720Y1012952D01*
X567181D01*
X564642Y1015491D01*
X587495Y1012952D02*
Y1028187D01*
X579877Y1020570D01*
X590034D01*
X927859Y1026917D02*
X922780D01*
X925320D01*
Y1014221D01*
X922780Y1011682D01*
X920241D01*
X917702Y1014221D01*
X932937Y1024378D02*
X935476Y1026917D01*
X940555D01*
X943094Y1024378D01*
Y1021839D01*
X940555Y1019299D01*
X938015D01*
X940555D01*
X943094Y1016760D01*
Y1014221D01*
X940555Y1011682D01*
X935476D01*
X932937Y1014221D01*
X431543Y653537D02*
X426464D01*
X429003D01*
Y640841D01*
X426464Y638302D01*
X423925D01*
X421386Y640841D01*
X446778Y638302D02*
X436621D01*
X446778Y648459D01*
Y650998D01*
X444239Y653537D01*
X439160D01*
X436621Y650998D01*
X416303Y1018789D02*
X411224D01*
X413764D01*
Y1006093D01*
X411224Y1003554D01*
X408685D01*
X406146Y1006093D01*
X421381Y1003554D02*
X426459D01*
X423920D01*
Y1018789D01*
X421381Y1016250D01*
D14*
X577850Y1084998D02*
Y1068070D01*
Y1076534D01*
X582082Y1080766D01*
X586314Y1084998D01*
X590546D01*
X607474D02*
X615938D01*
X620170Y1080766D01*
Y1068070D01*
X607474D01*
X603242Y1072302D01*
X607474Y1076534D01*
X620170D01*
X628634Y1068070D02*
X641329D01*
X645561Y1072302D01*
X641329Y1076534D01*
X632866D01*
X628634Y1080766D01*
X632866Y1084998D01*
X645561D01*
X654025Y1093462D02*
Y1068070D01*
X666721D01*
X670953Y1072302D01*
Y1076534D01*
Y1080766D01*
X666721Y1084998D01*
X654025D01*
X692113Y1068070D02*
X683649D01*
X679417Y1072302D01*
Y1080766D01*
X683649Y1084998D01*
X692113D01*
X696345Y1080766D01*
Y1076534D01*
X679417D01*
X704809Y1084998D02*
Y1068070D01*
Y1076534D01*
X709041Y1080766D01*
X713273Y1084998D01*
X717505D01*
X730201D02*
Y1068070D01*
Y1076534D01*
X734433Y1080766D01*
X738665Y1084998D01*
X742897D01*
X755593D02*
Y1072302D01*
X759825Y1068070D01*
X772520D01*
Y1063838D01*
X768288Y1059606D01*
X764056D01*
X772520Y1068070D02*
Y1084998D01*
X806376Y1059606D02*
Y1084998D01*
X819072D01*
X823304Y1080766D01*
Y1072302D01*
X819072Y1068070D01*
X806376D01*
X831768D02*
X840232D01*
X836000D01*
Y1084998D01*
X831768D01*
X878320Y1059606D02*
Y1084998D01*
X891015D01*
X895247Y1080766D01*
Y1072302D01*
X891015Y1068070D01*
X878320D01*
X903711D02*
X912175D01*
X907943D01*
Y1084998D01*
X903711D01*
X941799D02*
X929103D01*
X924871Y1080766D01*
Y1072302D01*
X929103Y1068070D01*
X941799D01*
X954495D02*
X962959D01*
X967191Y1072302D01*
Y1080766D01*
X962959Y1084998D01*
X954495D01*
X950263Y1080766D01*
Y1072302D01*
X954495Y1068070D01*
M02*
