M48
;Layer_Color=9474304
;FILE_FORMAT=4:3
METRIC,TZ
;TYPE=PLATED
T01F00S00C0.711
T02F00S00C1.000
T03F00S00C1.016
%
T01
X49149Y38862
X49022Y58547
X48133Y72771
X48260Y78613
X34290Y101981
X53213Y101854
X50419Y98933
X47879Y90551
X46736Y86233
X52578Y88392
X75565Y91567
X75692Y96012
T02
X84201Y50800
Y53340
Y55880
Y58420
Y60960
Y63500
Y66040
Y68580
Y71120
Y73660
Y76200
Y78740
X66421
Y76200
Y73660
Y71120
Y68580
Y66040
Y63500
Y60960
Y58420
Y55880
Y53340
Y50800
Y81280
Y83820
Y86360
Y88900
Y91440
Y93980
Y96520
Y99060
X84201
Y96520
Y93980
Y91440
Y88900
Y86360
Y83820
Y81280
T03
X94361Y50546
Y53086
Y55626
Y58166
Y60706
Y63246
Y65786
Y68326
Y70866
Y73406
Y75946
Y78486
X57785Y78613
Y76073
Y73533
Y70993
Y68453
Y65913
Y63373
Y60833
Y58293
Y55753
Y53213
Y50673
X43434Y50800
Y53340
Y55880
Y58420
Y60960
Y48260
Y45720
X41910Y82804
Y85344
Y87884
Y90424
Y92964
Y95504
Y98044
X57785Y98933
Y96393
Y93853
Y91313
Y88773
Y86233
Y83693
Y81153
X94361Y81026
Y83566
Y86106
Y88646
Y91186
Y93726
Y96266
Y98806
M30
