G04*
G04 #@! TF.GenerationSoftware,Altium Limited,Altium Designer,25.8.1 (18)*
G04*
G04 Layer_Color=8388736*
%FSLAX44Y44*%
%MOMM*%
G71*
G04*
G04 #@! TF.SameCoordinates,6EFC5F47-AA52-4F92-BE64-3E27DE9A41CD*
G04*
G04*
G04 #@! TF.FilePolarity,Negative*
G04*
G01*
G75*
%ADD15C,1.5692*%
%ADD16R,1.5692X1.5692*%
%ADD17R,1.7112X1.7112*%
%ADD18C,1.5240*%
%ADD19R,1.5240X1.5240*%
%ADD20C,1.4732*%
D15*
X419100Y980440D02*
D03*
Y955040D02*
D03*
Y929640D02*
D03*
Y904240D02*
D03*
Y878840D02*
D03*
Y853440D02*
D03*
X434340Y533400D02*
D03*
Y584200D02*
D03*
Y558800D02*
D03*
Y508000D02*
D03*
Y482600D02*
D03*
Y457200D02*
D03*
D16*
X419100Y828040D02*
D03*
X434340Y609600D02*
D03*
D17*
X664210Y914400D02*
D03*
Y762000D02*
D03*
X842010Y990600D02*
D03*
X664210Y838200D02*
D03*
X842010Y939800D02*
D03*
X664210Y889000D02*
D03*
X842010Y965200D02*
D03*
X664210Y990600D02*
D03*
Y965200D02*
D03*
Y939800D02*
D03*
Y863600D02*
D03*
Y812800D02*
D03*
Y787400D02*
D03*
Y736600D02*
D03*
Y711200D02*
D03*
Y685800D02*
D03*
Y660400D02*
D03*
Y635000D02*
D03*
Y609600D02*
D03*
Y584200D02*
D03*
Y558800D02*
D03*
Y533400D02*
D03*
Y508000D02*
D03*
X842010Y914400D02*
D03*
Y889000D02*
D03*
Y863600D02*
D03*
Y838200D02*
D03*
Y812800D02*
D03*
Y787400D02*
D03*
Y762000D02*
D03*
Y736600D02*
D03*
Y711200D02*
D03*
Y685800D02*
D03*
Y660400D02*
D03*
Y635000D02*
D03*
Y609600D02*
D03*
Y584200D02*
D03*
Y558800D02*
D03*
Y533400D02*
D03*
Y508000D02*
D03*
D18*
X577850Y913130D02*
D03*
Y760730D02*
D03*
Y836930D02*
D03*
X943610Y937260D02*
D03*
X577850Y887730D02*
D03*
X943610Y962660D02*
D03*
Y505460D02*
D03*
Y530860D02*
D03*
Y556260D02*
D03*
Y581660D02*
D03*
Y607060D02*
D03*
Y632460D02*
D03*
Y657860D02*
D03*
Y683260D02*
D03*
Y708660D02*
D03*
Y734060D02*
D03*
Y759460D02*
D03*
Y784860D02*
D03*
Y810260D02*
D03*
Y835660D02*
D03*
Y861060D02*
D03*
Y886460D02*
D03*
Y911860D02*
D03*
X577850Y989330D02*
D03*
Y963930D02*
D03*
Y938530D02*
D03*
Y862330D02*
D03*
Y811530D02*
D03*
Y786130D02*
D03*
Y735330D02*
D03*
Y709930D02*
D03*
Y684530D02*
D03*
Y659130D02*
D03*
Y633730D02*
D03*
Y608330D02*
D03*
Y582930D02*
D03*
Y557530D02*
D03*
Y532130D02*
D03*
D19*
X943610Y988060D02*
D03*
X577850Y506730D02*
D03*
D20*
X491490Y388620D02*
D03*
X490220Y585470D02*
D03*
X504190Y989330D02*
D03*
X478790Y905510D02*
D03*
X756920Y960120D02*
D03*
X482600Y786130D02*
D03*
X532130Y1018540D02*
D03*
X525780Y883920D02*
D03*
X342900Y1019810D02*
D03*
X467360Y862330D02*
D03*
X755650Y915670D02*
D03*
X481330Y727710D02*
D03*
M02*
