G04*
G04 #@! TF.GenerationSoftware,Altium Limited,Altium Designer,25.8.1 (18)*
G04*
G04 Layer_Color=65535*
%FSLAX44Y44*%
%MOMM*%
G71*
G04*
G04 #@! TF.SameCoordinates,9F7F3028-9E92-4420-A13E-047C07256B80*
G04*
G04*
G04 #@! TF.FilePolarity,Positive*
G04*
G01*
G75*
%ADD10C,0.5080*%
%ADD11C,0.2400*%
%ADD12C,0.1524*%
%ADD13C,0.2000*%
%ADD14C,0.1270*%
%ADD15C,0.2540*%
G36*
X752221Y956945D02*
X749681D01*
Y953135D01*
X752221D01*
Y956945D01*
D02*
G37*
G36*
X870839Y1071245D02*
X873379D01*
Y1067435D01*
X870839D01*
Y1071245D01*
D02*
G37*
G36*
X751205Y1431925D02*
X748665D01*
Y1428115D01*
X751205D01*
Y1431925D01*
D02*
G37*
G36*
X869823Y1546225D02*
X872363D01*
Y1542415D01*
X869823D01*
Y1546225D01*
D02*
G37*
D10*
X1101090Y1550670D02*
G03*
X1101090Y1550670I-3810J0D01*
G01*
X1283970Y734060D02*
G03*
X1283970Y734060I-3810J0D01*
G01*
D11*
X750500Y1303070D02*
G03*
X750500Y1303070I-1200J0D01*
G01*
X746690Y844600D02*
G03*
X746690Y844600I-1200J0D01*
G01*
D12*
X859282Y718749D02*
G03*
X859282Y718749I-762J0D01*
G01*
X931672Y1193475D02*
G03*
X931672Y1193475I-762J0D01*
G01*
X844367Y783590D02*
G03*
X844367Y783590I-762J0D01*
G01*
X857687Y828040D02*
G03*
X857687Y828040I-762J0D01*
G01*
X846653Y826770D02*
G03*
X846653Y826770I-762J0D01*
G01*
X704342Y1159835D02*
G03*
X704342Y1159835I-762J0D01*
G01*
X902787Y1228090D02*
G03*
X902787Y1228090I-762J0D01*
G01*
X874593Y1256030D02*
G03*
X874593Y1256030I-762J0D01*
G01*
X959283Y1281430D02*
G03*
X959283Y1281430I-762J0D01*
G01*
X846511Y1278890D02*
G03*
X846511Y1278890I-762J0D01*
G01*
X740847Y1276350D02*
G03*
X740847Y1276350I-762J0D01*
G01*
X976653Y869540D02*
G03*
X976653Y869540I-762J0D01*
G01*
X1115060Y1501394D02*
X1270000D01*
Y1604010D01*
X1115060D02*
X1270000D01*
X1115060Y1501394D02*
Y1604010D01*
X1107440Y783336D02*
X1262380D01*
X1107440Y680720D02*
Y783336D01*
Y680720D02*
X1262380D01*
Y783336D01*
X852805Y735739D02*
Y742542D01*
X864235Y735739D02*
Y742542D01*
X923417Y1213512D02*
Y1217268D01*
X938403Y1213512D02*
Y1217268D01*
X819812Y776097D02*
X823568D01*
X819812Y791083D02*
X823568D01*
X876963Y835533D02*
X880717D01*
X876963Y820547D02*
X880717D01*
X822098Y821055D02*
X828902D01*
X822098Y832485D02*
X828902D01*
X711073Y1136042D02*
Y1139798D01*
X696087Y1136042D02*
Y1139798D01*
X771271Y1421257D02*
X849757D01*
Y1424057D01*
X771271Y1553083D02*
X849757D01*
X771271Y1550282D02*
Y1553083D01*
Y1421257D02*
Y1424057D01*
X849757Y1550282D02*
Y1553083D01*
X878232Y1220597D02*
X881988D01*
X878232Y1235583D02*
X881988D01*
X850039Y1250315D02*
X856842D01*
X850039Y1261745D02*
X856842D01*
X977294Y1287936D02*
X1009806D01*
X977294Y1255424D02*
X1009806D01*
X862738Y1284605D02*
X869541D01*
X862738Y1273175D02*
X869541D01*
X760123Y1283843D02*
X763877D01*
X760123Y1268857D02*
X763877D01*
X994664Y876046D02*
X1027176D01*
X994664Y843534D02*
X1027176D01*
X772287Y946277D02*
X850773D01*
Y949078D01*
X772287Y1078103D02*
X850773D01*
X772287Y1075303D02*
Y1078103D01*
Y946277D02*
Y949078D01*
X850773Y1075303D02*
Y1078103D01*
D13*
X663940Y1183790D02*
G03*
X663940Y1183790I-1000J0D01*
G01*
X648700Y1555900D02*
G03*
X648700Y1555900I-1000J0D01*
G01*
X958850Y1532382D02*
X969010D01*
X960120Y1510538D02*
X978916D01*
X927710Y954120D02*
X932710D01*
X927710Y985120D02*
X932710D01*
Y954120D02*
Y985120D01*
X927710Y954120D02*
Y985120D01*
X967740Y1087882D02*
X977900D01*
X969010Y1066038D02*
X987806D01*
X650240Y999490D02*
X675640D01*
X650240Y1177290D02*
X675640D01*
X650240Y999490D02*
Y1177290D01*
X675640Y999490D02*
Y1177290D01*
X635000Y1371600D02*
X660400D01*
X635000Y1549400D02*
X660400D01*
X635000Y1371600D02*
Y1549400D01*
X660400Y1371600D02*
Y1549400D01*
X955780Y1419600D02*
X960780D01*
X955780Y1450600D02*
X960780D01*
Y1419600D02*
Y1450600D01*
X955780Y1419600D02*
Y1450600D01*
X756285Y1555719D02*
X761950Y1550054D01*
X756285D02*
X761950Y1555719D01*
X756285Y1552887D02*
X761950D01*
X759117Y1550054D02*
Y1555719D01*
X757301Y1080739D02*
X762966Y1075074D01*
X757301D02*
X762966Y1080739D01*
X757301Y1077907D02*
X762966D01*
X760133Y1075074D02*
Y1080739D01*
X922559Y999929D02*
Y992848D01*
X923975Y991431D01*
X926808D01*
X928224Y992848D01*
Y999929D01*
X931056Y998512D02*
X932472Y999929D01*
X935305D01*
X936721Y998512D01*
Y997096D01*
X935305Y995680D01*
X936721Y994264D01*
Y992848D01*
X935305Y991431D01*
X932472D01*
X931056Y992848D01*
Y994264D01*
X932472Y995680D01*
X931056Y997096D01*
Y998512D01*
X932472Y995680D02*
X935305D01*
X1044479Y888169D02*
Y881088D01*
X1045895Y879671D01*
X1048728D01*
X1050144Y881088D01*
Y888169D01*
X1052976D02*
X1058641D01*
Y886752D01*
X1052976Y881088D01*
Y879671D01*
X751586Y1098411D02*
Y1091330D01*
X753002Y1089914D01*
X755835D01*
X757251Y1091330D01*
Y1098411D01*
X765748D02*
X762916Y1096995D01*
X760083Y1094163D01*
Y1091330D01*
X761499Y1089914D01*
X764332D01*
X765748Y1091330D01*
Y1092746D01*
X764332Y1094163D01*
X760083D01*
X960659Y1105339D02*
Y1098258D01*
X962075Y1096841D01*
X964908D01*
X966324Y1098258D01*
Y1105339D01*
X974821D02*
X969156D01*
Y1101090D01*
X971989Y1102506D01*
X973405D01*
X974821Y1101090D01*
Y1098258D01*
X973405Y1096841D01*
X970572D01*
X969156Y1098258D01*
X960659Y1300919D02*
Y1293838D01*
X962075Y1292421D01*
X964908D01*
X966324Y1293838D01*
Y1300919D01*
X973405Y1292421D02*
Y1300919D01*
X969156Y1296670D01*
X974821D01*
X980979Y1505389D02*
Y1498308D01*
X982395Y1496891D01*
X985228D01*
X986644Y1498308D01*
Y1505389D01*
X989476Y1503972D02*
X990892Y1505389D01*
X993725D01*
X995141Y1503972D01*
Y1502556D01*
X993725Y1501140D01*
X992309D01*
X993725D01*
X995141Y1499724D01*
Y1498308D01*
X993725Y1496891D01*
X990892D01*
X989476Y1498308D01*
X940054Y1468997D02*
Y1461916D01*
X941470Y1460500D01*
X944303D01*
X945719Y1461916D01*
Y1468997D01*
X954216Y1460500D02*
X948551D01*
X954216Y1466165D01*
Y1467581D01*
X952800Y1468997D01*
X949967D01*
X948551Y1467581D01*
X733475Y1570159D02*
Y1563078D01*
X734891Y1561661D01*
X737724D01*
X739140Y1563078D01*
Y1570159D01*
X741972Y1561661D02*
X744805D01*
X743389D01*
Y1570159D01*
X741972Y1568742D01*
X1140830Y818319D02*
X1146495D01*
X1143662D01*
Y809821D01*
X1149327D02*
Y818319D01*
X1153576D01*
X1154992Y816902D01*
Y814070D01*
X1153576Y812654D01*
X1149327D01*
X1157824Y809821D02*
X1160657D01*
X1159240D01*
Y818319D01*
X1157824Y816902D01*
X1164905Y818319D02*
X1170570D01*
Y816902D01*
X1164905Y811238D01*
Y809821D01*
X1210680Y851339D02*
X1216345D01*
X1213512D01*
Y842841D01*
X1219177D02*
Y851339D01*
X1223426D01*
X1224842Y849922D01*
Y847090D01*
X1223426Y845674D01*
X1219177D01*
X1227674Y842841D02*
X1230507D01*
X1229090D01*
Y851339D01*
X1227674Y849922D01*
X1240420Y851339D02*
X1237588Y849922D01*
X1234755Y847090D01*
Y844258D01*
X1236172Y842841D01*
X1239004D01*
X1240420Y844258D01*
Y845674D01*
X1239004Y847090D01*
X1234755D01*
X921120Y707829D02*
X926785D01*
X923952D01*
Y699331D01*
X929617D02*
Y707829D01*
X933866D01*
X935282Y706412D01*
Y703580D01*
X933866Y702164D01*
X929617D01*
X938114Y699331D02*
X940947D01*
X939530D01*
Y707829D01*
X938114Y706412D01*
X950860Y707829D02*
X945195D01*
Y703580D01*
X948028Y704996D01*
X949444D01*
X950860Y703580D01*
Y700748D01*
X949444Y699331D01*
X946612D01*
X945195Y700748D01*
X761100Y691319D02*
X766765D01*
X763932D01*
Y682821D01*
X769597D02*
Y691319D01*
X773846D01*
X775262Y689902D01*
Y687070D01*
X773846Y685654D01*
X769597D01*
X778094Y682821D02*
X780927D01*
X779510D01*
Y691319D01*
X778094Y689902D01*
X789424Y682821D02*
Y691319D01*
X785175Y687070D01*
X790840D01*
X1204330Y964369D02*
X1209995D01*
X1207162D01*
Y955871D01*
X1212827D02*
Y964369D01*
X1217076D01*
X1218492Y962952D01*
Y960120D01*
X1217076Y958704D01*
X1212827D01*
X1221324Y955871D02*
X1224157D01*
X1222740D01*
Y964369D01*
X1221324Y962952D01*
X1228405D02*
X1229822Y964369D01*
X1232654D01*
X1234070Y962952D01*
Y961536D01*
X1232654Y960120D01*
X1231238D01*
X1232654D01*
X1234070Y958704D01*
Y957288D01*
X1232654Y955871D01*
X1229822D01*
X1228405Y957288D01*
X1111620Y1053269D02*
X1117285D01*
X1114452D01*
Y1044771D01*
X1120117D02*
Y1053269D01*
X1124366D01*
X1125782Y1051852D01*
Y1049020D01*
X1124366Y1047604D01*
X1120117D01*
X1128614Y1044771D02*
X1131447D01*
X1130031D01*
Y1053269D01*
X1128614Y1051852D01*
X1141360Y1044771D02*
X1135695D01*
X1141360Y1050436D01*
Y1051852D01*
X1139944Y1053269D01*
X1137112D01*
X1135695Y1051852D01*
X1139706Y1104069D02*
X1145371D01*
X1142538D01*
Y1095571D01*
X1148203D02*
Y1104069D01*
X1152452D01*
X1153868Y1102652D01*
Y1099820D01*
X1152452Y1098404D01*
X1148203D01*
X1156701Y1095571D02*
X1159533D01*
X1158117D01*
Y1104069D01*
X1156701Y1102652D01*
X1163782Y1095571D02*
X1166614D01*
X1165198D01*
Y1104069D01*
X1163782Y1102652D01*
X1134480Y1435539D02*
X1140145D01*
X1137312D01*
Y1427041D01*
X1142977D02*
Y1435539D01*
X1147226D01*
X1148642Y1434122D01*
Y1431290D01*
X1147226Y1429874D01*
X1142977D01*
X1151474Y1427041D02*
X1154307D01*
X1152890D01*
Y1435539D01*
X1151474Y1434122D01*
X1158555D02*
X1159972Y1435539D01*
X1162804D01*
X1164220Y1434122D01*
Y1428458D01*
X1162804Y1427041D01*
X1159972D01*
X1158555Y1428458D01*
Y1434122D01*
X1091030Y1478719D02*
X1096695D01*
X1093863D01*
Y1470221D01*
X1099528D02*
Y1478719D01*
X1103776D01*
X1105192Y1477302D01*
Y1474470D01*
X1103776Y1473054D01*
X1099528D01*
X1108025Y1471638D02*
X1109441Y1470221D01*
X1112273D01*
X1113690Y1471638D01*
Y1477302D01*
X1112273Y1478719D01*
X1109441D01*
X1108025Y1477302D01*
Y1475886D01*
X1109441Y1474470D01*
X1113690D01*
X570230Y1542911D02*
X575895D01*
X573062D01*
Y1534414D01*
X578727D02*
Y1542911D01*
X582976D01*
X584392Y1541495D01*
Y1538663D01*
X582976Y1537246D01*
X578727D01*
X587225Y1541495D02*
X588641Y1542911D01*
X591473D01*
X592889Y1541495D01*
Y1540079D01*
X591473Y1538663D01*
X592889Y1537246D01*
Y1535830D01*
X591473Y1534414D01*
X588641D01*
X587225Y1535830D01*
Y1537246D01*
X588641Y1538663D01*
X587225Y1540079D01*
Y1541495D01*
X588641Y1538663D02*
X591473D01*
X1091030Y1172649D02*
X1096695D01*
X1093863D01*
Y1164151D01*
X1099528D02*
Y1172649D01*
X1103776D01*
X1105192Y1171232D01*
Y1168400D01*
X1103776Y1166984D01*
X1099528D01*
X1108025Y1172649D02*
X1113690D01*
Y1171232D01*
X1108025Y1165568D01*
Y1164151D01*
X1083410Y1209479D02*
X1089075D01*
X1086243D01*
Y1200981D01*
X1091908D02*
Y1209479D01*
X1096156D01*
X1097572Y1208062D01*
Y1205230D01*
X1096156Y1203814D01*
X1091908D01*
X1106070Y1209479D02*
X1103237Y1208062D01*
X1100405Y1205230D01*
Y1202398D01*
X1101821Y1200981D01*
X1104653D01*
X1106070Y1202398D01*
Y1203814D01*
X1104653Y1205230D01*
X1100405D01*
X1139290Y1354259D02*
X1144955D01*
X1142123D01*
Y1345761D01*
X1147788D02*
Y1354259D01*
X1152036D01*
X1153452Y1352842D01*
Y1350010D01*
X1152036Y1348594D01*
X1147788D01*
X1156285Y1352842D02*
X1157701Y1354259D01*
X1160534D01*
X1161950Y1352842D01*
Y1351426D01*
X1160534Y1350010D01*
X1159117D01*
X1160534D01*
X1161950Y1348594D01*
Y1347178D01*
X1160534Y1345761D01*
X1157701D01*
X1156285Y1347178D01*
X966570Y1148519D02*
X972235D01*
X969403D01*
Y1140021D01*
X975068D02*
Y1148519D01*
X979316D01*
X980732Y1147102D01*
Y1144270D01*
X979316Y1142854D01*
X975068D01*
X989230Y1140021D02*
X983565D01*
X989230Y1145686D01*
Y1147102D01*
X987813Y1148519D01*
X984981D01*
X983565Y1147102D01*
X1206747Y1275519D02*
X1212411D01*
X1209579D01*
Y1267021D01*
X1215244D02*
Y1275519D01*
X1219492D01*
X1220909Y1274102D01*
Y1271270D01*
X1219492Y1269854D01*
X1215244D01*
X1223741Y1267021D02*
X1226573D01*
X1225157D01*
Y1275519D01*
X1223741Y1274102D01*
X1074166Y843534D02*
Y852031D01*
X1078415D01*
X1079831Y850615D01*
Y847783D01*
X1078415Y846366D01*
X1074166D01*
X1076998D02*
X1079831Y843534D01*
X1082663D02*
X1085496D01*
X1084080D01*
Y852031D01*
X1082663Y850615D01*
X1095409Y843534D02*
X1089744D01*
X1095409Y849199D01*
Y850615D01*
X1093993Y852031D01*
X1091161D01*
X1089744Y850615D01*
X1145286Y970534D02*
Y979031D01*
X1149535D01*
X1150951Y977615D01*
Y974783D01*
X1149535Y973366D01*
X1145286D01*
X1148118D02*
X1150951Y970534D01*
X1153783D02*
X1156616D01*
X1155200D01*
Y979031D01*
X1153783Y977615D01*
X1160864Y970534D02*
X1163697D01*
X1162281D01*
Y979031D01*
X1160864Y977615D01*
X1040938Y913961D02*
Y922459D01*
X1045187D01*
X1046603Y921042D01*
Y918210D01*
X1045187Y916794D01*
X1040938D01*
X1043771D02*
X1046603Y913961D01*
X1049436D02*
X1052268D01*
X1050852D01*
Y922459D01*
X1049436Y921042D01*
X1056517D02*
X1057933Y922459D01*
X1060765D01*
X1062182Y921042D01*
Y915378D01*
X1060765Y913961D01*
X1057933D01*
X1056517Y915378D01*
Y921042D01*
X1022889Y742511D02*
Y751009D01*
X1027138D01*
X1028554Y749592D01*
Y746760D01*
X1027138Y745344D01*
X1022889D01*
X1025721D02*
X1028554Y742511D01*
X1031386Y743928D02*
X1032802Y742511D01*
X1035635D01*
X1037051Y743928D01*
Y749592D01*
X1035635Y751009D01*
X1032802D01*
X1031386Y749592D01*
Y748176D01*
X1032802Y746760D01*
X1037051D01*
X930179Y757751D02*
Y766249D01*
X934428D01*
X935844Y764832D01*
Y762000D01*
X934428Y760584D01*
X930179D01*
X933011D02*
X935844Y757751D01*
X938676Y764832D02*
X940092Y766249D01*
X942925D01*
X944341Y764832D01*
Y763416D01*
X942925Y762000D01*
X944341Y760584D01*
Y759168D01*
X942925Y757751D01*
X940092D01*
X938676Y759168D01*
Y760584D01*
X940092Y762000D01*
X938676Y763416D01*
Y764832D01*
X940092Y762000D02*
X942925D01*
X1008919Y778071D02*
Y786569D01*
X1013168D01*
X1014584Y785152D01*
Y782320D01*
X1013168Y780904D01*
X1008919D01*
X1011751D02*
X1014584Y778071D01*
X1017416Y786569D02*
X1023081D01*
Y785152D01*
X1017416Y779488D01*
Y778071D01*
X1050829Y1227651D02*
Y1236149D01*
X1055078D01*
X1056494Y1234732D01*
Y1231900D01*
X1055078Y1230484D01*
X1050829D01*
X1053661D02*
X1056494Y1227651D01*
X1064991Y1236149D02*
X1062159Y1234732D01*
X1059326Y1231900D01*
Y1229068D01*
X1060742Y1227651D01*
X1063575D01*
X1064991Y1229068D01*
Y1230484D01*
X1063575Y1231900D01*
X1059326D01*
X1019079Y1156531D02*
Y1165029D01*
X1023328D01*
X1024744Y1163612D01*
Y1160780D01*
X1023328Y1159364D01*
X1019079D01*
X1021911D02*
X1024744Y1156531D01*
X1033241Y1165029D02*
X1027576D01*
Y1160780D01*
X1030409Y1162196D01*
X1031825D01*
X1033241Y1160780D01*
Y1157948D01*
X1031825Y1156531D01*
X1028992D01*
X1027576Y1157948D01*
X1015269Y1214951D02*
Y1223449D01*
X1019518D01*
X1020934Y1222032D01*
Y1219200D01*
X1019518Y1217784D01*
X1015269D01*
X1018101D02*
X1020934Y1214951D01*
X1028015D02*
Y1223449D01*
X1023766Y1219200D01*
X1029431D01*
X1090199Y1359731D02*
Y1368229D01*
X1094448D01*
X1095864Y1366812D01*
Y1363980D01*
X1094448Y1362564D01*
X1090199D01*
X1093031D02*
X1095864Y1359731D01*
X1098696Y1366812D02*
X1100112Y1368229D01*
X1102945D01*
X1104361Y1366812D01*
Y1365396D01*
X1102945Y1363980D01*
X1101529D01*
X1102945D01*
X1104361Y1362564D01*
Y1361148D01*
X1102945Y1359731D01*
X1100112D01*
X1098696Y1361148D01*
X968756Y1357884D02*
Y1366381D01*
X973005D01*
X974421Y1364965D01*
Y1362133D01*
X973005Y1360716D01*
X968756D01*
X971588D02*
X974421Y1357884D01*
X982918D02*
X977253D01*
X982918Y1363549D01*
Y1364965D01*
X981502Y1366381D01*
X978670D01*
X977253Y1364965D01*
X942086Y1357884D02*
Y1366381D01*
X946335D01*
X947751Y1364965D01*
Y1362133D01*
X946335Y1360716D01*
X942086D01*
X944918D02*
X947751Y1357884D01*
X950583D02*
X953416D01*
X952000D01*
Y1366381D01*
X950583Y1364965D01*
X708760Y833951D02*
Y842449D01*
X713009D01*
X714425Y841032D01*
Y838200D01*
X713009Y836784D01*
X708760D01*
X722922Y841032D02*
X721506Y842449D01*
X718674D01*
X717258Y841032D01*
Y839616D01*
X718674Y838200D01*
X721506D01*
X722922Y836784D01*
Y835368D01*
X721506Y833951D01*
X718674D01*
X717258Y835368D01*
X731420Y833951D02*
X725755D01*
X731420Y839616D01*
Y841032D01*
X730004Y842449D01*
X727171D01*
X725755Y841032D01*
X801617Y1376241D02*
Y1384739D01*
X805865D01*
X807281Y1383322D01*
Y1380490D01*
X805865Y1379074D01*
X801617D01*
X815779Y1383322D02*
X814362Y1384739D01*
X811530D01*
X810114Y1383322D01*
Y1381906D01*
X811530Y1380490D01*
X814362D01*
X815779Y1379074D01*
Y1377658D01*
X814362Y1376241D01*
X811530D01*
X810114Y1377658D01*
X818611Y1376241D02*
X821443D01*
X820027D01*
Y1384739D01*
X818611Y1383322D01*
X655143Y1201281D02*
X652310D01*
X653727D01*
Y1194200D01*
X652310Y1192784D01*
X650894D01*
X649478Y1194200D01*
X663640Y1192784D02*
X657975D01*
X663640Y1198449D01*
Y1199865D01*
X662224Y1201281D01*
X659391D01*
X657975Y1199865D01*
X639903Y1573391D02*
X637070D01*
X638487D01*
Y1566310D01*
X637070Y1564894D01*
X635654D01*
X634238Y1566310D01*
X642735Y1564894D02*
X645568D01*
X644152D01*
Y1573391D01*
X642735Y1571975D01*
X700455Y1007402D02*
X699039Y1008819D01*
X696207D01*
X694790Y1007402D01*
Y1001738D01*
X696207Y1000321D01*
X699039D01*
X700455Y1001738D01*
X707536Y1000321D02*
Y1008819D01*
X703288Y1004570D01*
X708952D01*
X711785Y1007402D02*
X713201Y1008819D01*
X716033D01*
X717450Y1007402D01*
Y1001738D01*
X716033Y1000321D01*
X713201D01*
X711785Y1001738D01*
Y1007402D01*
X697915Y1172502D02*
X696499Y1173919D01*
X693667D01*
X692250Y1172502D01*
Y1166838D01*
X693667Y1165421D01*
X696499D01*
X697915Y1166838D01*
X700748Y1172502D02*
X702164Y1173919D01*
X704996D01*
X706412Y1172502D01*
Y1171086D01*
X704996Y1169670D01*
X703580D01*
X704996D01*
X706412Y1168254D01*
Y1166838D01*
X704996Y1165421D01*
X702164D01*
X700748Y1166838D01*
X709245D02*
X710661Y1165421D01*
X713493D01*
X714910Y1166838D01*
Y1172502D01*
X713493Y1173919D01*
X710661D01*
X709245Y1172502D01*
Y1171086D01*
X710661Y1169670D01*
X714910D01*
X887145Y1118012D02*
X885729Y1119429D01*
X882896D01*
X881480Y1118012D01*
Y1112348D01*
X882896Y1110931D01*
X885729D01*
X887145Y1112348D01*
X889978Y1118012D02*
X891394Y1119429D01*
X894226D01*
X895642Y1118012D01*
Y1116596D01*
X894226Y1115180D01*
X892810D01*
X894226D01*
X895642Y1113764D01*
Y1112348D01*
X894226Y1110931D01*
X891394D01*
X889978Y1112348D01*
X898475Y1118012D02*
X899891Y1119429D01*
X902723D01*
X904140Y1118012D01*
Y1116596D01*
X902723Y1115180D01*
X904140Y1113764D01*
Y1112348D01*
X902723Y1110931D01*
X899891D01*
X898475Y1112348D01*
Y1113764D01*
X899891Y1115180D01*
X898475Y1116596D01*
Y1118012D01*
X899891Y1115180D02*
X902723D01*
X784395Y761022D02*
X782979Y762439D01*
X780146D01*
X778730Y761022D01*
Y755358D01*
X780146Y753941D01*
X782979D01*
X784395Y755358D01*
X787228Y761022D02*
X788644Y762439D01*
X791476D01*
X792892Y761022D01*
Y759606D01*
X791476Y758190D01*
X790060D01*
X791476D01*
X792892Y756774D01*
Y755358D01*
X791476Y753941D01*
X788644D01*
X787228Y755358D01*
X795725Y762439D02*
X801390D01*
Y761022D01*
X795725Y755358D01*
Y753941D01*
X863015Y940092D02*
X861599Y941509D01*
X858766D01*
X857350Y940092D01*
Y934428D01*
X858766Y933011D01*
X861599D01*
X863015Y934428D01*
X865848Y940092D02*
X867264Y941509D01*
X870096D01*
X871512Y940092D01*
Y938676D01*
X870096Y937260D01*
X868680D01*
X870096D01*
X871512Y935844D01*
Y934428D01*
X870096Y933011D01*
X867264D01*
X865848Y934428D01*
X880010Y941509D02*
X877177Y940092D01*
X874345Y937260D01*
Y934428D01*
X875761Y933011D01*
X878594D01*
X880010Y934428D01*
Y935844D01*
X878594Y937260D01*
X874345D01*
X901115Y810552D02*
X899699Y811969D01*
X896867D01*
X895450Y810552D01*
Y804888D01*
X896867Y803471D01*
X899699D01*
X901115Y804888D01*
X903948Y810552D02*
X905364Y811969D01*
X908196D01*
X909612Y810552D01*
Y809136D01*
X908196Y807720D01*
X906780D01*
X908196D01*
X909612Y806304D01*
Y804888D01*
X908196Y803471D01*
X905364D01*
X903948Y804888D01*
X918110Y811969D02*
X912445D01*
Y807720D01*
X915277Y809136D01*
X916693D01*
X918110Y807720D01*
Y804888D01*
X916693Y803471D01*
X913861D01*
X912445Y804888D01*
X912405Y741673D02*
X910917Y743013D01*
X908088Y742865D01*
X906748Y741376D01*
X907044Y735719D01*
X908532Y734379D01*
X911361Y734527D01*
X912701Y736015D01*
X915234Y741821D02*
X916574Y743309D01*
X919402Y743457D01*
X920891Y742117D01*
X920965Y740702D01*
X919624Y739214D01*
X918210Y739140D01*
X919624Y739214D01*
X921113Y737874D01*
X921187Y736460D01*
X919846Y734971D01*
X917018Y734823D01*
X915529Y736163D01*
X928332Y735415D02*
X927888Y743901D01*
X923867Y739436D01*
X929524Y739732D01*
X771575Y810552D02*
X770159Y811969D01*
X767327D01*
X765910Y810552D01*
Y804888D01*
X767327Y803471D01*
X770159D01*
X771575Y804888D01*
X774408Y810552D02*
X775824Y811969D01*
X778656D01*
X780072Y810552D01*
Y809136D01*
X778656Y807720D01*
X777240D01*
X778656D01*
X780072Y806304D01*
Y804888D01*
X778656Y803471D01*
X775824D01*
X774408Y804888D01*
X782905Y810552D02*
X784321Y811969D01*
X787153D01*
X788570Y810552D01*
Y809136D01*
X787153Y807720D01*
X785737D01*
X787153D01*
X788570Y806304D01*
Y804888D01*
X787153Y803471D01*
X784321D01*
X782905Y804888D01*
X947243Y856203D02*
X945827Y857619D01*
X942994D01*
X941578Y856203D01*
Y850538D01*
X942994Y849122D01*
X945827D01*
X947243Y850538D01*
X950075Y856203D02*
X951491Y857619D01*
X954324D01*
X955740Y856203D01*
Y854787D01*
X954324Y853371D01*
X952908D01*
X954324D01*
X955740Y851954D01*
Y850538D01*
X954324Y849122D01*
X951491D01*
X950075Y850538D01*
X964237Y849122D02*
X958572D01*
X964237Y854787D01*
Y856203D01*
X962821Y857619D01*
X959989D01*
X958572Y856203D01*
X788231Y833412D02*
X786815Y834829D01*
X783983D01*
X782567Y833412D01*
Y827748D01*
X783983Y826331D01*
X786815D01*
X788231Y827748D01*
X791064Y833412D02*
X792480Y834829D01*
X795312D01*
X796729Y833412D01*
Y831996D01*
X795312Y830580D01*
X793896D01*
X795312D01*
X796729Y829164D01*
Y827748D01*
X795312Y826331D01*
X792480D01*
X791064Y827748D01*
X799561Y826331D02*
X802393D01*
X800977D01*
Y834829D01*
X799561Y833412D01*
X831265Y733082D02*
X829849Y734499D01*
X827017D01*
X825600Y733082D01*
Y727418D01*
X827017Y726001D01*
X829849D01*
X831265Y727418D01*
X834098Y733082D02*
X835514Y734499D01*
X838346D01*
X839762Y733082D01*
Y731666D01*
X838346Y730250D01*
X836930D01*
X838346D01*
X839762Y728834D01*
Y727418D01*
X838346Y726001D01*
X835514D01*
X834098Y727418D01*
X842595Y733082D02*
X844011Y734499D01*
X846843D01*
X848260Y733082D01*
Y727418D01*
X846843Y726001D01*
X844011D01*
X842595Y727418D01*
Y733082D01*
X906195Y832142D02*
X904779Y833559D01*
X901946D01*
X900530Y832142D01*
Y826478D01*
X901946Y825061D01*
X904779D01*
X906195Y826478D01*
X914692Y825061D02*
X909028D01*
X914692Y830726D01*
Y832142D01*
X913276Y833559D01*
X910444D01*
X909028Y832142D01*
X917525Y826478D02*
X918941Y825061D01*
X921774D01*
X923190Y826478D01*
Y832142D01*
X921774Y833559D01*
X918941D01*
X917525Y832142D01*
Y830726D01*
X918941Y829310D01*
X923190D01*
X783005Y787692D02*
X781589Y789109D01*
X778756D01*
X777340Y787692D01*
Y782028D01*
X778756Y780611D01*
X781589D01*
X783005Y782028D01*
X791502Y780611D02*
X785838D01*
X791502Y786276D01*
Y787692D01*
X790086Y789109D01*
X787254D01*
X785838Y787692D01*
X794335D02*
X795751Y789109D01*
X798584D01*
X800000Y787692D01*
Y786276D01*
X798584Y784860D01*
X800000Y783444D01*
Y782028D01*
X798584Y780611D01*
X795751D01*
X794335Y782028D01*
Y783444D01*
X795751Y784860D01*
X794335Y786276D01*
Y787692D01*
X795751Y784860D02*
X798584D01*
X678865Y938822D02*
X677449Y940239D01*
X674616D01*
X673200Y938822D01*
Y933158D01*
X674616Y931741D01*
X677449D01*
X678865Y933158D01*
X687362Y931741D02*
X681698D01*
X687362Y937406D01*
Y938822D01*
X685946Y940239D01*
X683114D01*
X681698Y938822D01*
X690195Y940239D02*
X695860D01*
Y938822D01*
X690195Y933158D01*
Y931741D01*
X996365Y999782D02*
X994949Y1001199D01*
X992116D01*
X990700Y999782D01*
Y994118D01*
X992116Y992701D01*
X994949D01*
X996365Y994118D01*
X1004862Y992701D02*
X999198D01*
X1004862Y998366D01*
Y999782D01*
X1003446Y1001199D01*
X1000614D01*
X999198Y999782D01*
X1013360Y1001199D02*
X1010527Y999782D01*
X1007695Y996950D01*
Y994118D01*
X1009111Y992701D01*
X1011944D01*
X1013360Y994118D01*
Y995534D01*
X1011944Y996950D01*
X1007695D01*
X958265Y999782D02*
X956849Y1001199D01*
X954016D01*
X952600Y999782D01*
Y994118D01*
X954016Y992701D01*
X956849D01*
X958265Y994118D01*
X966762Y992701D02*
X961098D01*
X966762Y998366D01*
Y999782D01*
X965346Y1001199D01*
X962514D01*
X961098Y999782D01*
X975260Y1001199D02*
X969595D01*
Y996950D01*
X972427Y998366D01*
X973844D01*
X975260Y996950D01*
Y994118D01*
X973844Y992701D01*
X971011D01*
X969595Y994118D01*
X733475Y938822D02*
X732059Y940239D01*
X729227D01*
X727810Y938822D01*
Y933158D01*
X729227Y931741D01*
X732059D01*
X733475Y933158D01*
X741972Y931741D02*
X736308D01*
X741972Y937406D01*
Y938822D01*
X740556Y940239D01*
X737724D01*
X736308Y938822D01*
X749053Y931741D02*
Y940239D01*
X744805Y935990D01*
X750470D01*
X939215Y913422D02*
X937799Y914839D01*
X934967D01*
X933550Y913422D01*
Y907758D01*
X934967Y906341D01*
X937799D01*
X939215Y907758D01*
X947712Y906341D02*
X942048D01*
X947712Y912006D01*
Y913422D01*
X946296Y914839D01*
X943464D01*
X942048Y913422D01*
X950545D02*
X951961Y914839D01*
X954793D01*
X956210Y913422D01*
Y912006D01*
X954793Y910590D01*
X953377D01*
X954793D01*
X956210Y909174D01*
Y907758D01*
X954793Y906341D01*
X951961D01*
X950545Y907758D01*
X1057325Y952792D02*
X1055909Y954209D01*
X1053076D01*
X1051660Y952792D01*
Y947128D01*
X1053076Y945711D01*
X1055909D01*
X1057325Y947128D01*
X1065822Y945711D02*
X1060158D01*
X1065822Y951376D01*
Y952792D01*
X1064406Y954209D01*
X1061574D01*
X1060158Y952792D01*
X1074320Y945711D02*
X1068655D01*
X1074320Y951376D01*
Y952792D01*
X1072904Y954209D01*
X1070071D01*
X1068655Y952792D01*
X1004131Y1548422D02*
X1002715Y1549839D01*
X999883D01*
X998466Y1548422D01*
Y1542758D01*
X999883Y1541341D01*
X1002715D01*
X1004131Y1542758D01*
X1012629Y1541341D02*
X1006964D01*
X1012629Y1547006D01*
Y1548422D01*
X1011212Y1549839D01*
X1008380D01*
X1006964Y1548422D01*
X1015461Y1541341D02*
X1018294D01*
X1016877D01*
Y1549839D01*
X1015461Y1548422D01*
X840212Y1177416D02*
X838795Y1178832D01*
X835963D01*
X834547Y1177416D01*
Y1171751D01*
X835963Y1170335D01*
X838795D01*
X840212Y1171751D01*
X848709Y1170335D02*
X843044D01*
X848709Y1176000D01*
Y1177416D01*
X847293Y1178832D01*
X844460D01*
X843044Y1177416D01*
X851541D02*
X852958Y1178832D01*
X855790D01*
X857206Y1177416D01*
Y1171751D01*
X855790Y1170335D01*
X852958D01*
X851541Y1171751D01*
Y1177416D01*
X1055493Y1384592D02*
X1054077Y1386009D01*
X1051245D01*
X1049828Y1384592D01*
Y1378928D01*
X1051245Y1377511D01*
X1054077D01*
X1055493Y1378928D01*
X1058326Y1377511D02*
X1061158D01*
X1059742D01*
Y1386009D01*
X1058326Y1384592D01*
X1065407Y1378928D02*
X1066823Y1377511D01*
X1069655D01*
X1071072Y1378928D01*
Y1384592D01*
X1069655Y1386009D01*
X1066823D01*
X1065407Y1384592D01*
Y1383176D01*
X1066823Y1381760D01*
X1071072D01*
X844673Y1201712D02*
X843257Y1203129D01*
X840425D01*
X839008Y1201712D01*
Y1196048D01*
X840425Y1194631D01*
X843257D01*
X844673Y1196048D01*
X847506Y1194631D02*
X850338D01*
X848922D01*
Y1203129D01*
X847506Y1201712D01*
X854587D02*
X856003Y1203129D01*
X858835D01*
X860252Y1201712D01*
Y1200296D01*
X858835Y1198880D01*
X860252Y1197464D01*
Y1196048D01*
X858835Y1194631D01*
X856003D01*
X854587Y1196048D01*
Y1197464D01*
X856003Y1198880D01*
X854587Y1200296D01*
Y1201712D01*
X856003Y1198880D02*
X858835D01*
X1019933Y1394534D02*
X1018517Y1395951D01*
X1015685D01*
X1014268Y1394534D01*
Y1388870D01*
X1015685Y1387453D01*
X1018517D01*
X1019933Y1388870D01*
X1022766Y1387453D02*
X1025598D01*
X1024182D01*
Y1395951D01*
X1022766Y1394534D01*
X1029847Y1395951D02*
X1035512D01*
Y1394534D01*
X1029847Y1388870D01*
Y1387453D01*
X967863Y1219492D02*
X966447Y1220909D01*
X963615D01*
X962198Y1219492D01*
Y1213828D01*
X963615Y1212411D01*
X966447D01*
X967863Y1213828D01*
X970696Y1212411D02*
X973528D01*
X972112D01*
Y1220909D01*
X970696Y1219492D01*
X983442Y1220909D02*
X980609Y1219492D01*
X977777Y1216660D01*
Y1213828D01*
X979193Y1212411D01*
X982025D01*
X983442Y1213828D01*
Y1215244D01*
X982025Y1216660D01*
X977777D01*
X927223Y1242352D02*
X925807Y1243769D01*
X922975D01*
X921558Y1242352D01*
Y1236688D01*
X922975Y1235271D01*
X925807D01*
X927223Y1236688D01*
X930056Y1235271D02*
X932888D01*
X931472D01*
Y1243769D01*
X930056Y1242352D01*
X942802Y1243769D02*
X937137D01*
Y1239520D01*
X939969Y1240936D01*
X941385D01*
X942802Y1239520D01*
Y1236688D01*
X941385Y1235271D01*
X938553D01*
X937137Y1236688D01*
X842133Y1228382D02*
X840717Y1229799D01*
X837885D01*
X836468Y1228382D01*
Y1222718D01*
X837885Y1221301D01*
X840717D01*
X842133Y1222718D01*
X844966Y1221301D02*
X847798D01*
X846382D01*
Y1229799D01*
X844966Y1228382D01*
X856295Y1221301D02*
Y1229799D01*
X852047Y1225550D01*
X857712D01*
X815463Y1260132D02*
X814047Y1261549D01*
X811215D01*
X809798Y1260132D01*
Y1254468D01*
X811215Y1253051D01*
X814047D01*
X815463Y1254468D01*
X818296Y1253051D02*
X821128D01*
X819712D01*
Y1261549D01*
X818296Y1260132D01*
X825377D02*
X826793Y1261549D01*
X829625D01*
X831042Y1260132D01*
Y1258716D01*
X829625Y1257300D01*
X828209D01*
X829625D01*
X831042Y1255884D01*
Y1254468D01*
X829625Y1253051D01*
X826793D01*
X825377Y1254468D01*
X895473Y1281722D02*
X894057Y1283139D01*
X891225D01*
X889808Y1281722D01*
Y1276058D01*
X891225Y1274641D01*
X894057D01*
X895473Y1276058D01*
X898306Y1274641D02*
X901138D01*
X899722D01*
Y1283139D01*
X898306Y1281722D01*
X911052Y1274641D02*
X905387D01*
X911052Y1280306D01*
Y1281722D01*
X909635Y1283139D01*
X906803D01*
X905387Y1281722D01*
X913253Y1554772D02*
X911837Y1556189D01*
X909005D01*
X907588Y1554772D01*
Y1549108D01*
X909005Y1547691D01*
X911837D01*
X913253Y1549108D01*
X916086Y1547691D02*
X918918D01*
X917502D01*
Y1556189D01*
X916086Y1554772D01*
X923167D02*
X924583Y1556189D01*
X927415D01*
X928832Y1554772D01*
Y1549108D01*
X927415Y1547691D01*
X924583D01*
X923167Y1549108D01*
Y1554772D01*
X987915Y1398500D02*
X986440Y1399854D01*
X983610Y1399734D01*
X982255Y1398259D01*
X982496Y1392599D01*
X983971Y1391245D01*
X986801Y1391365D01*
X988156Y1392840D01*
X990985Y1392960D02*
X992460Y1391606D01*
X995290Y1391726D01*
X996645Y1393201D01*
X996404Y1398861D01*
X994929Y1400216D01*
X992099Y1400095D01*
X990745Y1398620D01*
X990805Y1397205D01*
X992280Y1395850D01*
X996525Y1396031D01*
X998074Y1455712D02*
X996658Y1457129D01*
X993825D01*
X992409Y1455712D01*
Y1450048D01*
X993825Y1448631D01*
X996658D01*
X998074Y1450048D01*
X1000906Y1455712D02*
X1002322Y1457129D01*
X1005155D01*
X1006571Y1455712D01*
Y1454296D01*
X1005155Y1452880D01*
X1006571Y1451464D01*
Y1450048D01*
X1005155Y1448631D01*
X1002322D01*
X1000906Y1450048D01*
Y1451464D01*
X1002322Y1452880D01*
X1000906Y1454296D01*
Y1455712D01*
X1002322Y1452880D02*
X1005155D01*
X909174Y1474762D02*
X907758Y1476179D01*
X904925D01*
X903509Y1474762D01*
Y1469098D01*
X904925Y1467681D01*
X907758D01*
X909174Y1469098D01*
X917671Y1476179D02*
X914839Y1474762D01*
X912006Y1471930D01*
Y1469098D01*
X913422Y1467681D01*
X916255D01*
X917671Y1469098D01*
Y1470514D01*
X916255Y1471930D01*
X912006D01*
X887584Y1474762D02*
X886168Y1476179D01*
X883335D01*
X881919Y1474762D01*
Y1469098D01*
X883335Y1467681D01*
X886168D01*
X887584Y1469098D01*
X896081Y1476179D02*
X890416D01*
Y1471930D01*
X893249Y1473346D01*
X894665D01*
X896081Y1471930D01*
Y1469098D01*
X894665Y1467681D01*
X891832D01*
X890416Y1469098D01*
X693274Y1533182D02*
X691858Y1534599D01*
X689025D01*
X687609Y1533182D01*
Y1527518D01*
X689025Y1526101D01*
X691858D01*
X693274Y1527518D01*
X700355Y1526101D02*
Y1534599D01*
X696106Y1530350D01*
X701771D01*
X712324Y1434122D02*
X710908Y1435539D01*
X708075D01*
X706659Y1434122D01*
Y1428458D01*
X708075Y1427041D01*
X710908D01*
X712324Y1428458D01*
X715156Y1434122D02*
X716572Y1435539D01*
X719405D01*
X720821Y1434122D01*
Y1432706D01*
X719405Y1431290D01*
X717989D01*
X719405D01*
X720821Y1429874D01*
Y1428458D01*
X719405Y1427041D01*
X716572D01*
X715156Y1428458D01*
X783444Y1247432D02*
X782028Y1248849D01*
X779195D01*
X777779Y1247432D01*
Y1241768D01*
X779195Y1240351D01*
X782028D01*
X783444Y1241768D01*
X791941Y1240351D02*
X786276D01*
X791941Y1246016D01*
Y1247432D01*
X790525Y1248849D01*
X787692D01*
X786276Y1247432D01*
X788670Y1281722D02*
X787254Y1283139D01*
X784421D01*
X783005Y1281722D01*
Y1276058D01*
X784421Y1274641D01*
X787254D01*
X788670Y1276058D01*
X791502Y1274641D02*
X794335D01*
X792919D01*
Y1283139D01*
X791502Y1281722D01*
D14*
X729000Y1370240D02*
X922000D01*
Y1309340D02*
Y1370240D01*
X729000Y1309340D02*
X922000D01*
X729000D02*
Y1370240D01*
X725190Y911770D02*
X918190D01*
Y850870D02*
Y911770D01*
X725190Y850870D02*
X918190D01*
X725190D02*
Y911770D01*
D15*
X1240791Y808988D02*
X1235713D01*
X1238252D01*
Y796292D01*
X1235713Y793753D01*
X1233173D01*
X1230634Y796292D01*
X1253487Y793753D02*
Y808988D01*
X1245869Y801370D01*
X1256026D01*
X1287781Y1605278D02*
X1282702D01*
X1285242D01*
Y1592582D01*
X1282702Y1590043D01*
X1280163D01*
X1277624Y1592582D01*
X1292859Y1602738D02*
X1295398Y1605278D01*
X1300477D01*
X1303016Y1602738D01*
Y1600199D01*
X1300477Y1597660D01*
X1297937D01*
X1300477D01*
X1303016Y1595121D01*
Y1592582D01*
X1300477Y1590043D01*
X1295398D01*
X1292859Y1592582D01*
M02*
