M48
;Layer_Color=9474304
;FILE_FORMAT=4:3
METRIC,TZ
;TYPE=PLATED
T01F00S00C0.711
T02F00S00C0.720
T03F00S00C1.016
T04F00S00C1.397
%
T01
X90297Y68834
X87122Y78232
X106299Y77978
X70993Y91440
X64643Y96139
X61468Y118491
X84455Y109982
X91821Y104902
X91567Y102997
X90678Y100965
X94234Y103632
X96012Y101854
X99441Y101727
X101346Y102870
X102997Y109474
X108966Y97663
X109855Y92329
X107569Y90805
X98679Y90678
X99441Y93853
X90297Y92583
X82169
X93853Y87122
X97917Y81534
X101092Y82296
X104140Y79883
X114808Y99949
X105664Y119634
X99949Y120015
X101727Y132461
X104648Y131445
X107442Y130048
X108839Y131699
X109474Y125476
X92329Y128016
X90805Y132080
X89535Y139192
X90805Y140716
X86233Y139827
X89662Y148971
X93980Y148717
X97155Y147574
X102743Y146304
X104267Y149860
X106172Y153797
X101727Y156845
X97536Y155829
X94869Y155956
X89281Y156591
X107442Y145542
X105156Y141097
X81153Y122682
X65913Y122047
X69342Y138684
X73406Y139827
X69088Y145796
X72159Y151003
T02
X74549Y86360
X77089
X82169
X84709
X87249
X87630Y132207
X85090
X82550
X77470
X74930
T03
X66294Y101219
Y103759
Y106299
Y108839
Y111379
Y113919
Y116459
X64770Y138430
Y140970
Y143510
Y146050
Y148590
Y151130
Y153670
T04
X123571Y73406
X118491
X113411
X119253Y155067
X124333
X114173
M30
