G04*
G04 #@! TF.GenerationSoftware,Altium Limited,Altium Designer,25.8.1 (18)*
G04*
G04 Layer_Color=8421504*
%FSLAX44Y44*%
%MOMM*%
G71*
G04*
G04 #@! TF.SameCoordinates,0127971C-3B00-4649-9251-CE6833F8E090*
G04*
G04*
G04 #@! TF.FilePolarity,Positive*
G04*
G01*
G75*
%ADD16R,4.7000X3.4300*%
%ADD17R,1.4478X0.4572*%
%ADD18R,0.8128X0.7564*%
%ADD19R,0.8890X0.5532*%
%ADD20R,0.9400X0.8300*%
%ADD21R,0.8580X1.2446*%
%ADD22R,0.9500X0.9500*%
%ADD23R,0.8300X0.9400*%
%ADD24R,0.8968X0.4468*%
%ADD25R,0.8500X0.4000*%
%ADD26R,0.9500X0.9500*%
%ADD27R,0.5532X0.8890*%
%ADD28R,1.6510X0.5588*%
%ADD29R,0.7564X0.8128*%
%ADD30R,1.2446X0.8580*%
%ADD31R,3.4300X4.7000*%
D16*
X1151890Y844550D02*
D03*
X1211580Y878840D02*
D03*
X1224280Y932180D02*
D03*
X1109980Y1089660D02*
D03*
X982980Y711200D02*
D03*
X594360Y1507490D02*
D03*
X826770Y695960D02*
D03*
X1075690Y1037590D02*
D03*
X937260Y1165860D02*
D03*
X1144270Y1163320D02*
D03*
X1170940Y1258570D02*
D03*
X1145540Y1466850D02*
D03*
X1146810Y1320800D02*
D03*
X1143000Y1209040D02*
D03*
D17*
X1032920Y863040D02*
D03*
Y869540D02*
D03*
X988920Y850040D02*
D03*
Y869540D02*
D03*
Y863040D02*
D03*
X1015550Y1281430D02*
D03*
Y1268430D02*
D03*
X1032920Y850040D02*
D03*
X1015550Y1261930D02*
D03*
X971550Y1268430D02*
D03*
X1015550Y1274930D02*
D03*
X971550Y1261930D02*
D03*
Y1274930D02*
D03*
Y1281430D02*
D03*
X1032920Y856540D02*
D03*
X988920D02*
D03*
D18*
X1079500Y831850D02*
D03*
X1031240Y918210D02*
D03*
X1096010Y1381760D02*
D03*
Y1402080D02*
D03*
X1057910Y1244600D02*
D03*
Y1264920D02*
D03*
X947420Y1346200D02*
D03*
X974090D02*
D03*
X947420Y1325880D02*
D03*
X974090D02*
D03*
X1031240Y897890D02*
D03*
X1150620Y938530D02*
D03*
Y958850D02*
D03*
X1079500Y811530D02*
D03*
D19*
X858520Y750570D02*
D03*
Y727710D02*
D03*
D20*
X895350Y745990D02*
D03*
Y732790D02*
D03*
X946150Y836160D02*
D03*
X993140Y969780D02*
D03*
X732790Y1442970D02*
D03*
X734060Y1005340D02*
D03*
X701040Y966470D02*
D03*
X732790Y1429770D02*
D03*
X734060Y1018540D02*
D03*
X701040Y953270D02*
D03*
X1016000Y1363262D02*
D03*
X910590Y1443490D02*
D03*
X920750Y1535430D02*
D03*
X1016000Y1376462D02*
D03*
X920750Y1522230D02*
D03*
X910590Y1456690D02*
D03*
X993140Y982980D02*
D03*
X946150Y822960D02*
D03*
D21*
X890270Y828040D02*
D03*
X833120Y783590D02*
D03*
X867410Y828040D02*
D03*
X750570Y1276350D02*
D03*
X810260Y783590D02*
D03*
X773430Y1276350D02*
D03*
X891540Y1228090D02*
D03*
X868680D02*
D03*
D22*
X906780Y793510D02*
D03*
X900430Y1099820D02*
D03*
X1041400Y944880D02*
D03*
X882650Y955040D02*
D03*
X906780Y778510D02*
D03*
X900430Y1084820D02*
D03*
X971550Y966590D02*
D03*
X1041400Y959880D02*
D03*
X689610Y1512570D02*
D03*
X734060Y967620D02*
D03*
Y952620D02*
D03*
X689610Y1497570D02*
D03*
X1059180Y1351520D02*
D03*
X999490Y1422520D02*
D03*
X887730Y1442960D02*
D03*
X1002030Y1530230D02*
D03*
Y1515230D02*
D03*
X999490Y1437520D02*
D03*
X1059180Y1366520D02*
D03*
X887730Y1457960D02*
D03*
X882650Y970040D02*
D03*
X971550Y981590D02*
D03*
D23*
X943360Y928370D02*
D03*
X832100Y807720D02*
D03*
X956560Y928370D02*
D03*
X753880Y1244600D02*
D03*
X818900Y807720D02*
D03*
X767080Y1244600D02*
D03*
X966220Y1235710D02*
D03*
X886960Y1198880D02*
D03*
X979420Y1235710D02*
D03*
X873760Y1198880D02*
D03*
D24*
X918210Y960120D02*
D03*
X942210Y969620D02*
D03*
X970280Y1444600D02*
D03*
Y1425600D02*
D03*
X946280D02*
D03*
X970280Y1435100D02*
D03*
X918210Y979120D02*
D03*
X942210D02*
D03*
Y960120D02*
D03*
X946280Y1444600D02*
D03*
D25*
X961570Y1083460D02*
D03*
Y1076960D02*
D03*
X952680Y1514960D02*
D03*
Y1527960D02*
D03*
Y1521460D02*
D03*
X975180Y1527960D02*
D03*
Y1521460D02*
D03*
Y1514960D02*
D03*
X961570Y1070460D02*
D03*
X984070Y1083460D02*
D03*
Y1076960D02*
D03*
Y1070460D02*
D03*
D26*
X828040Y758190D02*
D03*
X813040D02*
D03*
X957700Y1397000D02*
D03*
X972700D02*
D03*
X887490Y1172210D02*
D03*
X872490D02*
D03*
D27*
X836930Y826770D02*
D03*
X814070D02*
D03*
X877570Y1278890D02*
D03*
X854710D02*
D03*
X864870Y1256030D02*
D03*
X842010D02*
D03*
D28*
X860044Y955040D02*
D03*
Y1005840D02*
D03*
Y980440D02*
D03*
X762000Y1544320D02*
D03*
Y1468120D02*
D03*
Y1455420D02*
D03*
Y1442720D02*
D03*
X763016Y1069340D02*
D03*
Y993140D02*
D03*
Y980440D02*
D03*
Y967740D02*
D03*
X762000Y1430020D02*
D03*
Y1480820D02*
D03*
X763016Y1005840D02*
D03*
Y955040D02*
D03*
X859028Y1544320D02*
D03*
Y1468120D02*
D03*
Y1442720D02*
D03*
Y1480820D02*
D03*
Y1455420D02*
D03*
Y1430020D02*
D03*
X762000Y1531620D02*
D03*
Y1518920D02*
D03*
Y1506220D02*
D03*
Y1493520D02*
D03*
X859028D02*
D03*
Y1506220D02*
D03*
Y1518920D02*
D03*
Y1531620D02*
D03*
X763016Y1056640D02*
D03*
Y1043940D02*
D03*
Y1031240D02*
D03*
Y1018540D02*
D03*
X860044Y967740D02*
D03*
Y993140D02*
D03*
Y1018540D02*
D03*
Y1031240D02*
D03*
Y1043940D02*
D03*
Y1056640D02*
D03*
Y1069340D02*
D03*
D29*
X990600Y750570D02*
D03*
X925830Y779780D02*
D03*
X998220Y781050D02*
D03*
X977900D02*
D03*
X1010920Y750570D02*
D03*
X988060Y1162050D02*
D03*
X1008380D02*
D03*
X1029970Y1235710D02*
D03*
X946150Y779780D02*
D03*
X1009650Y1235710D02*
D03*
D30*
X703580Y1149350D02*
D03*
Y1126490D02*
D03*
X930910Y1226820D02*
D03*
Y1203960D02*
D03*
D31*
X1151890Y1393190D02*
D03*
M02*
