G04*
G04 #@! TF.GenerationSoftware,Altium Limited,Altium Designer,25.8.1 (18)*
G04*
G04 Layer_Physical_Order=1*
G04 Layer_Color=255*
%FSLAX44Y44*%
%MOMM*%
G71*
G04*
G04 #@! TF.SameCoordinates,9F7F3028-9E92-4420-A13E-047C07256B80*
G04*
G04*
G04 #@! TF.FilePolarity,Positive*
G04*
G01*
G75*
%ADD15C,0.2540*%
%ADD18R,0.8128X0.7564*%
%ADD19R,0.8890X0.5532*%
%ADD21R,0.8580X1.2446*%
%ADD27R,0.5532X0.8890*%
%ADD28R,1.6510X0.5588*%
%ADD29R,0.7564X0.8128*%
%ADD30R,1.2446X0.8580*%
%ADD32C,1.9050*%
%ADD38R,4.7000X3.4300*%
%ADD39R,1.4478X0.4572*%
%ADD40R,0.9400X0.8300*%
%ADD41R,0.9500X0.9500*%
%ADD42R,0.8300X0.9400*%
%ADD43R,1.1000X0.6500*%
%ADD44R,0.8500X0.4000*%
%ADD45R,0.9500X0.9500*%
%ADD46R,3.4300X4.7000*%
%ADD47C,1.2280*%
%ADD48R,1.2280X1.2280*%
%ADD49C,1.3660*%
%ADD50R,1.3660X1.3660*%
%ADD51C,1.2700*%
D15*
X647700Y1511300D02*
X659130D01*
X1155060Y1274450D02*
X1170940Y1258570D01*
X1088390Y1316990D02*
X1130930Y1274450D01*
X1155060D01*
X1066848Y1293684D02*
X1073643Y1300480D01*
X1062762Y1293684D02*
X1066848D01*
X1057910Y1264920D02*
Y1288832D01*
X1073643Y1300480D02*
X1074420D01*
X1068288Y1314450D02*
X1073348D01*
X1084580Y1303218D01*
Y1263206D02*
Y1303218D01*
X1141730Y1550670D02*
Y1604446D01*
X1147862Y1610578D01*
X1148080Y1610360D01*
X1283752D01*
X1285240Y1608872D01*
Y1210528D02*
Y1608872D01*
X1283752Y1209040D02*
X1285240Y1210528D01*
X1143000Y1209040D02*
X1283752D01*
X1192530Y1550670D02*
X1202690Y1540510D01*
Y1470878D02*
Y1540510D01*
X1201202Y1469390D02*
X1202690Y1470878D01*
X1148080Y1469390D02*
X1201202D01*
X1145540Y1466850D02*
X1148080Y1469390D01*
X1243330Y1436785D02*
Y1550670D01*
Y1436785D02*
X1248410Y1431705D01*
Y1322288D02*
Y1431705D01*
X1246922Y1320800D02*
X1248410Y1322288D01*
X1146810Y1320800D02*
X1246922D01*
X1184910Y734060D02*
X1187450Y731520D01*
Y676910D02*
Y731520D01*
Y676910D02*
X1189990Y674370D01*
X1290102D01*
X1291590Y675858D01*
Y1088172D01*
X1290102Y1089660D02*
X1291590Y1088172D01*
X1109980Y1089660D02*
X1290102D01*
X1211580Y758190D02*
X1235710Y734060D01*
X1211580Y758190D02*
Y878840D01*
X1111250Y711200D02*
X1134110Y734060D01*
X982980Y711200D02*
X1111250D01*
X836930Y826770D02*
Y831441D01*
X1132418Y828670D02*
X1148298Y844550D01*
X1061938Y756702D02*
X1064042D01*
X1132418Y825078D01*
X1148298Y844550D02*
X1151890D01*
X1041400Y777240D02*
X1061938Y756702D01*
X1132418Y825078D02*
Y828670D01*
X1079500Y831850D02*
X1079782D01*
X1079218D02*
X1079500D01*
X1079782D02*
X1082294Y834362D01*
Y834644D02*
X1126490Y878840D01*
X1211580D01*
X1082294Y834362D02*
Y834644D01*
X1038889Y869540D02*
X1075280D01*
X1188720Y922020D02*
X1198880Y932180D01*
X1127760Y922020D02*
X1188720D01*
X1075280Y869540D02*
X1127760Y922020D01*
X895350Y745990D02*
Y772314D01*
Y745490D02*
Y745990D01*
X887250Y830100D02*
X890270Y833120D01*
X887250Y826790D02*
Y830100D01*
X865993Y745490D02*
X895350D01*
X1198880Y932180D02*
X1224280D01*
X1041400Y777240D02*
Y798830D01*
X1032920Y863040D02*
X1048028D01*
X1079218Y831850D01*
X887250Y836140D02*
Y848840D01*
X872490Y863600D02*
X887250Y848840D01*
Y836140D02*
X890270Y833120D01*
X1032920Y869540D02*
X1037873D01*
X1038889Y870556D02*
Y894109D01*
X1037873Y869540D02*
X1038889Y870556D01*
X887139Y826679D02*
X887250Y826790D01*
X863604Y747879D02*
X865993Y745490D01*
X862890Y747879D02*
X863604D01*
X860199Y750570D02*
X862890Y747879D01*
X858520Y750570D02*
X860199D01*
X887139Y773869D02*
X906780Y793510D01*
X887139Y773869D02*
Y826679D01*
X887072Y773802D02*
X893862D01*
X895350Y772314D01*
X1038889Y894109D02*
X1052830Y908050D01*
X1075690D01*
X887250Y848840D02*
X945190Y906780D01*
X986790D01*
X1108492Y1091148D02*
Y1107440D01*
X961570Y1083460D02*
Y1107440D01*
X1108492D01*
Y1091148D02*
X1109980Y1089660D01*
X900430Y1099820D02*
X908050Y1107440D01*
X961570D01*
X1056438Y1014078D02*
Y1016182D01*
X1054950Y1017670D02*
X1056438Y1016182D01*
X1049420Y1019293D02*
Y1055887D01*
X1051043Y1017670D02*
X1054950D01*
X1049420Y1019293D02*
X1051043Y1017670D01*
X1049420Y1055887D02*
X1051043Y1057510D01*
X1071662D02*
X1073150Y1058998D01*
X1051043Y1057510D02*
X1071662D01*
X1073150Y1058998D02*
X1108492D01*
X1109980Y1060486D01*
Y1089660D01*
X918210Y928306D02*
X919698Y926818D01*
X918210Y928306D02*
Y960120D01*
X943610Y926818D02*
X943610Y926818D01*
X1055250Y1012890D02*
X1056438Y1014078D01*
X1055250Y956310D02*
Y1012890D01*
X1032840Y941400D02*
X1040340D01*
X1031240Y918210D02*
Y939800D01*
X1032840Y941400D01*
X919698Y926818D02*
X943610D01*
X1040340Y941400D02*
X1055250Y956310D01*
X1009650Y918210D02*
X1031240D01*
X1007340Y915900D02*
X1009650Y918210D01*
X943610Y917388D02*
X945098Y915900D01*
X943610Y917388D02*
Y926818D01*
X945098Y915900D02*
X1007340D01*
X828040Y758190D02*
X851813Y734417D01*
Y732024D02*
Y734417D01*
X854150Y730401D02*
X856841Y727710D01*
X851813Y732024D02*
X853436Y730401D01*
X854150D01*
X832100Y807720D02*
X833120Y806700D01*
X832100Y807720D02*
Y818880D01*
X836930Y823710D01*
X833120Y783590D02*
Y806700D01*
X836930Y823710D02*
Y826770D01*
X840105Y829945D02*
X842010Y828040D01*
X867410D01*
X836930Y833120D02*
Y853440D01*
X847090Y863600D01*
X836930Y831441D02*
X838426Y829945D01*
X840105D01*
X839470Y956528D02*
Y978952D01*
Y956528D02*
X840958Y955040D01*
X839470Y978952D02*
X840958Y980440D01*
X847090Y863600D02*
Y947547D01*
X854583Y955040D01*
X840958D02*
X854583D01*
X844550Y1099820D02*
X845224Y1099146D01*
X871220Y955040D02*
X875130Y951130D01*
X860044Y955040D02*
X871220D01*
X882650D01*
X875130Y947320D02*
X891713Y930737D01*
X875130Y947320D02*
Y951130D01*
X882650Y955040D02*
X897230Y969620D01*
X840958Y980440D02*
X860044D01*
X845224Y1099146D02*
X882054D01*
X860044Y1005840D02*
X900221D01*
X882054Y1099146D02*
X893501Y1087699D01*
X900221Y925830D02*
X902970D01*
X906780Y778510D02*
X924560D01*
X925830Y779780D01*
Y834672D01*
Y715010D02*
Y768568D01*
Y715010D02*
X928370Y712470D01*
X925830Y768568D02*
Y779780D01*
Y768568D02*
X943828Y750570D01*
X981710Y712470D02*
X982980Y711200D01*
X928370Y712470D02*
X981710D01*
X943828Y750570D02*
X990600D01*
X925830Y834672D02*
X927318Y836160D01*
X946150D01*
X895313Y930737D02*
X900221Y925830D01*
X891713Y930737D02*
X895313D01*
X900221Y1005840D02*
X904031Y1009650D01*
X903910Y1079379D02*
X905398Y1077891D01*
X893501Y1087699D02*
X896950D01*
X898405Y1086244D01*
X902455Y1082795D02*
X903910Y1081340D01*
Y1079379D02*
Y1081340D01*
X898405Y1082795D02*
Y1086244D01*
Y1082795D02*
X902455D01*
X942210Y969620D02*
X968520D01*
X971550Y966590D01*
X897230Y969620D02*
X942210D01*
X904031Y1009650D02*
X906780D01*
X905398Y1077891D02*
X960639D01*
X974740Y969780D02*
X993140D01*
X971550Y966590D02*
X974740Y969780D01*
X959440Y923128D02*
X960928Y921640D01*
X956560Y928370D02*
X959440Y925490D01*
Y923128D02*
Y925490D01*
X1003160Y921640D02*
X1041400Y959880D01*
X993140Y969780D02*
X1031500D01*
X960928Y921640D02*
X1003160D01*
X1031500Y969780D02*
X1041400Y959880D01*
X902970Y688340D02*
Y716280D01*
X896370Y732790D02*
X905292D01*
X906780Y734278D01*
Y778510D01*
X895350Y723900D02*
X902970Y716280D01*
X895350Y723900D02*
Y732790D01*
X856841Y727710D02*
X860199D01*
X861695Y726214D01*
Y725388D02*
X863183Y723900D01*
X895350D01*
X861695Y725388D02*
Y726214D01*
X867410Y797778D02*
Y828040D01*
Y829310D01*
Y797778D02*
X871220Y793968D01*
Y782320D02*
Y793968D01*
X1018690Y1083460D02*
X1029970Y1094740D01*
X984070Y1083460D02*
X1018690D01*
X1139190Y1466850D02*
X1145540D01*
X1117600Y1488440D02*
X1139190Y1466850D01*
X1109980Y1488440D02*
X1117600D01*
X1097280Y1501140D02*
X1109980Y1488440D01*
X1078448Y1501140D02*
X1097280D01*
X1076960Y1502628D02*
X1078448Y1501140D01*
X1076960Y1502628D02*
Y1549801D01*
X1067201Y1559560D02*
X1076960Y1549801D01*
X1002030Y1530230D02*
X1031360Y1559560D01*
X1067201D01*
X1052156Y1528406D02*
X1061720Y1537970D01*
X1022910Y1528406D02*
X1052156D01*
X1151890Y1393190D02*
Y1399540D01*
X1117600Y1433830D02*
X1151890Y1399540D01*
X1117600Y1433830D02*
Y1437640D01*
X1045210Y1510030D02*
X1117600Y1437640D01*
X1075690Y1455420D02*
X1124580Y1406530D01*
X1074420Y1455420D02*
X1075690D01*
X1124580Y1336680D02*
Y1406530D01*
X1140460Y1320800D02*
X1146810D01*
X1124580Y1336680D02*
X1140460Y1320800D01*
X1081822Y1423670D02*
X1083310Y1422182D01*
Y1414780D02*
X1096010Y1402080D01*
X1083310Y1414780D02*
Y1422182D01*
X1062708Y1423670D02*
X1081822D01*
X1066800Y1315938D02*
Y1384082D01*
X1087741Y1385570D02*
X1089039Y1384272D01*
X1093498D01*
X1042670Y1443708D02*
Y1498600D01*
X1093498Y1384272D02*
X1096010Y1381760D01*
X1042670Y1443708D02*
X1062708Y1423670D01*
X1066800Y1384082D02*
X1068288Y1385570D01*
X1087741D01*
X1066800Y1315938D02*
X1068288Y1314450D01*
X1064296Y1242922D02*
X1084580Y1263206D01*
X1057910Y1288832D02*
X1062762Y1293684D01*
X1094740Y1252011D02*
X1100494Y1246257D01*
X1094740Y1252011D02*
Y1254760D01*
X1100494Y1245196D02*
Y1246257D01*
Y1245196D02*
X1136650Y1209040D01*
X1057910Y1244600D02*
X1059588Y1242922D01*
X1043574Y1244600D02*
X1057910D01*
X1059588Y1242922D02*
X1064296D01*
X1136650Y1209040D02*
X1143000D01*
X1056640Y1196340D02*
X1089660Y1163320D01*
X1146997D01*
X1017270Y1324610D02*
Y1361992D01*
Y1315929D02*
Y1324610D01*
X877587Y1277245D02*
Y1291573D01*
X689610Y1497570D02*
X690880Y1496300D01*
Y1457960D02*
Y1496300D01*
X694690Y1437640D02*
X707390Y1450340D01*
Y1476571D01*
X654748Y1437640D02*
X694690D01*
X670560Y1460500D02*
X687923Y1443137D01*
X690027D01*
X701258Y1454368D02*
Y1465362D01*
X690027Y1443137D02*
X701258Y1454368D01*
X649828Y1437228D02*
X654336D01*
X647700Y1435100D02*
X649828Y1437228D01*
X654336D02*
X654748Y1437640D01*
X659130Y1460500D02*
X670560D01*
X679450Y1430020D02*
X695960D01*
X712470Y1446530D01*
Y1482090D01*
X659130Y1409700D02*
X679450Y1430020D01*
X701258Y1465362D02*
X702242Y1466346D01*
Y1468450D01*
X616168Y1460500D02*
X647700D01*
X659130D01*
X697230Y1473462D02*
X702242Y1468450D01*
X702310Y1481651D02*
X707390Y1476571D01*
X1009650Y876300D02*
X1031240Y897890D01*
X1098550Y926039D02*
X1104086Y931575D01*
Y936446D02*
X1106170Y938530D01*
X1098550Y923290D02*
Y926039D01*
X1104086Y931575D02*
Y936446D01*
X721360Y1509800D02*
X721590Y1510030D01*
X712470Y1492250D02*
X718820Y1485900D01*
X721360Y1493015D02*
Y1509800D01*
X712470Y1492250D02*
Y1534160D01*
X713958Y1535648D01*
X733040Y1442720D02*
X762000D01*
X707390Y1487170D02*
Y1534160D01*
X701040Y1540510D02*
X707390Y1534160D01*
Y1487170D02*
X712470Y1482090D01*
X718820Y1455420D02*
Y1485900D01*
X713958Y1535648D02*
X716062D01*
X750975Y1500735D01*
X697230Y1530350D02*
X700822D01*
X702310Y1481651D02*
Y1528862D01*
X700822Y1530350D02*
X702310Y1528862D01*
X721360Y1493015D02*
X726440Y1487935D01*
Y1475740D02*
Y1487935D01*
Y1475740D02*
X737870Y1464310D01*
Y1448050D02*
Y1464310D01*
X718820Y1455420D02*
X723900Y1450340D01*
Y1438110D02*
X729360Y1432650D01*
X723900Y1438110D02*
Y1450340D01*
X729360Y1428070D02*
Y1432650D01*
Y1428070D02*
X729950Y1427480D01*
X930910Y1226820D02*
Y1244600D01*
X881965Y1275765D02*
X925957Y1231773D01*
Y1229840D02*
X928977Y1226820D01*
X877587Y1277245D02*
X879066Y1275765D01*
X876935Y1292225D02*
X877587Y1291573D01*
X879066Y1275765D02*
X881965D01*
X928977Y1226820D02*
X930910D01*
X925957Y1229840D02*
Y1231773D01*
X854710Y1277211D02*
Y1315624D01*
X859024Y1272183D02*
X863382D01*
X857401Y1273806D02*
Y1274520D01*
X854710Y1277211D02*
X857401Y1274520D01*
X863382Y1272183D02*
X864870Y1270695D01*
X857401Y1273806D02*
X859024Y1272183D01*
X864870Y1256030D02*
X868271D01*
X843230Y1249730D02*
Y1254810D01*
Y1249730D02*
X862068Y1230892D01*
X842010Y1256030D02*
X843230Y1254810D01*
X862068Y1230892D02*
X865878D01*
X868680Y1228090D01*
Y1213823D02*
Y1228090D01*
X864870Y1259431D02*
Y1270695D01*
X1037590Y1410970D02*
X1051560D01*
X1026160Y1399540D02*
X1037590Y1410970D01*
X993140Y937260D02*
X994410Y938530D01*
X973029Y937260D02*
X993140D01*
X969606Y940683D02*
X973029Y937260D01*
X1107440Y958850D02*
X1152699D01*
X1089660Y976630D02*
X1107440Y958850D01*
X1075690Y1037590D02*
X1091570Y1021710D01*
X1125860D01*
X1148080Y999490D01*
X1016000Y1363262D02*
X1017270Y1361992D01*
X1106170Y938530D02*
X1150620D01*
X631408Y1436370D02*
X647700D01*
X733410Y951970D02*
Y953270D01*
X647700Y1485900D02*
X659130D01*
X647700Y1409700D02*
X659130D01*
X947190Y879880D02*
X973627D01*
X938530Y871220D02*
X947190Y879880D01*
X973627D02*
X983967Y869540D01*
X958590Y1069110D02*
Y1069730D01*
X935122Y1045642D02*
X958590Y1069110D01*
X935122Y1043538D02*
X942340Y1036320D01*
X958590Y1069730D02*
X959320Y1070460D01*
X961570D01*
X935122Y1043538D02*
Y1045642D01*
X916542Y1049020D02*
X918210D01*
X910192Y1055370D02*
X916542Y1049020D01*
X861314Y1055370D02*
X910192D01*
X860044Y1043940D02*
X905112D01*
X909419Y1038087D02*
X915670Y1031836D01*
X905112Y1043940D02*
X909419Y1039633D01*
Y1038087D02*
Y1039633D01*
X915670Y1029970D02*
Y1031836D01*
X898088Y1031240D02*
X908478Y1020850D01*
X947983D02*
X958670Y1031537D01*
X908478Y1020850D02*
X947983D01*
X860044Y1056640D02*
X861314Y1055370D01*
X860044Y1031240D02*
X898088D01*
X680720Y1521460D02*
X689610Y1512570D01*
X680720Y1521460D02*
Y1569502D01*
X735330Y1570990D02*
X762000Y1544320D01*
X680720Y1569502D02*
X682208Y1570990D01*
X735330D01*
X688340Y1511300D02*
X689610Y1512570D01*
X738145Y1447775D02*
X745790Y1455420D01*
X736220Y1445850D02*
X738145Y1447775D01*
X679014Y981710D02*
X761746D01*
X670560Y938530D02*
Y973256D01*
X679014Y981710D01*
X761746D02*
X763016Y980440D01*
X670560Y938530D02*
X745490Y863600D01*
X767461Y1544320D02*
X774065Y1537716D01*
Y1469608D02*
Y1537716D01*
X772577Y1468120D02*
X774065Y1469608D01*
X762000Y1468120D02*
X772577D01*
X762000Y1455420D02*
Y1468120D01*
X745790Y1455420D02*
X762000D01*
X749300Y1322070D02*
Y1383030D01*
X750570Y1276350D02*
X753590Y1273330D01*
X750570Y1276350D02*
Y1320800D01*
X753590Y1260108D02*
Y1273330D01*
X749300Y1322070D02*
X750570Y1320800D01*
X768477Y993140D02*
X775081Y999744D01*
Y1062736D01*
Y980658D02*
Y999744D01*
X768477Y1069340D02*
X775081Y1062736D01*
Y969228D02*
Y980658D01*
X763234D02*
X775081D01*
X773593Y967740D02*
X775081Y969228D01*
X763016Y967740D02*
X773593D01*
X763016Y1069340D02*
Y1094032D01*
X754380Y1245100D02*
Y1259318D01*
X763016Y1069340D02*
X768477D01*
X753880Y1244600D02*
X754380Y1245100D01*
X753590Y1260108D02*
X754380Y1259318D01*
X763016Y993140D02*
X768477D01*
X763016Y980440D02*
X763234Y980658D01*
X746810Y993140D02*
X763016D01*
X733340Y1442970D02*
X736220Y1445850D01*
X734060Y1398270D02*
X749300Y1383030D01*
X705068Y1322070D02*
X749300D01*
X591820Y1507490D02*
X595630Y1511300D01*
X732790Y1442970D02*
X733040Y1442720D01*
X703580Y1320582D02*
X705068Y1322070D01*
X703580Y1149350D02*
Y1320582D01*
X595630Y1511300D02*
X647700D01*
X659130D02*
X688340D01*
X734060Y1005340D02*
X734610D01*
X746810Y993140D01*
X710718Y1146330D02*
X763016Y1094032D01*
X734180Y967740D02*
X763016D01*
X734060Y967620D02*
X734180Y967740D01*
X732910Y966470D02*
X734060Y967620D01*
X701040Y966470D02*
X732910D01*
X703580Y1149350D02*
X706600Y1146330D01*
X700560D02*
X703580Y1149350D01*
X706600Y1146330D02*
X710718D01*
X685858D02*
X700560D01*
X678718Y1139190D02*
X685858Y1146330D01*
X662940Y1139190D02*
X678718D01*
X815970Y711840D02*
X820420Y707390D01*
X815970Y711840D02*
Y740372D01*
X820420Y707390D02*
X838200D01*
X979170Y815340D02*
X988920Y825090D01*
Y850040D01*
X821690Y863600D02*
Y925830D01*
X818900Y807170D02*
Y807720D01*
Y818880D01*
X814070Y855980D02*
X821690Y863600D01*
X814070Y823710D02*
X818900Y818880D01*
X804128Y863600D02*
X821690D01*
X810260Y798530D02*
X818900Y807170D01*
X814070Y833120D02*
Y855980D01*
X802640Y862112D02*
X804128Y863600D01*
X814070Y823710D02*
Y833120D01*
X802640Y753702D02*
X815970Y740372D01*
X810260Y783590D02*
Y798530D01*
X802640Y753702D02*
Y862112D01*
X813040Y758190D02*
Y780810D01*
X810260Y783590D02*
X813040Y780810D01*
X750975Y1489579D02*
Y1500735D01*
Y1489579D02*
X755051Y1485502D01*
Y1482344D02*
Y1485502D01*
X709930Y914400D02*
Y928490D01*
X733410Y951970D01*
X693420Y1386840D02*
X715010Y1408430D01*
Y1412540D01*
X755051Y1482344D02*
X756575Y1480820D01*
X762000D01*
X729950Y1427480D02*
X732240Y1429770D01*
X715010Y1412540D02*
X729950Y1427480D01*
X732240Y1429770D02*
X732790D01*
X774700Y1277620D02*
Y1322070D01*
X762000Y1334770D02*
X774700Y1322070D01*
X773430Y1276350D02*
X774700Y1277620D01*
X770410Y1261378D02*
Y1273330D01*
X773430Y1276350D01*
X767080Y1258048D02*
X770410Y1261378D01*
X738336Y1431408D02*
X760612D01*
X736657Y1433087D02*
X738336Y1431408D01*
X760612D02*
X762000Y1430020D01*
Y1334770D02*
Y1430020D01*
X767080Y1244600D02*
Y1258048D01*
X757555Y1005840D02*
X763016D01*
Y871474D02*
X770890Y863600D01*
X736480Y955040D02*
X763016D01*
Y871474D02*
Y955040D01*
X734060Y1018540D02*
X744855D01*
X757555Y1005840D01*
X731180Y1015660D02*
X734060Y1018540D01*
Y952620D02*
X736480Y955040D01*
X701647Y1126490D02*
X703580D01*
X670800Y1497570D02*
X689610D01*
X659130Y1485900D02*
X670800Y1497570D01*
X701040Y953270D02*
X733410D01*
X700700Y1015660D02*
X731180D01*
X662940Y1113790D02*
X688947D01*
X701647Y1126490D01*
X646430Y961390D02*
X700700Y1015660D01*
X712906Y1548130D02*
X715119Y1545916D01*
X702528Y1548130D02*
X712906D01*
X701040Y1546642D02*
X702528Y1548130D01*
X701040Y1540510D02*
Y1546642D01*
X755015Y1507744D02*
X756539Y1506220D01*
X755015Y1507744D02*
Y1508125D01*
X715119Y1545916D02*
X717224D01*
X756539Y1506220D02*
X762000D01*
X717224Y1545916D02*
X755015Y1508125D01*
X694690Y1532890D02*
X697230Y1530350D01*
X694690Y1555750D02*
X721360D01*
X694690Y1532890D02*
Y1555750D01*
X688558Y1563370D02*
X730250D01*
X687070Y1561882D02*
X688558Y1563370D01*
X687070Y1526758D02*
Y1561882D01*
X697230Y1473462D02*
Y1523782D01*
X695742Y1525270D02*
X697230Y1523782D01*
X688558Y1525270D02*
X695742D01*
X687070Y1526758D02*
X688558Y1525270D01*
X721360Y1555750D02*
X755015Y1522095D01*
X730250Y1563370D02*
X750975Y1542645D01*
X892810Y1530350D02*
Y1565910D01*
X859028Y1531620D02*
X864489D01*
X890072Y1576070D02*
X1009650D01*
X877523Y1544654D02*
Y1563520D01*
X864489Y1531620D02*
X877523Y1544654D01*
Y1563520D02*
X890072Y1576070D01*
X892810Y1530350D02*
X900930Y1522230D01*
X996180Y1494492D02*
X1011718Y1510030D01*
X1045210D01*
X1009734Y1515230D02*
X1022910Y1528406D01*
X984070Y1070460D02*
X984220Y1070610D01*
X1015782D01*
X1017270Y1069122D01*
Y1042888D02*
Y1069122D01*
X1015782Y1041400D02*
X1017270Y1042888D01*
X1009650Y1041400D02*
X1015782D01*
X999787Y1031537D02*
X1009650Y1041400D01*
X958670Y1031537D02*
X999787D01*
X960755Y1017905D02*
X993775D01*
X960120Y1018540D02*
X960755Y1017905D01*
X942210Y1000630D02*
X960120Y1018540D01*
X993775Y1017905D02*
X994410Y1017270D01*
X938312Y991652D02*
X938618Y991958D01*
X882650Y991652D02*
X938312D01*
X938618Y991958D02*
X942210Y988366D01*
Y1000630D01*
X984070Y1076960D02*
X1022350D01*
Y1037590D02*
Y1076960D01*
X920968Y1570990D02*
X979170D01*
X919480Y1569502D02*
X920968Y1570990D01*
X979170D02*
X1002030Y1548130D01*
X919480Y1536700D02*
Y1569502D01*
X1009650Y1576070D02*
X1017270Y1568450D01*
X952680Y1527960D02*
Y1552821D01*
X948690Y1556811D02*
X952680Y1552821D01*
X948690Y1556811D02*
Y1559560D01*
X983240Y1524382D02*
Y1550410D01*
X975360Y1558290D02*
X983240Y1550410D01*
X933450Y1279928D02*
X951448Y1261930D01*
X923290Y1280160D02*
X923522Y1279928D01*
X933450D01*
X951448Y1261930D02*
X971550D01*
X906106Y1314828D02*
Y1318856D01*
X905510Y1314232D02*
X906106Y1314828D01*
X905510Y1270000D02*
Y1314232D01*
Y1270000D02*
X930910Y1244600D01*
X906106Y1318856D02*
X908050Y1320800D01*
X930910Y1203960D02*
X933930Y1206980D01*
X924762Y1208175D02*
X928977Y1203960D01*
X924048Y1208175D02*
X924762D01*
X928977Y1203960D02*
X930910D01*
X937490Y1206980D02*
X966220Y1235710D01*
X933930Y1206980D02*
X937490D01*
X868271Y1256030D02*
X878840D01*
X922425Y1209798D02*
Y1212445D01*
X878840Y1256030D02*
X922425Y1212445D01*
Y1209798D02*
X924048Y1208175D01*
X842850Y1260270D02*
X843506Y1259614D01*
X1017270Y1315929D02*
X1023829Y1309370D01*
X1003320Y1301294D02*
X1017270Y1315244D01*
X1011082Y1370182D02*
X1012570Y1371670D01*
Y1373582D01*
X1008530Y1368559D02*
X1010153Y1370182D01*
X1012570Y1373582D02*
X1015450Y1376462D01*
X1016000D01*
X1010153Y1370182D02*
X1011082D01*
X1008530Y1356956D02*
Y1368559D01*
X997774Y1346200D02*
X1008530Y1356956D01*
X1016000Y1376462D02*
X1017488Y1377950D01*
X1047750D02*
X1059180Y1366520D01*
X1026160Y1399540D02*
X1047750Y1377950D01*
X1017488D02*
X1047750D01*
X1023829Y1309370D02*
X1038651D01*
X1043731Y1314450D01*
X1046480D01*
X1042086Y1246088D02*
X1043574Y1244600D01*
X1042086Y1246088D02*
Y1266538D01*
X1034418Y1274930D02*
X1047269Y1287780D01*
X1057075D01*
X1040598Y1268026D02*
X1042086Y1266538D01*
X1015954Y1268026D02*
X1040598D01*
X1046480Y1314450D02*
Y1338820D01*
X1059180Y1351520D01*
X1001910Y1397000D02*
X1023620D01*
X1026160Y1399540D01*
X974090Y1346200D02*
X997774D01*
X1003320Y1299190D02*
Y1301294D01*
Y1299190D02*
X1015550Y1286960D01*
X1031208Y1472160D02*
X1036550Y1466818D01*
X970280Y1444600D02*
X997840Y1472160D01*
X1031208D01*
X969606Y940683D02*
Y944196D01*
X1079500Y796290D02*
Y811530D01*
X1062990Y779780D02*
X1079500Y796290D01*
X990898Y808018D02*
X995978D01*
X1010920Y822960D01*
X977900Y795020D02*
X990898Y808018D01*
X998220Y763270D02*
Y781332D01*
Y763270D02*
X1004594Y756896D01*
X1000732Y783844D02*
X1001014D01*
X998220Y781332D02*
X1000732Y783844D01*
X1001014D02*
X1021080Y803910D01*
X1010920Y750570D02*
Y750852D01*
X1005336Y756896D02*
X1006959Y755273D01*
Y754813D02*
X1010920Y750852D01*
X1006959Y754813D02*
Y755273D01*
X1004594Y756896D02*
X1005336D01*
X1021080Y803910D02*
Y843153D01*
X977900Y781050D02*
Y795020D01*
X983967Y869540D02*
X988920D01*
Y863040D02*
Y869540D01*
X811530Y1226820D02*
X814070D01*
X829984Y1242734D01*
Y1247405D01*
X842010Y1261110D02*
X842850Y1260270D01*
X829984Y1247405D02*
X842010Y1259431D01*
X941744Y1489114D02*
Y1504024D01*
X939800Y1487170D02*
X941744Y1489114D01*
Y1504024D02*
X949700Y1511980D01*
X1009650Y1210310D02*
Y1235992D01*
X999490Y1200150D02*
X1009650Y1210310D01*
X1008380Y1162050D02*
Y1186462D01*
X1029970Y1208052D01*
X999490Y1437520D02*
X1006990D01*
X985480D02*
X999490D01*
X908050Y1407160D02*
X925590D01*
X908050D02*
X918210Y1397000D01*
X925590Y1407160D02*
X944030Y1425600D01*
X918210Y1397000D02*
X957700D01*
X896620Y1466850D02*
Y1489710D01*
X887730Y1480820D02*
X896620Y1489710D01*
X1006990Y1437520D02*
X1025486Y1456016D01*
X755015Y1520444D02*
X756539Y1518920D01*
X755015Y1520444D02*
Y1522095D01*
X756539Y1518920D02*
X762000D01*
X752598Y1538756D02*
X754864D01*
X750975Y1540379D02*
X752598Y1538756D01*
X750975Y1540379D02*
Y1542645D01*
X754864Y1538756D02*
X762000Y1531620D01*
X1015550Y1281430D02*
Y1286960D01*
X876300Y1322070D02*
X876935Y1321435D01*
Y1292225D02*
Y1321435D01*
X949700Y1514230D02*
X950430Y1514960D01*
X952680D01*
X949700Y1511980D02*
Y1514230D01*
X1015550Y1268430D02*
X1015954Y1268026D01*
X1026160Y1421130D02*
X1036550Y1431520D01*
Y1466818D01*
X846147Y1442720D02*
X859028D01*
X843389Y1445478D02*
X846147Y1442720D01*
X843389Y1445478D02*
Y1469499D01*
X859028Y1442720D02*
X887490D01*
X1000880Y1421130D02*
X1026160D01*
X999490Y1422520D02*
X1000880Y1421130D01*
X990302Y1494492D02*
X996180D01*
X971550Y1475740D02*
X990302Y1494492D01*
X971550Y1475740D02*
X972820Y1474470D01*
X982980D01*
X984468Y1472982D01*
Y1466875D02*
Y1472982D01*
X970280Y1452687D02*
X984468Y1466875D01*
X970280Y1444600D02*
Y1452687D01*
X972530Y1425600D02*
X975610Y1422520D01*
X999490D01*
X970280Y1425600D02*
X972530D01*
X853567Y1544320D02*
X859028D01*
X887730Y1442960D02*
X910060D01*
X910590Y1443490D01*
X844768Y1468120D02*
X859028D01*
X842010Y1470878D02*
Y1532763D01*
Y1470878D02*
X843389Y1469499D01*
X842010Y1532763D02*
X853567Y1544320D01*
X843389Y1469499D02*
X844768Y1468120D01*
X887730Y1399540D02*
X895350Y1391920D01*
X887490Y1442720D02*
X887730Y1442960D01*
Y1399540D02*
Y1442960D01*
X945000Y1348620D02*
X947420Y1346200D01*
X1002030Y1530230D02*
Y1548130D01*
X950430Y1527960D02*
X952680D01*
X945000Y1384300D02*
X957700Y1397000D01*
X944030Y1425600D02*
X946280D01*
X945000Y1348620D02*
Y1384300D01*
X942960Y1535430D02*
X950430Y1527960D01*
X920750Y1535430D02*
X942960D01*
X919480Y1536700D02*
X920750Y1535430D01*
X1027967Y850040D02*
X1032920D01*
X1021080Y843153D02*
X1027967Y850040D01*
X1029970Y1208052D02*
Y1235710D01*
Y1245483D01*
X1021519Y1253934D02*
X1029970Y1245483D01*
X1021519Y1253934D02*
Y1260914D01*
X1020503Y1261930D02*
X1021519Y1260914D01*
X1015550Y1261930D02*
X1020503D01*
X862330Y1398270D02*
Y1428496D01*
X860806Y1430020D02*
X862330Y1428496D01*
X859028Y1430020D02*
X860806D01*
X1025486Y1461096D02*
X1027430Y1463040D01*
X1002030Y1515230D02*
X1009734D01*
X1025486Y1456016D02*
Y1461096D01*
X964148Y1452606D02*
Y1455202D01*
X962660Y1456690D02*
X964148Y1455202D01*
X960970Y1449428D02*
X964148Y1452606D01*
X960970Y1439772D02*
Y1449428D01*
X983060Y1435100D02*
X985480Y1437520D01*
X970280Y1435100D02*
X983060D01*
X963662Y1437080D02*
X968300D01*
X960970Y1439772D02*
X963662Y1437080D01*
X968300Y1433120D02*
X970280Y1435100D01*
X968300Y1437080D02*
X970280Y1435100D01*
X972856Y1408886D02*
X990024D01*
X1001910Y1397000D01*
X972700D02*
X1001910D01*
X963662Y1433120D02*
X968300D01*
X960970Y1430428D02*
X963662Y1433120D01*
X960970Y1420772D02*
Y1430428D01*
Y1420772D02*
X972856Y1408886D01*
X988060Y1162050D02*
Y1201147D01*
X969100Y1220107D02*
X988060Y1201147D01*
X966220Y1235710D02*
X969100Y1232830D01*
Y1220107D02*
Y1232830D01*
X936900Y1522230D02*
X937670Y1521460D01*
X920750Y1522230D02*
X936900D01*
X937670Y1521460D02*
X952680D01*
X900930Y1522230D02*
X920750D01*
X909320Y1457960D02*
X910590Y1456690D01*
X962660D01*
X887730Y1457960D02*
X909320D01*
X887730D02*
X896620Y1466850D01*
X885190Y1455420D02*
X887730Y1457960D01*
X859028Y1480820D02*
X887730D01*
X864489Y1455420D02*
X885190D01*
X888520Y1231110D02*
X891540Y1228090D01*
X888520Y1231110D02*
Y1235781D01*
X868271Y1256030D02*
X888520Y1235781D01*
Y1225070D02*
X891540Y1228090D01*
X888520Y1213503D02*
Y1225070D01*
X887490Y1172210D02*
Y1198350D01*
X886960Y1198880D02*
X887490Y1198350D01*
X886960Y1211944D02*
X888520Y1213503D01*
X886960Y1198880D02*
Y1211944D01*
X850900Y1319434D02*
Y1322070D01*
Y1319434D02*
X854710Y1315624D01*
X960501Y1293672D02*
X974090Y1307261D01*
X947420Y1325880D02*
X974090D01*
Y1307261D02*
Y1325880D01*
X971954Y1268026D02*
X980367D01*
X971146Y1268834D02*
X971550Y1268430D01*
X971954Y1268026D01*
X982599Y1254057D02*
Y1265794D01*
X979420Y1250878D02*
X982599Y1254057D01*
X980367Y1268026D02*
X982599Y1265794D01*
X979420Y1235710D02*
Y1250878D01*
X962733Y1268834D02*
X971146D01*
X960501Y1271066D02*
Y1293672D01*
Y1271066D02*
X962733Y1268834D01*
X1076988Y814042D02*
X1079500Y811530D01*
X953682Y960120D02*
X969606Y944196D01*
X1013460Y1028700D02*
X1022350Y1037590D01*
X942210Y960120D02*
X953682D01*
X942210Y979120D02*
Y988366D01*
X991750Y981590D02*
X993140Y982980D01*
X971550Y981590D02*
X991750D01*
X969080Y979120D02*
X971550Y981590D01*
X942210Y979120D02*
X969080D01*
X843498Y1069340D02*
X860044D01*
X842010Y1067852D02*
X843498Y1069340D01*
X842010Y1005713D02*
Y1067852D01*
Y1005713D02*
X854583Y993140D01*
X860044D01*
X881162D01*
X882650Y991652D01*
Y970040D02*
Y991652D01*
X880350Y967740D02*
X882650Y970040D01*
X860044Y967740D02*
X880350D01*
X1074775Y814042D02*
X1076988D01*
X1058052Y830765D02*
X1074775Y814042D01*
X1058052Y830765D02*
Y839822D01*
X1041737Y856136D02*
X1058052Y839822D01*
X1033324Y856136D02*
X1041737D01*
X1032920Y856540D02*
X1033324Y856136D01*
X988516D02*
X988920Y856540D01*
X980103Y856136D02*
X988516D01*
X967381Y843415D02*
X980103Y856136D01*
X967381Y835681D02*
Y843415D01*
X954660Y822960D02*
X967381Y835681D01*
X946150Y822960D02*
X954660D01*
X946150Y779780D02*
Y822960D01*
X988920Y856540D02*
X989324Y856944D01*
X997737D01*
X1009650Y868857D01*
Y876300D01*
X939383Y1472347D02*
X941487D01*
X967120Y1497980D01*
Y1525038D01*
X975180Y1498856D02*
Y1514960D01*
X967120Y1525038D02*
X969352Y1527270D01*
X900430Y1511300D02*
X939383Y1472347D01*
X933431Y1467267D02*
X943591D01*
X894478Y1506220D02*
X933431Y1467267D01*
X943591D02*
X975180Y1498856D01*
X872109Y1511300D02*
X900430D01*
X859028Y1506220D02*
X894478D01*
X1015550Y1274930D02*
X1034418D01*
X971550D02*
Y1281430D01*
X975180Y1521460D02*
X975870Y1522150D01*
X981008D01*
X983240Y1524382D01*
X974490Y1527270D02*
X975180Y1527960D01*
X969352Y1527270D02*
X974490D01*
X864489Y1518920D02*
X872109Y1511300D01*
X859028Y1518920D02*
X864489D01*
X842010Y1259431D02*
Y1261110D01*
X971550Y1281430D02*
X976503D01*
X992328Y1265604D01*
Y1253314D02*
Y1265604D01*
Y1253314D02*
X1009650Y1235992D01*
X927430Y1163650D02*
X939800Y1176020D01*
X881050Y1163650D02*
X927430D01*
X872490Y1172210D02*
X881050Y1163650D01*
X825500Y1279299D02*
Y1322070D01*
Y1279299D02*
X842010Y1262789D01*
Y1261110D02*
Y1262789D01*
X843506Y1255197D02*
Y1259614D01*
X868680Y1213823D02*
X870880Y1211624D01*
Y1201760D02*
Y1211624D01*
Y1201760D02*
X873760Y1198880D01*
X872490Y1197610D02*
X873760Y1198880D01*
X872490Y1172210D02*
Y1197610D01*
X662653Y1088677D02*
X662940Y1088390D01*
X662653Y1088677D02*
Y1099030D01*
X652300Y1109383D02*
X662653Y1099030D01*
X652300Y1109383D02*
Y1212932D01*
X659130Y1219762D01*
Y1220470D01*
X614680Y1184910D02*
Y1459012D01*
X616168Y1460500D01*
X629920Y1434882D02*
X631408Y1436370D01*
X629920Y1064478D02*
Y1434882D01*
Y1064478D02*
X631408Y1062990D01*
X662940D01*
X757555Y1056640D02*
X763016D01*
X725805Y1088390D02*
X757555Y1056640D01*
X662940Y1088390D02*
X725805D01*
X662940Y1062990D02*
X738505D01*
X757555Y1043940D01*
X763016D01*
X751205Y1037590D02*
X757555Y1031240D01*
X662940Y1037590D02*
X751205D01*
X757555Y1031240D02*
X763016D01*
D18*
X1079500Y831850D02*
D03*
X1031240Y918210D02*
D03*
X1096010Y1381760D02*
D03*
Y1402080D02*
D03*
X1057910Y1244600D02*
D03*
Y1264920D02*
D03*
X947420Y1346200D02*
D03*
X974090D02*
D03*
X947420Y1325880D02*
D03*
X974090D02*
D03*
X1031240Y897890D02*
D03*
X1150620Y938530D02*
D03*
Y958850D02*
D03*
X1079500Y811530D02*
D03*
D19*
X858520Y750570D02*
D03*
Y727710D02*
D03*
D21*
X890270Y828040D02*
D03*
X833120Y783590D02*
D03*
X867410Y828040D02*
D03*
X750570Y1276350D02*
D03*
X810260Y783590D02*
D03*
X773430Y1276350D02*
D03*
X891540Y1228090D02*
D03*
X868680D02*
D03*
D27*
X836930Y826770D02*
D03*
X814070D02*
D03*
X877570Y1278890D02*
D03*
X854710D02*
D03*
X864870Y1256030D02*
D03*
X842010D02*
D03*
D28*
X860044Y955040D02*
D03*
Y1005840D02*
D03*
Y980440D02*
D03*
X762000Y1544320D02*
D03*
Y1468120D02*
D03*
Y1455420D02*
D03*
Y1442720D02*
D03*
X763016Y1069340D02*
D03*
Y993140D02*
D03*
Y980440D02*
D03*
Y967740D02*
D03*
X762000Y1430020D02*
D03*
Y1480820D02*
D03*
X763016Y1005840D02*
D03*
Y955040D02*
D03*
X859028Y1544320D02*
D03*
Y1468120D02*
D03*
Y1442720D02*
D03*
Y1480820D02*
D03*
Y1455420D02*
D03*
Y1430020D02*
D03*
X762000Y1531620D02*
D03*
Y1518920D02*
D03*
Y1506220D02*
D03*
Y1493520D02*
D03*
X859028D02*
D03*
Y1506220D02*
D03*
Y1518920D02*
D03*
Y1531620D02*
D03*
X763016Y1056640D02*
D03*
Y1043940D02*
D03*
Y1031240D02*
D03*
Y1018540D02*
D03*
X860044Y967740D02*
D03*
Y993140D02*
D03*
Y1018540D02*
D03*
Y1031240D02*
D03*
Y1043940D02*
D03*
Y1056640D02*
D03*
Y1069340D02*
D03*
D29*
X990600Y750570D02*
D03*
X925830Y779780D02*
D03*
X998220Y781050D02*
D03*
X977900D02*
D03*
X1010920Y750570D02*
D03*
X988060Y1162050D02*
D03*
X1008380D02*
D03*
X1029970Y1235710D02*
D03*
X946150Y779780D02*
D03*
X1009650Y1235710D02*
D03*
D30*
X703580Y1149350D02*
D03*
Y1126490D02*
D03*
X930910Y1226820D02*
D03*
Y1203960D02*
D03*
D32*
X1141730Y1550670D02*
D03*
X1192530D02*
D03*
X1243330D02*
D03*
X1235710Y734060D02*
D03*
X1184910D02*
D03*
X1134110D02*
D03*
D38*
X1151890Y844550D02*
D03*
X1211580Y878840D02*
D03*
X1224280Y932180D02*
D03*
X1109980Y1089660D02*
D03*
X982980Y711200D02*
D03*
X594360Y1507490D02*
D03*
X826770Y695960D02*
D03*
X1075690Y1037590D02*
D03*
X937260Y1165860D02*
D03*
X1144270Y1163320D02*
D03*
X1170940Y1258570D02*
D03*
X1145540Y1466850D02*
D03*
X1146810Y1320800D02*
D03*
X1143000Y1209040D02*
D03*
D39*
X1032920Y863040D02*
D03*
Y869540D02*
D03*
X988920Y850040D02*
D03*
Y869540D02*
D03*
Y863040D02*
D03*
X1015550Y1281430D02*
D03*
Y1268430D02*
D03*
X1032920Y850040D02*
D03*
X1015550Y1261930D02*
D03*
X971550Y1268430D02*
D03*
X1015550Y1274930D02*
D03*
X971550Y1261930D02*
D03*
Y1274930D02*
D03*
Y1281430D02*
D03*
X1032920Y856540D02*
D03*
X988920D02*
D03*
D40*
X895350Y745990D02*
D03*
Y732790D02*
D03*
X946150Y836160D02*
D03*
X993140Y969780D02*
D03*
X732790Y1442970D02*
D03*
X734060Y1005340D02*
D03*
X701040Y966470D02*
D03*
X732790Y1429770D02*
D03*
X734060Y1018540D02*
D03*
X701040Y953270D02*
D03*
X1016000Y1363262D02*
D03*
X910590Y1443490D02*
D03*
X920750Y1535430D02*
D03*
X1016000Y1376462D02*
D03*
X920750Y1522230D02*
D03*
X910590Y1456690D02*
D03*
X993140Y982980D02*
D03*
X946150Y822960D02*
D03*
D41*
X906780Y793510D02*
D03*
X900430Y1099820D02*
D03*
X1041400Y944880D02*
D03*
X882650Y955040D02*
D03*
X906780Y778510D02*
D03*
X900430Y1084820D02*
D03*
X971550Y966590D02*
D03*
X1041400Y959880D02*
D03*
X689610Y1512570D02*
D03*
X734060Y967620D02*
D03*
Y952620D02*
D03*
X689610Y1497570D02*
D03*
X1059180Y1351520D02*
D03*
X999490Y1422520D02*
D03*
X887730Y1442960D02*
D03*
X1002030Y1530230D02*
D03*
Y1515230D02*
D03*
X999490Y1437520D02*
D03*
X1059180Y1366520D02*
D03*
X887730Y1457960D02*
D03*
X882650Y970040D02*
D03*
X971550Y981590D02*
D03*
D42*
X943360Y928370D02*
D03*
X832100Y807720D02*
D03*
X956560Y928370D02*
D03*
X753880Y1244600D02*
D03*
X818900Y807720D02*
D03*
X767080Y1244600D02*
D03*
X966220Y1235710D02*
D03*
X886960Y1198880D02*
D03*
X979420Y1235710D02*
D03*
X873760Y1198880D02*
D03*
D43*
X918210Y960120D02*
D03*
X942210Y969620D02*
D03*
X970280Y1444600D02*
D03*
Y1425600D02*
D03*
X946280D02*
D03*
X970280Y1435100D02*
D03*
X918210Y979120D02*
D03*
X942210D02*
D03*
Y960120D02*
D03*
X946280Y1444600D02*
D03*
D44*
X961570Y1083460D02*
D03*
Y1076960D02*
D03*
X952680Y1514960D02*
D03*
Y1527960D02*
D03*
Y1521460D02*
D03*
X975180Y1527960D02*
D03*
Y1521460D02*
D03*
Y1514960D02*
D03*
X961570Y1070460D02*
D03*
X984070Y1083460D02*
D03*
Y1076960D02*
D03*
Y1070460D02*
D03*
D45*
X828040Y758190D02*
D03*
X813040D02*
D03*
X957700Y1397000D02*
D03*
X972700D02*
D03*
X887490Y1172210D02*
D03*
X872490D02*
D03*
D46*
X1151890Y1393190D02*
D03*
D47*
X872490Y863600D02*
D03*
X847090D02*
D03*
X774700Y1322070D02*
D03*
X825500D02*
D03*
X850900D02*
D03*
X876300D02*
D03*
X770890Y863600D02*
D03*
X821690D02*
D03*
D48*
X749300Y1322070D02*
D03*
X745490Y863600D02*
D03*
D49*
X647700Y1511300D02*
D03*
X662940Y1139190D02*
D03*
X647700Y1485900D02*
D03*
X662940Y1113790D02*
D03*
Y1088390D02*
D03*
Y1062990D02*
D03*
Y1037590D02*
D03*
Y1012190D02*
D03*
X647700Y1460500D02*
D03*
Y1435100D02*
D03*
Y1409700D02*
D03*
Y1384300D02*
D03*
D50*
X662940Y1164590D02*
D03*
X647700Y1536700D02*
D03*
D51*
X1088390Y1316990D02*
D03*
X1074420Y1300480D02*
D03*
X1075690Y908050D02*
D03*
X986790Y906780D02*
D03*
X844550Y1099820D02*
D03*
X902970Y925830D02*
D03*
X906780Y1009650D02*
D03*
X902970Y688340D02*
D03*
X871220Y782320D02*
D03*
X1029970Y1094740D02*
D03*
X1061720Y1537970D02*
D03*
X1074420Y1455420D02*
D03*
X1094740Y1254760D02*
D03*
X1056640Y1196340D02*
D03*
X690880Y1457960D02*
D03*
X1098550Y923290D02*
D03*
X721590Y1510030D02*
D03*
X1042670Y1498600D02*
D03*
X1051560Y1410970D02*
D03*
X994410Y938530D02*
D03*
X1089660Y976630D02*
D03*
X1148080Y999490D02*
D03*
X1017270Y1324610D02*
D03*
X938530Y871220D02*
D03*
X918210Y1049020D02*
D03*
X915670Y1029970D02*
D03*
X942340Y1036320D02*
D03*
X734060Y1398270D02*
D03*
X979170Y815340D02*
D03*
X821690Y925830D02*
D03*
X709930Y914400D02*
D03*
X693420Y1386840D02*
D03*
X646430Y961390D02*
D03*
X892810Y1565910D02*
D03*
X960120Y1018540D02*
D03*
X948690Y1559560D02*
D03*
X975360Y1558290D02*
D03*
X923290Y1280160D02*
D03*
X1046480Y1314450D02*
D03*
X994410Y1017270D02*
D03*
X1062990Y779780D02*
D03*
X1041400Y798830D02*
D03*
X1010920Y822960D02*
D03*
X811530Y1226820D02*
D03*
X939800Y1487170D02*
D03*
X999490Y1200150D02*
D03*
X908050Y1320800D02*
D03*
Y1407160D02*
D03*
X896620Y1489710D02*
D03*
X971550Y1475740D02*
D03*
X895350Y1391920D02*
D03*
X862330Y1398270D02*
D03*
X1027430Y1463040D02*
D03*
X1013460Y1028700D02*
D03*
X1017270Y1568450D02*
D03*
X659130Y1220470D02*
D03*
X614680Y1184910D02*
D03*
M02*
