G04*
G04 #@! TF.GenerationSoftware,Altium Limited,Altium Designer,25.8.1 (18)*
G04*
G04 Layer_Physical_Order=1*
G04 Layer_Color=255*
%FSLAX44Y44*%
%MOMM*%
G71*
G04*
G04 #@! TF.SameCoordinates,A3DECC46-E399-446C-B8BE-E2314782DB49*
G04*
G04*
G04 #@! TF.FilePolarity,Positive*
G04*
G01*
G75*
%ADD14C,0.2540*%
%ADD16R,0.9400X0.8300*%
%ADD17R,0.4000X0.8500*%
%ADD18R,1.6510X0.5588*%
%ADD19R,0.8580X1.2446*%
%ADD20R,1.2446X0.8580*%
%ADD21R,0.8300X0.9400*%
%ADD22R,0.9500X0.9500*%
%ADD23R,0.9500X0.9500*%
%ADD24R,1.4478X0.4572*%
%ADD25R,0.7620X0.8128*%
%ADD26R,4.7000X3.4300*%
%ADD28R,0.8890X0.5532*%
%ADD29R,0.8128X0.7620*%
%ADD33C,1.2280*%
%ADD34C,1.3660*%
%ADD35R,1.2280X1.2280*%
%ADD36R,1.3660X1.3660*%
%ADD37C,1.2700*%
%ADD38R,0.6500X1.1000*%
D14*
X691328Y862330D02*
X763052D01*
X764540Y860842D01*
Y849432D02*
Y860842D01*
X689840Y863818D02*
X691328Y862330D01*
X756450Y841343D02*
X764540Y849432D01*
X689840Y863818D02*
Y896588D01*
X717810Y920490D02*
X789940Y848360D01*
Y811530D02*
Y848360D01*
X657470Y920490D02*
X717810D01*
X737223Y850463D02*
X752673D01*
X630837Y652883D02*
Y742978D01*
X998220Y864306D02*
X1057204D01*
X867410Y794103D02*
X888323D01*
X842701Y794639D02*
X867410D01*
X648912Y482144D02*
X681580D01*
X695288Y791808D02*
X702764D01*
X703702D01*
X715858D01*
X683260Y779780D02*
X695288Y791808D01*
X714756Y777240D02*
X717550Y774446D01*
X867410Y775617D02*
X884837D01*
X865195Y775081D02*
X867410D01*
X864235Y772558D02*
Y774121D01*
Y768068D02*
Y772558D01*
X819785Y721939D02*
Y723618D01*
X818289Y720443D02*
X819785Y721939D01*
X816610Y720443D02*
X818289D01*
X671830Y753491D02*
X718439D01*
X659003Y524510D02*
Y524764D01*
X643890Y539877D02*
X659003Y524764D01*
X629330Y651376D02*
X630837Y652883D01*
X698250Y809240D02*
X720090D01*
X698250D02*
X699540Y807950D01*
X649351Y750570D02*
X655955Y757174D01*
Y769366D01*
X715858Y791808D02*
X720090Y796040D01*
X751018Y841343D02*
X756450D01*
X749530Y839855D02*
X751018Y841343D01*
X749530Y833152D02*
Y839855D01*
X712642Y825881D02*
X737223Y850463D01*
X744188Y827810D02*
X749530Y833152D01*
X731688Y827810D02*
X744188D01*
X723028Y819150D02*
X731688Y827810D01*
X700514Y819150D02*
X723028D01*
X703702Y787278D02*
X713740Y777240D01*
X702764Y791808D02*
X703702Y790870D01*
X717550Y773430D02*
Y774446D01*
X713740Y777240D02*
X714756D01*
X703702Y787278D02*
Y790870D01*
X718820Y737100D02*
Y753110D01*
X718439Y753491D02*
X718820Y753110D01*
X669798Y825881D02*
X712642D01*
X559153Y659130D02*
Y692150D01*
Y720221D02*
Y794540D01*
Y692150D02*
Y720221D01*
X536067Y1097991D02*
X553720Y1115644D01*
X547830Y1148080D02*
X553720Y1142190D01*
Y1115644D02*
Y1142190D01*
X434266Y1080290D02*
X502056Y1148080D01*
X547830D01*
X486428Y1040130D02*
X508250Y1061952D01*
X452600Y1040567D02*
X455584D01*
X449580Y1043587D02*
X452600Y1040567D01*
X455584D02*
X456021Y1040130D01*
X486428D01*
X536067Y1097991D02*
Y1116767D01*
X510013Y1071937D02*
X536067Y1097991D01*
X546862Y801370D02*
X552323D01*
X559153Y794540D01*
X546862Y750570D02*
X552323D01*
X536067Y1016345D02*
Y1097991D01*
X528102Y1008380D02*
X536067Y1016345D01*
X515870Y962660D02*
X517140Y961390D01*
X559153Y564797D02*
Y659130D01*
Y564797D02*
X567690Y556260D01*
X552323Y750570D02*
X553847Y749046D01*
Y724405D02*
X558030Y720221D01*
X553847Y724405D02*
Y749046D01*
X508250Y1070174D02*
X510013Y1071937D01*
X508250Y1061952D02*
Y1070174D01*
X385793Y1080290D02*
X434266D01*
X375440Y1061123D02*
Y1069937D01*
X385793Y1080290D01*
X375440Y1061123D02*
X385793Y1050770D01*
X515870Y962660D02*
Y1008380D01*
X528102D01*
X385793Y1040417D02*
Y1050770D01*
Y1040417D02*
X386080Y1040130D01*
X647388Y494740D02*
X681580D01*
X644288Y497840D02*
X647388Y494740D01*
X681580D02*
Y501240D01*
X640080Y425450D02*
Y446642D01*
X632772Y494740D02*
X635872Y497840D01*
X644288D01*
X608330Y486808D02*
X616262Y494740D01*
X632772D01*
X640080Y425450D02*
X723646D01*
X608330Y478392D02*
Y486808D01*
Y478392D02*
X640080Y446642D01*
X383952Y936402D02*
X386080Y938530D01*
X383952Y931894D02*
Y936402D01*
X383540Y880110D02*
Y931482D01*
X383952Y931894D01*
X386080Y1090930D02*
Y1156540D01*
X544830Y677989D02*
Y692150D01*
X541655Y674814D02*
X544830Y677989D01*
X541655Y660118D02*
Y674814D01*
X540667Y659130D02*
X541655Y660118D01*
Y556895D02*
X542290Y556260D01*
X540667Y659130D02*
X541655Y658142D01*
Y556895D02*
Y658142D01*
X350520Y1089442D02*
X352008Y1090930D01*
X386080D01*
X352008Y692150D02*
X544830D01*
X350520Y693638D02*
Y1089442D01*
Y693638D02*
X352008Y692150D01*
X758190Y925830D02*
X774370Y909650D01*
X800550D01*
X822960Y758190D02*
X844787D01*
X859155Y772558D01*
X662213Y907830D02*
X678597D01*
X650240Y923470D02*
X650970Y922740D01*
X678597Y907830D02*
X689840Y896588D01*
X650970Y919073D02*
Y922740D01*
Y919073D02*
X662213Y907830D01*
X670592Y807950D02*
X699540D01*
X649351Y801370D02*
X664012D01*
X670592Y807950D01*
X654875Y794122D02*
X655955Y793042D01*
X652327Y782066D02*
X653723D01*
X650295Y780034D02*
X652327Y782066D01*
X648771Y775970D02*
X650295Y777494D01*
X653723Y782066D02*
X655955Y784298D01*
X650295Y777494D02*
Y780034D01*
X655955Y784298D02*
Y793042D01*
X864235Y772558D02*
X866538D01*
X859155D02*
X864235D01*
X728412Y1140210D02*
X751840D01*
X728242Y1140040D02*
X728412Y1140210D01*
X716782Y1140040D02*
X728242D01*
X706210Y1010950D02*
X804030Y913130D01*
X713790Y1137048D02*
X716782Y1140040D01*
X976387Y849630D02*
X979210Y846808D01*
X997232D01*
X958850Y849630D02*
X976387D01*
X997232Y846808D02*
X998220Y845820D01*
X800550Y909650D02*
X804030Y913130D01*
X713790Y1132410D02*
Y1137048D01*
X709830Y1132410D02*
X711810Y1130430D01*
X709830Y1132410D02*
Y1137048D01*
X711810Y1130430D02*
X713790Y1132410D01*
X711810Y1107930D02*
Y1130430D01*
X707138Y1139740D02*
X709830Y1137048D01*
X698620Y1094740D02*
X711810Y1107930D01*
X700405Y1031625D02*
X702060Y1029970D01*
X703330Y1028700D02*
X706210Y1025820D01*
X700405Y1031625D02*
Y1064542D01*
X706210Y1010950D02*
Y1025820D01*
X698620Y1066327D02*
X700405Y1064542D01*
X698620Y1066327D02*
Y1094740D01*
X998220Y843633D02*
Y845820D01*
Y518160D02*
Y843633D01*
X884837Y775617D02*
X958850Y849630D01*
X864235Y774121D02*
X865195Y775081D01*
X866538Y772558D02*
X867410Y773430D01*
X998220Y518160D02*
X1069340Y447040D01*
X1075690D01*
X819785Y723618D02*
X864235Y768068D01*
X699679Y819985D02*
X700514Y819150D01*
X681424Y1132840D02*
X688324Y1139740D01*
X707138D01*
X659130Y1132840D02*
X681424D01*
X680285Y819985D02*
X699679D01*
X674279Y813979D02*
X680285Y819985D01*
X661960Y813979D02*
X674279D01*
X649351Y801370D02*
X661960Y813979D01*
X643890Y801370D02*
X649351D01*
X654875Y795846D01*
Y794122D02*
Y795846D01*
X655955Y769366D02*
X671830Y753491D01*
X649351Y775970D02*
X655955Y769366D01*
X643890Y750570D02*
X649351D01*
X643890Y775970D02*
X648771D01*
X649351D01*
X638429Y750570D02*
X643890D01*
X630837Y742978D02*
X638429Y750570D01*
X629330Y611992D02*
Y651376D01*
X643890Y539877D02*
Y556260D01*
X628860Y541230D02*
X643890Y556260D01*
X603460Y586122D02*
X629330Y611992D01*
X603460Y550034D02*
Y586122D01*
X612264Y541230D02*
X628860D01*
X603460Y550034D02*
X612264Y541230D01*
X859581Y699770D02*
X863391Y695960D01*
X816610Y699770D02*
X859581D01*
X863391Y695960D02*
X866140D01*
X831620Y519660D02*
X916940Y434340D01*
X775653Y519660D02*
X831620D01*
X730533Y501240D02*
X757233D01*
X775653Y519660D01*
X757492Y521272D02*
X768350Y532130D01*
X757492Y516192D02*
Y521272D01*
X748579Y507279D02*
X757492Y516192D01*
X736572Y507279D02*
X748579D01*
X900550Y840620D02*
X901700Y839470D01*
X819030Y913130D02*
X891540Y840620D01*
X900550D01*
X775516Y701957D02*
X816610D01*
X677962D02*
X679450Y700469D01*
X916940Y434340D02*
X923290D01*
X730533Y501240D02*
X736572Y507279D01*
X679450Y686036D02*
Y700469D01*
X725580Y501240D02*
X730533D01*
X651510Y701957D02*
X677962D01*
X650490Y657076D02*
X679450Y686036D01*
X648335Y698782D02*
X651510Y701957D01*
X650426Y657076D02*
X650490D01*
X648290Y654940D02*
X650426Y657076D01*
X648335Y676341D02*
Y698782D01*
X645410Y651510D02*
Y673416D01*
X648335Y676341D01*
X645410Y651510D02*
X647610Y649310D01*
X648290Y649124D02*
Y654940D01*
X643574Y649124D02*
X648290D01*
X647610Y615000D02*
Y649310D01*
X639769Y566210D02*
X659340D01*
X608540Y575930D02*
X647610Y615000D01*
X639769Y566210D02*
X775516Y701957D01*
X659340Y566210D02*
X669290Y556260D01*
X631190Y557631D02*
X639769Y566210D01*
X631190Y554889D02*
Y557631D01*
X608540Y552139D02*
Y575930D01*
X614369Y546310D02*
X622611D01*
X631190Y554889D01*
X608540Y552139D02*
X614369Y546310D01*
X755666Y707604D02*
X842701Y794639D01*
X755666Y693436D02*
Y707604D01*
X684530Y622300D02*
X755666Y693436D01*
X618946Y482144D02*
X631248D01*
X635872Y477520D02*
X644288D01*
X631248Y482144D02*
X635872Y477520D01*
X644288D02*
X648912Y482144D01*
X618490Y482600D02*
X618946Y482144D01*
X1057204Y864306D02*
X1070610Y850900D01*
X958850Y864630D02*
X997896D01*
X998220Y864306D01*
X888323Y794103D02*
X958850Y864630D01*
X718270Y723900D02*
X718820D01*
X684530Y690160D02*
X718270Y723900D01*
X684530Y622300D02*
Y690160D01*
X618490Y556260D02*
X684530Y622300D01*
X641350Y1098550D02*
X658710D01*
X690590Y1130430D01*
X725540Y1126200D02*
X744300Y1107440D01*
X786130D01*
X797560Y509479D02*
X820502Y486537D01*
X797560Y509479D02*
Y510540D01*
X820502Y486537D02*
X829310D01*
X748770Y473837D02*
X755650D01*
X748030Y581660D02*
X755650Y589280D01*
X643740Y909470D02*
X660400Y892810D01*
X680720D01*
X656740Y921220D02*
X657470Y920490D01*
X681300Y487960D02*
X681580Y488240D01*
X669290Y825373D02*
X669798Y825881D01*
X640080Y487680D02*
X640360Y487960D01*
X681300D01*
X829310Y486537D02*
X831850Y483997D01*
X643740Y909470D02*
Y923470D01*
Y892667D02*
Y909470D01*
X669290Y840867D02*
X671195Y842772D01*
X643740Y892667D02*
X649693Y886714D01*
X671195Y842772D02*
Y875555D01*
X721310Y1128180D02*
Y1130430D01*
Y1128180D02*
X723290Y1126200D01*
X725540D01*
X622690Y779009D02*
X638429Y763270D01*
X945835Y1140460D02*
X1068070D01*
X895665Y1190630D02*
X945835Y1140460D01*
X795660Y1190630D02*
X895665D01*
X769620Y1164590D02*
X795660Y1190630D01*
X721310Y1102430D02*
Y1130430D01*
X702310Y1128180D02*
Y1130430D01*
X713620Y1082519D02*
Y1094740D01*
Y1082519D02*
X716915Y1079224D01*
X713620Y1094740D02*
X721310Y1102430D01*
X827590Y919458D02*
X836080D01*
X774684Y972364D02*
X827590Y919458D01*
X836080D02*
X911860Y843678D01*
X772316Y972364D02*
X774684D01*
X750462Y904570D02*
X820406D01*
X911860Y835262D02*
Y843678D01*
X905908Y829310D02*
X911860Y835262D01*
X820406Y904570D02*
X895666Y829310D01*
X905908D01*
X717903Y1032613D02*
Y1065530D01*
X716915Y1066518D02*
Y1079224D01*
Y1066518D02*
X717903Y1065530D01*
X716530Y1028150D02*
Y1028700D01*
Y1028150D02*
X772316Y972364D01*
X715260Y1029970D02*
X717903Y1032613D01*
X690590Y1130430D02*
X702310D01*
X666594Y1092464D02*
X702310Y1128180D01*
X652344Y1164590D02*
X769620D01*
X666594Y1012906D02*
Y1092464D01*
X662030Y983082D02*
X671950D01*
X632858Y979170D02*
X666594Y1012906D01*
X648752Y1160998D02*
X648970Y1160780D01*
Y1144752D02*
Y1160780D01*
X648752Y1160998D02*
X652344Y1164590D01*
X618490Y1114272D02*
X648970Y1144752D01*
X624442Y979170D02*
X632858D01*
X618490Y985122D02*
Y1114272D01*
Y985122D02*
X624442Y979170D01*
X671950Y983082D02*
X750462Y904570D01*
X638429Y864870D02*
X643890D01*
X622690Y943742D02*
X662030Y983082D01*
X638429Y788670D02*
X643890D01*
X638429Y763270D02*
X643890D01*
X631825Y795274D02*
Y858266D01*
Y795274D02*
X638429Y788670D01*
X631825Y858266D02*
X638429Y864870D01*
X622690Y779009D02*
Y943742D01*
X636905Y787146D02*
X638429Y788670D01*
X636905Y785422D02*
Y787146D01*
X631825Y780342D02*
X636905Y785422D01*
X631825Y771598D02*
Y780342D01*
X628650Y1117248D02*
X654050Y1142648D01*
Y1142760D02*
X659130Y1147840D01*
X654050Y1142648D02*
Y1142760D01*
X628650Y989330D02*
Y1117248D01*
X659130Y1147840D02*
X697970D01*
X709370Y1154430D02*
X712926Y1150874D01*
X697970Y1147840D02*
X702310Y1152180D01*
Y1154430D01*
X546862Y788670D02*
Y794318D01*
X545374Y795806D02*
X546862Y794318D01*
X537460Y795806D02*
X545374D01*
X535837Y797429D02*
X537460Y795806D01*
X535837Y797429D02*
Y805311D01*
X538246Y807720D01*
X555478D01*
X557887Y810129D01*
Y856111D01*
X556264Y857734D02*
X557887Y856111D01*
X548350Y857734D02*
X556264D01*
X546862Y859222D02*
X548350Y857734D01*
X546862Y859222D02*
Y864870D01*
Y775970D02*
Y788670D01*
X439547Y1033653D02*
X461390Y1011810D01*
X499790D01*
X439547Y1033653D02*
Y1058853D01*
X387350Y765810D02*
X538861D01*
X541401Y763270D01*
X540032Y1137285D02*
X541020Y1138273D01*
X500130Y1104196D02*
X533219Y1137285D01*
X540032D01*
X506820Y932198D02*
X546862Y892156D01*
X506820Y932198D02*
Y958510D01*
X502670Y1008380D02*
Y1008930D01*
Y962660D02*
Y1008380D01*
X500130Y1068070D02*
Y1104196D01*
X503940Y961390D02*
X506820Y958510D01*
X502670Y962660D02*
X503940Y961390D01*
X546862Y763270D02*
Y775970D01*
Y864870D02*
Y892156D01*
X541401Y763270D02*
X546862D01*
X457510Y1068070D02*
X500130D01*
X451513Y1062073D02*
X457510Y1068070D01*
X449580Y1062073D02*
X451513D01*
X448592Y1061085D02*
X449580Y1062073D01*
X386517Y1065093D02*
X446560D01*
X449580Y1062073D01*
X386080Y1065530D02*
X386517Y1065093D01*
X441779Y1061085D02*
X448592D01*
X499790Y1011810D02*
X502670Y1008930D01*
X439547Y1058853D02*
X441779Y1061085D01*
X674497Y524256D02*
X716609Y482144D01*
X725176D01*
Y495144D02*
X725580Y494740D01*
X716763Y495144D02*
X725176D01*
X714531Y497376D02*
X716763Y495144D01*
X714531Y497376D02*
Y507208D01*
X748030Y540707D01*
Y581660D01*
X797370Y466090D02*
X831850D01*
X790130Y458851D02*
X797370Y466090D01*
X756158Y458851D02*
X790130D01*
X755650Y458343D02*
X756158Y458851D01*
X725580Y494740D02*
X725984Y494336D01*
X735081D01*
X747282Y482135D01*
Y475325D02*
Y482135D01*
Y475325D02*
X748770Y473837D01*
X742203Y466656D02*
Y480031D01*
X734397Y487836D02*
X742203Y480031D01*
X725580Y488240D02*
X725984Y487836D01*
X734397D01*
X742203Y466656D02*
X750008Y458851D01*
X755142D01*
X755650Y458343D01*
X738632Y425958D02*
X739140Y425450D01*
X738632Y425958D02*
Y447958D01*
X725580Y461010D02*
X738632Y447958D01*
X725580Y461010D02*
Y481740D01*
X725176Y482144D02*
X725580Y481740D01*
X674497Y524256D02*
Y524510D01*
X656740Y921220D02*
Y923470D01*
X647318Y954030D02*
X649550Y951798D01*
Y946660D02*
Y951798D01*
X640162Y954030D02*
X647318D01*
X637930Y929298D02*
X646542Y937910D01*
X660036Y886714D02*
X671195Y875555D01*
X649693Y886714D02*
X660036D01*
X646542Y937910D02*
X653818D01*
X637930Y887267D02*
Y929298D01*
X655827Y876554D02*
X661035Y871346D01*
X666115Y863108D02*
Y873450D01*
X643381Y871474D02*
X653723D01*
X655955Y869242D01*
Y860498D02*
Y869242D01*
X650875Y855418D02*
X655955Y860498D01*
X643563Y881634D02*
X647589D01*
X661035Y861004D02*
Y871346D01*
X647589Y881634D02*
X657932D01*
X666115Y873450D01*
X639355Y871474D02*
X643381D01*
X661035Y858394D02*
Y861004D01*
X641459Y876554D02*
X645485D01*
X666115Y856290D02*
Y863108D01*
X653818Y937910D02*
X656050Y940142D01*
X645485Y876554D02*
X655827D01*
X656050Y940142D02*
Y945280D01*
X637930Y887267D02*
X643563Y881634D01*
X649550Y946660D02*
X650240Y945970D01*
X627770Y941638D02*
X640162Y954030D01*
X627770Y883059D02*
Y941638D01*
Y883059D02*
X639355Y871474D01*
X650875Y853694D02*
Y855418D01*
X649351Y852170D02*
X650875Y853694D01*
X643890Y852170D02*
X649351D01*
X661035Y851209D02*
X666115Y856290D01*
X661035Y845694D02*
Y851209D01*
X655955Y853314D02*
X661035Y858394D01*
X655955Y847798D02*
Y853314D01*
X632850Y885163D02*
X641459Y876554D01*
X656050Y945280D02*
X656740Y945970D01*
X632850Y885163D02*
Y932830D01*
X643740Y943720D02*
Y945970D01*
X632850Y932830D02*
X643740Y943720D01*
X650875Y842718D02*
X655955Y847798D01*
X650875Y840994D02*
Y842718D01*
X649351Y839470D02*
X650875Y840994D01*
X643890Y839470D02*
X649351D01*
X655955Y840614D02*
X661035Y845694D01*
X655955Y835098D02*
Y840614D01*
X650875Y830018D02*
X655955Y835098D01*
X650875Y828294D02*
Y830018D01*
X649351Y826770D02*
X650875Y828294D01*
X643890Y826770D02*
X649351D01*
X835660Y1169670D02*
X842010D01*
X819400Y1153410D02*
X835660Y1169670D01*
X751840Y1153410D02*
X819400D01*
X748960Y1150530D02*
X751840Y1153410D01*
X731548Y1150530D02*
X748960D01*
X726138Y1145120D02*
X731548Y1150530D01*
X716482Y1145120D02*
X726138D01*
X712926Y1148676D02*
X716482Y1145120D01*
X712926Y1148676D02*
Y1150874D01*
X702310Y1154430D02*
X709370D01*
X541401Y852170D02*
X546862D01*
X464042Y929529D02*
X541401Y852170D01*
X464042Y929529D02*
Y936768D01*
X386080Y1014730D02*
X464042Y936768D01*
X386080Y989330D02*
X535940Y839470D01*
X546862D01*
X523240Y826770D02*
X546862D01*
X386080Y963930D02*
X523240Y826770D01*
D16*
X720090Y809240D02*
D03*
Y796040D02*
D03*
X751840Y1140210D02*
D03*
X718820Y737100D02*
D03*
Y723900D02*
D03*
X751840Y1153410D02*
D03*
D17*
X656740Y945970D02*
D03*
Y923470D02*
D03*
X650240Y945970D02*
D03*
X643740D02*
D03*
X650240Y923470D02*
D03*
X643740D02*
D03*
D18*
X643890Y864870D02*
D03*
Y852170D02*
D03*
Y839470D02*
D03*
Y826770D02*
D03*
Y814070D02*
D03*
Y801370D02*
D03*
Y788670D02*
D03*
Y775970D02*
D03*
Y763270D02*
D03*
Y750570D02*
D03*
X546862D02*
D03*
Y763270D02*
D03*
Y775970D02*
D03*
Y788670D02*
D03*
Y801370D02*
D03*
Y814070D02*
D03*
Y826770D02*
D03*
Y839470D02*
D03*
Y852170D02*
D03*
Y864870D02*
D03*
D19*
X561340Y659130D02*
D03*
X538480D02*
D03*
X697230Y1065530D02*
D03*
X628650Y699770D02*
D03*
X651510D02*
D03*
X720090Y1065530D02*
D03*
D20*
X541020Y1117600D02*
D03*
X449580Y1041400D02*
D03*
X998220Y843633D02*
D03*
Y866493D02*
D03*
X541020Y1140460D02*
D03*
X449580Y1064260D02*
D03*
D21*
X558030Y692150D02*
D03*
X513330Y1068070D02*
D03*
X515870Y1008380D02*
D03*
X517140Y961390D02*
D03*
X544830Y692150D02*
D03*
X703330Y1028700D02*
D03*
X632210Y651510D02*
D03*
X645410D02*
D03*
X716530Y1028700D02*
D03*
X500130Y1068070D02*
D03*
X502670Y1008380D02*
D03*
X503940Y961390D02*
D03*
D22*
X659130Y1132840D02*
D03*
Y1147840D02*
D03*
X958850Y849630D02*
D03*
Y864630D02*
D03*
D23*
X698620Y1094740D02*
D03*
X713620D02*
D03*
X819030Y913130D02*
D03*
X804030D02*
D03*
D24*
X725580Y501240D02*
D03*
Y488240D02*
D03*
Y494740D02*
D03*
Y481740D02*
D03*
X681580Y488240D02*
D03*
Y494740D02*
D03*
Y501240D02*
D03*
Y481740D02*
D03*
D25*
X721233Y425450D02*
D03*
X656590Y524510D02*
D03*
X676910D02*
D03*
X741553Y425450D02*
D03*
D26*
X640080D02*
D03*
X387350Y1160780D02*
D03*
X1075690Y447040D02*
D03*
X923290Y434340D02*
D03*
X1070610Y850900D02*
D03*
X1068070Y1140460D02*
D03*
X387350Y765810D02*
D03*
X842010Y1169670D02*
D03*
X386080Y877570D02*
D03*
X754380Y593090D02*
D03*
D28*
X867410Y773430D02*
D03*
X816610Y722630D02*
D03*
Y699770D02*
D03*
X867410Y796290D02*
D03*
D29*
X717550Y754380D02*
D03*
Y774700D02*
D03*
X669290Y822960D02*
D03*
Y843280D02*
D03*
X831850Y483997D02*
D03*
Y463677D02*
D03*
X755650Y476250D02*
D03*
Y455930D02*
D03*
D33*
X567690Y556260D02*
D03*
X618490D02*
D03*
X643890D02*
D03*
X669290D02*
D03*
D34*
X386080Y1040130D02*
D03*
Y1065530D02*
D03*
Y1014730D02*
D03*
Y989330D02*
D03*
Y963930D02*
D03*
Y938530D02*
D03*
D35*
X542290Y556260D02*
D03*
D36*
X386080Y1090930D02*
D03*
D37*
X752673Y850463D02*
D03*
X683260Y779780D02*
D03*
X758190Y925830D02*
D03*
X822960Y758190D02*
D03*
X866140Y695960D02*
D03*
X768350Y532130D02*
D03*
X901700Y839470D02*
D03*
X618490Y482600D02*
D03*
X641350Y1098550D02*
D03*
X786130Y1107440D02*
D03*
X797560Y510540D02*
D03*
X680720Y892810D02*
D03*
X640080Y487680D02*
D03*
X628650Y989330D02*
D03*
X789940Y811530D02*
D03*
D38*
X711810Y1130430D02*
D03*
X702310Y1154430D02*
D03*
X721310D02*
D03*
Y1130430D02*
D03*
X702310D02*
D03*
M02*
