G04*
G04 #@! TF.GenerationSoftware,Altium Limited,Altium Designer,25.8.1 (18)*
G04*
G04 Layer_Physical_Order=2*
G04 Layer_Color=16711680*
%FSLAX44Y44*%
%MOMM*%
G71*
G04*
G04 #@! TF.SameCoordinates,A3DECC46-E399-446C-B8BE-E2314782DB49*
G04*
G04*
G04 #@! TF.FilePolarity,Positive*
G04*
G01*
G75*
%ADD14C,0.2540*%
%ADD33C,1.2280*%
%ADD34C,1.3660*%
%ADD35R,1.2280X1.2280*%
%ADD36R,1.3660X1.3660*%
%ADD37C,1.2700*%
G36*
X579120Y406926D02*
X577850Y406400D01*
X328930D01*
X322595Y1189457D01*
X324383Y1191260D01*
X579120D01*
Y406926D01*
D02*
G37*
G36*
X1103630Y412532D02*
X1101090Y411480D01*
X613948D01*
X612164Y413288D01*
X612953Y473799D01*
X615460Y475285D01*
X617457Y474750D01*
X619524D01*
X621520Y475285D01*
X623310Y476318D01*
X624772Y477780D01*
X625805Y479570D01*
X626340Y481567D01*
Y483633D01*
X625805Y485630D01*
X624772Y487420D01*
X623310Y488882D01*
X621520Y489915D01*
X621314Y489970D01*
Y549107D01*
X621439Y549141D01*
X623181Y550146D01*
X624604Y551569D01*
X625609Y553311D01*
X626130Y555254D01*
Y557266D01*
X625609Y559209D01*
X624604Y560951D01*
X623181Y562374D01*
X621439Y563379D01*
X619496Y563900D01*
X617484D01*
X616666Y563681D01*
X614147Y565267D01*
X619614Y984200D01*
X622163Y984865D01*
X622368Y984510D01*
X623830Y983048D01*
X625620Y982015D01*
X625826Y981960D01*
Y924560D01*
X625826Y924560D01*
X626041Y923479D01*
X626653Y922563D01*
X658403Y890813D01*
X659319Y890201D01*
X660400Y889986D01*
X660400Y889986D01*
X673350D01*
X673405Y889780D01*
X674438Y887990D01*
X675900Y886528D01*
X677690Y885495D01*
X679687Y884960D01*
X681753D01*
X683750Y885495D01*
X685540Y886528D01*
X687002Y887990D01*
X688035Y889780D01*
X688570Y891777D01*
Y893844D01*
X688035Y895840D01*
X687002Y897630D01*
X685540Y899092D01*
X683750Y900125D01*
X681753Y900660D01*
X679687D01*
X677690Y900125D01*
X675900Y899092D01*
X674438Y897630D01*
X673405Y895840D01*
X673350Y895634D01*
X661570D01*
X631474Y925730D01*
Y981960D01*
X631680Y982015D01*
X633470Y983048D01*
X634932Y984510D01*
X635965Y986300D01*
X636500Y988297D01*
Y990363D01*
X635965Y992360D01*
X634932Y994150D01*
X633470Y995612D01*
X631680Y996645D01*
X629683Y997180D01*
X627617D01*
X625620Y996645D01*
X623830Y995612D01*
X622368Y994150D01*
X622282Y994001D01*
X619751Y994697D01*
X622300Y1189990D01*
X1103630D01*
Y412532D01*
D02*
G37*
%LPC*%
G36*
X394410Y1099260D02*
X377750D01*
Y1082600D01*
X394410D01*
Y1099260D01*
D02*
G37*
G36*
X387177Y1073860D02*
X384983D01*
X382865Y1073292D01*
X380965Y1072196D01*
X379414Y1070645D01*
X378318Y1068745D01*
X377750Y1066627D01*
Y1064433D01*
X378318Y1062315D01*
X379414Y1060415D01*
X380965Y1058864D01*
X382865Y1057768D01*
X384983Y1057200D01*
X387177D01*
X389295Y1057768D01*
X391195Y1058864D01*
X392746Y1060415D01*
X393842Y1062315D01*
X394410Y1064433D01*
Y1066627D01*
X393842Y1068745D01*
X392746Y1070645D01*
X391195Y1072196D01*
X389295Y1073292D01*
X387177Y1073860D01*
D02*
G37*
G36*
X387350Y1049490D02*
Y1041400D01*
X395440D01*
X394811Y1043747D01*
X393578Y1045883D01*
X391833Y1047628D01*
X389697Y1048861D01*
X387350Y1049490D01*
D02*
G37*
G36*
X384810D02*
X382463Y1048861D01*
X380327Y1047628D01*
X378582Y1045883D01*
X377349Y1043747D01*
X376720Y1041400D01*
X384810D01*
Y1049490D01*
D02*
G37*
G36*
X395440Y1038860D02*
X387350D01*
Y1030770D01*
X389697Y1031399D01*
X391833Y1032632D01*
X393578Y1034377D01*
X394811Y1036513D01*
X395440Y1038860D01*
D02*
G37*
G36*
X384810D02*
X376720D01*
X377349Y1036513D01*
X378582Y1034377D01*
X380327Y1032632D01*
X382463Y1031399D01*
X384810Y1030770D01*
Y1038860D01*
D02*
G37*
G36*
X387177Y1023060D02*
X384983D01*
X382865Y1022492D01*
X380965Y1021396D01*
X379414Y1019845D01*
X378318Y1017945D01*
X377750Y1015827D01*
Y1013633D01*
X378318Y1011515D01*
X379414Y1009615D01*
X380965Y1008064D01*
X382865Y1006968D01*
X384983Y1006400D01*
X387177D01*
X389295Y1006968D01*
X391195Y1008064D01*
X392746Y1009615D01*
X393842Y1011515D01*
X394410Y1013633D01*
Y1015827D01*
X393842Y1017945D01*
X392746Y1019845D01*
X391195Y1021396D01*
X389295Y1022492D01*
X387177Y1023060D01*
D02*
G37*
G36*
Y997660D02*
X384983D01*
X382865Y997092D01*
X380965Y995996D01*
X379414Y994445D01*
X378318Y992545D01*
X377750Y990427D01*
Y988233D01*
X378318Y986115D01*
X379414Y984215D01*
X380965Y982664D01*
X382865Y981568D01*
X384983Y981000D01*
X387177D01*
X389295Y981568D01*
X391195Y982664D01*
X392746Y984215D01*
X393842Y986115D01*
X394410Y988233D01*
Y990427D01*
X393842Y992545D01*
X392746Y994445D01*
X391195Y995996D01*
X389295Y997092D01*
X387177Y997660D01*
D02*
G37*
G36*
Y972260D02*
X384983D01*
X382865Y971692D01*
X380965Y970596D01*
X379414Y969045D01*
X378318Y967145D01*
X377750Y965027D01*
Y962833D01*
X378318Y960715D01*
X379414Y958815D01*
X380965Y957264D01*
X382865Y956168D01*
X384983Y955600D01*
X387177D01*
X389295Y956168D01*
X391195Y957264D01*
X392746Y958815D01*
X393842Y960715D01*
X394410Y962833D01*
Y965027D01*
X393842Y967145D01*
X392746Y969045D01*
X391195Y970596D01*
X389295Y971692D01*
X387177Y972260D01*
D02*
G37*
G36*
Y946860D02*
X384983D01*
X382865Y946292D01*
X380965Y945196D01*
X379414Y943645D01*
X378318Y941745D01*
X377750Y939627D01*
Y937433D01*
X378318Y935315D01*
X379414Y933415D01*
X380965Y931864D01*
X382865Y930768D01*
X384983Y930200D01*
X387177D01*
X389295Y930768D01*
X391195Y931864D01*
X392746Y933415D01*
X393842Y935315D01*
X394410Y937433D01*
Y939627D01*
X393842Y941745D01*
X392746Y943645D01*
X391195Y945196D01*
X389295Y946292D01*
X387177Y946860D01*
D02*
G37*
G36*
X568960Y564906D02*
Y557530D01*
X576336D01*
X575779Y559610D01*
X574636Y561590D01*
X573020Y563206D01*
X571040Y564348D01*
X568960Y564906D01*
D02*
G37*
G36*
X566420D02*
X564340Y564348D01*
X562360Y563206D01*
X560744Y561590D01*
X559602Y559610D01*
X559044Y557530D01*
X566420D01*
Y564906D01*
D02*
G37*
G36*
X549930Y563900D02*
X534650D01*
Y548620D01*
X549930D01*
Y563900D01*
D02*
G37*
G36*
X576336Y554990D02*
X568960D01*
Y547614D01*
X571040Y548172D01*
X573020Y549314D01*
X574636Y550930D01*
X575779Y552910D01*
X576336Y554990D01*
D02*
G37*
G36*
X566420D02*
X559044D01*
X559602Y552910D01*
X560744Y550930D01*
X562360Y549314D01*
X564340Y548172D01*
X566420Y547614D01*
Y554990D01*
D02*
G37*
G36*
X766862Y1129532D02*
X766862Y1129532D01*
X734278D01*
X733197Y1129317D01*
X732281Y1128705D01*
X732281Y1128705D01*
X704950Y1101374D01*
X648720D01*
X648665Y1101580D01*
X647632Y1103370D01*
X646170Y1104832D01*
X644380Y1105865D01*
X642383Y1106400D01*
X640316D01*
X638320Y1105865D01*
X636530Y1104832D01*
X635068Y1103370D01*
X634035Y1101580D01*
X633500Y1099584D01*
Y1097516D01*
X634035Y1095520D01*
X635068Y1093730D01*
X636530Y1092268D01*
X638320Y1091235D01*
X640316Y1090700D01*
X642383D01*
X644380Y1091235D01*
X646170Y1092268D01*
X647632Y1093730D01*
X648665Y1095520D01*
X648720Y1095726D01*
X706120D01*
X706120Y1095726D01*
X707201Y1095941D01*
X708117Y1096553D01*
X735448Y1123884D01*
X765692D01*
X778921Y1110654D01*
X778815Y1110470D01*
X778280Y1108474D01*
Y1106406D01*
X778815Y1104410D01*
X779848Y1102620D01*
X781310Y1101158D01*
X783100Y1100125D01*
X785097Y1099590D01*
X787163D01*
X789160Y1100125D01*
X790950Y1101158D01*
X792412Y1102620D01*
X793445Y1104410D01*
X793980Y1106406D01*
Y1108474D01*
X793445Y1110470D01*
X792412Y1112260D01*
X790950Y1113722D01*
X789160Y1114755D01*
X787163Y1115290D01*
X785097D01*
X783100Y1114755D01*
X782916Y1114649D01*
X768859Y1128705D01*
X767943Y1129317D01*
X766862Y1129532D01*
D02*
G37*
G36*
X759460Y934693D02*
Y927100D01*
X767053D01*
X766474Y929261D01*
X765304Y931289D01*
X763649Y932944D01*
X761621Y934114D01*
X759460Y934693D01*
D02*
G37*
G36*
X756920D02*
X754759Y934114D01*
X752731Y932944D01*
X751076Y931289D01*
X749906Y929261D01*
X749327Y927100D01*
X756920D01*
Y934693D01*
D02*
G37*
G36*
X753706Y858313D02*
X751639D01*
X749643Y857778D01*
X747853Y856744D01*
X746391Y855283D01*
X745358Y853493D01*
X745302Y853287D01*
X726003D01*
X726003Y853287D01*
X724922Y853072D01*
X724006Y852460D01*
X689220Y817674D01*
X688608Y816758D01*
X688393Y815677D01*
X688393Y815677D01*
Y789157D01*
X686316Y787080D01*
X686290Y787095D01*
X684294Y787630D01*
X682226D01*
X680230Y787095D01*
X678440Y786062D01*
X676978Y784600D01*
X675945Y782810D01*
X675410Y780814D01*
Y778746D01*
X675945Y776750D01*
X676978Y774960D01*
X678440Y773498D01*
X680230Y772465D01*
X682226Y771930D01*
X684294D01*
X686290Y772465D01*
X688080Y773498D01*
X689542Y774960D01*
X690575Y776750D01*
X691110Y778746D01*
Y780814D01*
X690575Y782810D01*
X690377Y783153D01*
X693214Y785990D01*
X693214Y785990D01*
X693826Y786907D01*
X694041Y787988D01*
Y814507D01*
X727172Y847638D01*
X745302D01*
X745358Y847433D01*
X746391Y845643D01*
X747853Y844181D01*
X749643Y843148D01*
X749848Y843092D01*
Y739027D01*
X631943Y621122D01*
X631331Y620206D01*
X631116Y619125D01*
X631116Y619125D01*
Y495909D01*
X631116Y495908D01*
X631331Y494828D01*
X631943Y493911D01*
X633636Y492218D01*
X632765Y490710D01*
X632230Y488713D01*
Y486646D01*
X632765Y484650D01*
X633798Y482860D01*
X635260Y481398D01*
X637050Y480365D01*
X639047Y479830D01*
X641114D01*
X643110Y480365D01*
X644900Y481398D01*
X646362Y482860D01*
X647395Y484650D01*
X647930Y486646D01*
Y488713D01*
X647395Y490710D01*
X646362Y492500D01*
X644900Y493962D01*
X643110Y494995D01*
X641114Y495530D01*
X639047D01*
X638468Y495375D01*
X636764Y497078D01*
Y547518D01*
X637256Y548010D01*
X639304Y548885D01*
X640540Y548172D01*
X642620Y547614D01*
Y556260D01*
Y564906D01*
X640540Y564348D01*
X639304Y563635D01*
X637256Y564510D01*
X636764Y565002D01*
Y617955D01*
X754670Y735861D01*
X754670Y735861D01*
X755282Y736777D01*
X755497Y737858D01*
X755497Y737858D01*
Y843092D01*
X755703Y843148D01*
X757493Y844181D01*
X758954Y845643D01*
X759988Y847433D01*
X760523Y849429D01*
Y851496D01*
X759988Y853493D01*
X758954Y855283D01*
X757493Y856744D01*
X755703Y857778D01*
X753706Y858313D01*
D02*
G37*
G36*
X673354Y838173D02*
X665226D01*
X664078Y837697D01*
X663602Y836549D01*
Y829691D01*
X664078Y828543D01*
X665226Y828067D01*
X673354D01*
X674502Y828543D01*
X674978Y829691D01*
Y836549D01*
X674502Y837697D01*
X673354Y838173D01*
D02*
G37*
G36*
X767053Y924560D02*
X749327D01*
X749906Y922399D01*
X751076Y920371D01*
X752731Y918716D01*
X754759Y917546D01*
X755366Y917383D01*
Y872490D01*
X755366Y872490D01*
X755581Y871409D01*
X756193Y870493D01*
X841944Y784742D01*
Y781168D01*
X826936Y766160D01*
X826391Y766474D01*
X824230Y767053D01*
Y759460D01*
X831823D01*
X831244Y761621D01*
X830930Y762166D01*
X846765Y778001D01*
X847377Y778917D01*
X847592Y779998D01*
Y785912D01*
X847592Y785912D01*
X847377Y786993D01*
X846765Y787909D01*
X846765Y787909D01*
X761014Y873660D01*
Y917383D01*
X761621Y917546D01*
X763649Y918716D01*
X765304Y920371D01*
X766474Y922399D01*
X767053Y924560D01*
D02*
G37*
G36*
X721614Y769593D02*
X713486D01*
X712338Y769117D01*
X711862Y767969D01*
Y761111D01*
X712338Y759963D01*
X713486Y759487D01*
X721614D01*
X722762Y759963D01*
X723238Y761111D01*
Y767969D01*
X722762Y769117D01*
X721614Y769593D01*
D02*
G37*
G36*
X821690Y767053D02*
X819529Y766474D01*
X817501Y765304D01*
X815846Y763649D01*
X814676Y761621D01*
X814097Y759460D01*
X821690D01*
Y767053D01*
D02*
G37*
G36*
X831823Y756920D02*
X824230D01*
Y749327D01*
X826391Y749906D01*
X828419Y751076D01*
X830074Y752731D01*
X831244Y754759D01*
X831823Y756920D01*
D02*
G37*
G36*
X821690D02*
X814097D01*
X814676Y754759D01*
X815846Y752731D01*
X817501Y751076D01*
X819529Y749906D01*
X821690Y749327D01*
Y756920D01*
D02*
G37*
G36*
X902734Y847320D02*
X900667D01*
X898670Y846785D01*
X896880Y845752D01*
X895418Y844290D01*
X894385Y842500D01*
X893850Y840503D01*
Y838437D01*
X894385Y836440D01*
X895418Y834650D01*
X896880Y833188D01*
X898670Y832155D01*
X898876Y832100D01*
Y732690D01*
X869354Y703169D01*
X869170Y703275D01*
X867173Y703810D01*
X865107D01*
X863110Y703275D01*
X861320Y702242D01*
X859858Y700780D01*
X858825Y698990D01*
X858290Y696993D01*
Y694927D01*
X858825Y692930D01*
X859858Y691140D01*
X861320Y689678D01*
X863110Y688645D01*
X865107Y688110D01*
X867173D01*
X869170Y688645D01*
X870960Y689678D01*
X872422Y691140D01*
X873455Y692930D01*
X873990Y694927D01*
Y696993D01*
X873455Y698990D01*
X873349Y699174D01*
X903697Y729523D01*
X904309Y730439D01*
X904524Y731520D01*
X904524Y731520D01*
Y832100D01*
X904730Y832155D01*
X906520Y833188D01*
X907982Y834650D01*
X909015Y836440D01*
X909550Y838437D01*
Y840503D01*
X909015Y842500D01*
X907982Y844290D01*
X906520Y845752D01*
X904730Y846785D01*
X902734Y847320D01*
D02*
G37*
G36*
X645160Y564906D02*
Y557530D01*
X652536D01*
X651979Y559610D01*
X650836Y561590D01*
X649220Y563206D01*
X647240Y564348D01*
X645160Y564906D01*
D02*
G37*
G36*
X652536Y554990D02*
X645160D01*
Y547614D01*
X647240Y548172D01*
X649220Y549314D01*
X650836Y550930D01*
X651979Y552910D01*
X652536Y554990D01*
D02*
G37*
G36*
X670296Y563900D02*
X668284D01*
X666341Y563379D01*
X664599Y562374D01*
X663176Y560951D01*
X662171Y559209D01*
X661650Y557266D01*
Y555254D01*
X662171Y553311D01*
X663176Y551569D01*
X664599Y550146D01*
X666341Y549141D01*
X668284Y548620D01*
X670296D01*
X672239Y549141D01*
X672351Y549205D01*
X707933Y513623D01*
X707933Y513623D01*
X708849Y513011D01*
X709930Y512796D01*
X709930Y512796D01*
X756920D01*
X756920Y512796D01*
X758001Y513011D01*
X758917Y513623D01*
X763660Y518366D01*
X763660Y518366D01*
X764272Y519282D01*
X764487Y520363D01*
X764487Y520363D01*
Y522773D01*
X766525Y524492D01*
X767317Y524280D01*
X769383D01*
X771380Y524815D01*
X773170Y525848D01*
X774632Y527310D01*
X775665Y529100D01*
X776200Y531096D01*
Y533163D01*
X775665Y535160D01*
X774632Y536950D01*
X773170Y538412D01*
X771380Y539445D01*
X769383Y539980D01*
X767317D01*
X765320Y539445D01*
X763530Y538412D01*
X762068Y536950D01*
X761035Y535160D01*
X760500Y533163D01*
Y531096D01*
X761035Y529100D01*
X761505Y528285D01*
X759666Y526446D01*
X759054Y525530D01*
X758839Y524449D01*
X758839Y524449D01*
Y521533D01*
X755750Y518444D01*
X711100D01*
X676345Y553199D01*
X676409Y553311D01*
X676930Y555254D01*
Y557266D01*
X676409Y559209D01*
X675404Y560951D01*
X673981Y562374D01*
X672239Y563379D01*
X670296Y563900D01*
D02*
G37*
G36*
X670179Y530198D02*
X663321D01*
X662173Y529722D01*
X661697Y528574D01*
Y520446D01*
X662173Y519298D01*
X663321Y518822D01*
X670179D01*
X671327Y519298D01*
X671803Y520446D01*
Y528574D01*
X671327Y529722D01*
X670179Y530198D01*
D02*
G37*
G36*
X790974Y819380D02*
X788906D01*
X786910Y818845D01*
X785120Y817812D01*
X783658Y816350D01*
X782625Y814560D01*
X782090Y812563D01*
Y810497D01*
X782625Y808500D01*
X783658Y806710D01*
X785120Y805248D01*
X786910Y804215D01*
X788906Y803680D01*
X790974D01*
X792786Y804166D01*
X794203Y803036D01*
X794736Y802527D01*
Y517910D01*
X794530Y517855D01*
X792740Y516822D01*
X791278Y515360D01*
X790245Y513570D01*
X789710Y511573D01*
Y509506D01*
X790245Y507510D01*
X791278Y505720D01*
X792740Y504258D01*
X794530Y503225D01*
X796526Y502690D01*
X798594D01*
X800590Y503225D01*
X802380Y504258D01*
X803842Y505720D01*
X804875Y507510D01*
X805410Y509506D01*
Y511573D01*
X804875Y513570D01*
X803842Y515360D01*
X802380Y516822D01*
X800590Y517855D01*
X800384Y517910D01*
Y803910D01*
X800169Y804991D01*
X799557Y805907D01*
X797149Y808316D01*
X797255Y808500D01*
X797790Y810497D01*
Y812563D01*
X797255Y814560D01*
X796222Y816350D01*
X794760Y817812D01*
X792970Y818845D01*
X790974Y819380D01*
D02*
G37*
G36*
X835914Y478890D02*
X827786D01*
X826638Y478414D01*
X826162Y477266D01*
Y470408D01*
X826638Y469260D01*
X827786Y468784D01*
X835914D01*
X837062Y469260D01*
X837538Y470408D01*
Y477266D01*
X837062Y478414D01*
X835914Y478890D01*
D02*
G37*
G36*
X759714Y471143D02*
X751586D01*
X750438Y470667D01*
X749962Y469519D01*
Y462661D01*
X750438Y461513D01*
X751586Y461037D01*
X759714D01*
X760862Y461513D01*
X761338Y462661D01*
Y469519D01*
X760862Y470667D01*
X759714Y471143D01*
D02*
G37*
G36*
X734822Y431138D02*
X727964D01*
X726816Y430662D01*
X726340Y429514D01*
Y421386D01*
X726816Y420238D01*
X727964Y419762D01*
X734822D01*
X735970Y420238D01*
X736446Y421386D01*
Y429514D01*
X735970Y430662D01*
X734822Y431138D01*
D02*
G37*
%LPD*%
D14*
X751007Y850463D02*
X751840Y849630D01*
X752673Y737858D02*
Y850463D01*
X633940Y619125D02*
X752673Y737858D01*
X726003Y850463D02*
X751007D01*
X683260Y780030D02*
X691217Y787988D01*
X683260Y779780D02*
Y780030D01*
X691217Y787988D02*
Y815677D01*
X726003Y850463D01*
X758190Y872490D02*
X844768Y785912D01*
X758190Y872490D02*
Y925830D01*
X822960Y758190D02*
X844768Y779998D01*
Y785912D01*
X866140Y695960D02*
X901700Y731520D01*
Y839470D01*
X761663Y524449D02*
X768350Y531136D01*
Y532130D01*
X761663Y520363D02*
Y524449D01*
X756920Y515620D02*
X761663Y520363D01*
X709930Y515620D02*
X756920D01*
X669290Y556260D02*
X709930Y515620D01*
X618490Y482600D02*
Y556260D01*
X641350Y1098550D02*
X706120D01*
X734278Y1126708D02*
X766862D01*
X786130Y1107440D01*
X797560Y510540D02*
Y803910D01*
X789940Y811530D02*
X797560Y803910D01*
X660400Y892810D02*
X680720D01*
X628650Y924560D02*
X660400Y892810D01*
X633940Y495908D02*
X640080Y489768D01*
X633940Y495908D02*
Y619125D01*
X640080Y487680D02*
Y489768D01*
X706120Y1098550D02*
X734278Y1126708D01*
X628650Y924560D02*
Y989330D01*
D33*
X567690Y556260D02*
D03*
X618490D02*
D03*
X643890D02*
D03*
X669290D02*
D03*
D34*
X386080Y1040130D02*
D03*
Y1065530D02*
D03*
Y1014730D02*
D03*
Y989330D02*
D03*
Y963930D02*
D03*
Y938530D02*
D03*
D35*
X542290Y556260D02*
D03*
D36*
X386080Y1090930D02*
D03*
D37*
X752673Y850463D02*
D03*
X683260Y779780D02*
D03*
X758190Y925830D02*
D03*
X822960Y758190D02*
D03*
X866140Y695960D02*
D03*
X768350Y532130D02*
D03*
X901700Y839470D02*
D03*
X618490Y482600D02*
D03*
X641350Y1098550D02*
D03*
X786130Y1107440D02*
D03*
X797560Y510540D02*
D03*
X680720Y892810D02*
D03*
X640080Y487680D02*
D03*
X628650Y989330D02*
D03*
X789940Y811530D02*
D03*
M02*
