M48
;Layer_Color=9474304
;FILE_FORMAT=4:4
METRIC,LZ
;TYPE=PLATED
T01F00S00C0.7112
T02F00S00C0.7200
T03F00S00C1.0160
%
T01
X0079756Y0051054
X0086614Y0069596
X0082296Y0075819
X0068326Y0077978
X0076835Y0053213
X0064008Y0048768
X0061849Y004826
X0068072Y0089281
X0075819Y0092583
X00752673Y00850463
X0078994Y0081153
X0078613Y0110744
X0064135Y0109855
X0062865Y0098933
X009017Y0083947
T02
X0054229Y0055626
X0056769
X0061849
X0064389
X0066929
T03
X0038608Y0093853
Y0096393
Y0098933
Y0101473
Y0104013
Y0106553
Y0109093
M30
