G04*
G04 #@! TF.GenerationSoftware,Altium Limited,Altium Designer,25.8.1 (18)*
G04*
G04 Layer_Color=32768*
%FSLAX25Y25*%
%MOIN*%
G70*
G04*
G04 #@! TF.SameCoordinates,03386816-46D1-4981-AEED-FFC867A31DEE*
G04*
G04*
G04 #@! TF.FilePolarity,Positive*
G04*
G01*
G75*
%ADD30C,0.00394*%
G36*
X484872Y152000D02*
X484686D01*
Y153182D01*
X484683Y153180D01*
X484674Y153171D01*
X484658Y153159D01*
X484637Y153143D01*
X484612Y153122D01*
X484582Y153102D01*
X484548Y153076D01*
X484509Y153053D01*
X484506D01*
X484504Y153051D01*
X484490Y153042D01*
X484469Y153030D01*
X484444Y153017D01*
X484414Y153000D01*
X484382Y152987D01*
X484347Y152971D01*
X484315Y152957D01*
Y153138D01*
X484318D01*
X484322Y153141D01*
X484332Y153145D01*
X484341Y153152D01*
X484354Y153159D01*
X484371Y153166D01*
X484407Y153187D01*
X484449Y153212D01*
X484495Y153242D01*
X484541Y153277D01*
X484585Y153313D01*
X484587Y153316D01*
X484589Y153318D01*
X484603Y153332D01*
X484623Y153352D01*
X484649Y153378D01*
X484677Y153410D01*
X484704Y153444D01*
X484729Y153481D01*
X484750Y153518D01*
X484872D01*
Y152000D01*
D02*
G37*
G36*
X483448Y153509D02*
X483467D01*
X483513Y153507D01*
X483561Y153502D01*
X483611Y153493D01*
X483660Y153483D01*
X483683Y153477D01*
X483704Y153470D01*
X483706D01*
X483708Y153467D01*
X483722Y153463D01*
X483740Y153451D01*
X483763Y153435D01*
X483791Y153417D01*
X483818Y153392D01*
X483846Y153362D01*
X483872Y153325D01*
X483874Y153320D01*
X483881Y153306D01*
X483892Y153286D01*
X483904Y153258D01*
X483915Y153224D01*
X483927Y153184D01*
X483934Y153143D01*
X483936Y153097D01*
Y153095D01*
Y153090D01*
Y153081D01*
X483934Y153069D01*
Y153056D01*
X483931Y153040D01*
X483922Y153003D01*
X483911Y152959D01*
X483892Y152915D01*
X483864Y152869D01*
X483848Y152846D01*
X483830Y152826D01*
X483825Y152821D01*
X483818Y152816D01*
X483812Y152807D01*
X483800Y152800D01*
X483786Y152789D01*
X483770Y152780D01*
X483752Y152768D01*
X483731Y152757D01*
X483706Y152745D01*
X483681Y152734D01*
X483651Y152722D01*
X483621Y152711D01*
X483586Y152701D01*
X483549Y152695D01*
X483510Y152688D01*
X483515Y152685D01*
X483524Y152681D01*
X483538Y152674D01*
X483554Y152665D01*
X483593Y152639D01*
X483614Y152626D01*
X483630Y152612D01*
X483635Y152607D01*
X483646Y152598D01*
X483662Y152580D01*
X483683Y152557D01*
X483708Y152527D01*
X483736Y152492D01*
X483766Y152453D01*
X483796Y152409D01*
X484058Y152000D01*
X483807D01*
X483607Y152313D01*
Y152315D01*
X483602Y152320D01*
X483598Y152327D01*
X483593Y152336D01*
X483577Y152359D01*
X483556Y152389D01*
X483533Y152423D01*
X483508Y152458D01*
X483485Y152490D01*
X483462Y152520D01*
X483460Y152522D01*
X483453Y152531D01*
X483441Y152545D01*
X483430Y152561D01*
X483395Y152593D01*
X483379Y152610D01*
X483361Y152621D01*
X483359Y152623D01*
X483354Y152626D01*
X483345Y152630D01*
X483333Y152637D01*
X483306Y152651D01*
X483271Y152662D01*
X483269D01*
X483264Y152665D01*
X483255D01*
X483244Y152667D01*
X483227Y152669D01*
X483209D01*
X483186Y152672D01*
X482928D01*
Y152000D01*
X482728D01*
Y153511D01*
X483430D01*
X483448Y153509D01*
D02*
G37*
G36*
X488305Y173498D02*
X488326D01*
X488351Y173495D01*
X488376Y173493D01*
X488406Y173488D01*
X488471Y173477D01*
X488540Y173463D01*
X488611Y173440D01*
X488678Y173410D01*
X488680D01*
X488685Y173406D01*
X488694Y173401D01*
X488707Y173394D01*
X488721Y173385D01*
X488737Y173373D01*
X488776Y173344D01*
X488820Y173309D01*
X488864Y173265D01*
X488908Y173213D01*
X488944Y173155D01*
Y173153D01*
X488949Y173148D01*
X488954Y173139D01*
X488958Y173125D01*
X488965Y173111D01*
X488974Y173093D01*
X488981Y173070D01*
X488990Y173047D01*
X489000Y173022D01*
X489007Y172994D01*
X489023Y172932D01*
X489032Y172863D01*
X489036Y172789D01*
Y172766D01*
X489034Y172750D01*
X489032Y172732D01*
X489030Y172709D01*
X489027Y172684D01*
X489023Y172656D01*
X489009Y172596D01*
X488988Y172532D01*
X488974Y172500D01*
X488958Y172467D01*
X488940Y172437D01*
X488919Y172407D01*
X488917Y172405D01*
X488914Y172401D01*
X488908Y172394D01*
X488898Y172382D01*
X488887Y172371D01*
X488871Y172355D01*
X488855Y172338D01*
X488836Y172322D01*
X488813Y172304D01*
X488790Y172288D01*
X488763Y172269D01*
X488733Y172251D01*
X488703Y172235D01*
X488668Y172219D01*
X488595Y172191D01*
X488549Y172389D01*
X488551D01*
X488556Y172391D01*
X488565Y172394D01*
X488576Y172398D01*
X488590Y172405D01*
X488606Y172412D01*
X488641Y172428D01*
X488680Y172449D01*
X488721Y172476D01*
X488758Y172506D01*
X488790Y172543D01*
X488793Y172548D01*
X488802Y172562D01*
X488813Y172582D01*
X488829Y172612D01*
X488843Y172647D01*
X488855Y172690D01*
X488864Y172739D01*
X488866Y172794D01*
Y172810D01*
X488864Y172821D01*
Y172838D01*
X488862Y172854D01*
X488855Y172895D01*
X488845Y172941D01*
X488829Y172989D01*
X488809Y173038D01*
X488781Y173084D01*
Y173086D01*
X488776Y173088D01*
X488765Y173102D01*
X488747Y173123D01*
X488721Y173148D01*
X488689Y173173D01*
X488652Y173201D01*
X488606Y173226D01*
X488556Y173247D01*
X488553D01*
X488549Y173249D01*
X488542Y173252D01*
X488530Y173254D01*
X488519Y173258D01*
X488503Y173261D01*
X488466Y173270D01*
X488422Y173279D01*
X488374Y173286D01*
X488321Y173291D01*
X488266Y173293D01*
X488264D01*
X488257D01*
X488247D01*
X488234D01*
X488218Y173291D01*
X488197D01*
X488176Y173288D01*
X488153Y173286D01*
X488100Y173279D01*
X488043Y173270D01*
X487985Y173256D01*
X487930Y173238D01*
X487928D01*
X487923Y173235D01*
X487916Y173231D01*
X487907Y173226D01*
X487880Y173215D01*
X487850Y173196D01*
X487813Y173171D01*
X487778Y173141D01*
X487744Y173107D01*
X487714Y173065D01*
Y173063D01*
X487712Y173061D01*
X487707Y173054D01*
X487702Y173045D01*
X487693Y173019D01*
X487679Y172987D01*
X487668Y172950D01*
X487656Y172907D01*
X487647Y172858D01*
X487645Y172808D01*
Y172792D01*
X487647Y172780D01*
Y172766D01*
X487649Y172748D01*
X487656Y172709D01*
X487668Y172665D01*
X487686Y172617D01*
X487709Y172571D01*
X487742Y172525D01*
X487744Y172522D01*
X487746Y172520D01*
X487760Y172506D01*
X487783Y172486D01*
X487813Y172460D01*
X487854Y172435D01*
X487902Y172407D01*
X487962Y172385D01*
X488029Y172366D01*
X487978Y172166D01*
X487976D01*
X487967Y172168D01*
X487955Y172173D01*
X487937Y172178D01*
X487919Y172187D01*
X487893Y172196D01*
X487868Y172205D01*
X487840Y172219D01*
X487778Y172249D01*
X487716Y172290D01*
X487656Y172336D01*
X487629Y172364D01*
X487604Y172394D01*
X487601Y172396D01*
X487599Y172401D01*
X487592Y172410D01*
X487583Y172424D01*
X487574Y172440D01*
X487562Y172458D01*
X487551Y172479D01*
X487539Y172504D01*
X487528Y172532D01*
X487516Y172562D01*
X487505Y172596D01*
X487495Y172631D01*
X487479Y172706D01*
X487477Y172748D01*
X487475Y172792D01*
Y172815D01*
X487477Y172833D01*
Y172854D01*
X487479Y172877D01*
X487484Y172904D01*
X487486Y172932D01*
X487500Y172996D01*
X487516Y173063D01*
X487541Y173127D01*
X487555Y173160D01*
X487574Y173189D01*
X487576Y173192D01*
X487578Y173196D01*
X487585Y173203D01*
X487592Y173215D01*
X487615Y173242D01*
X487647Y173275D01*
X487686Y173314D01*
X487737Y173351D01*
X487794Y173390D01*
X487861Y173422D01*
X487863D01*
X487870Y173424D01*
X487880Y173429D01*
X487893Y173433D01*
X487912Y173440D01*
X487932Y173447D01*
X487955Y173454D01*
X487983Y173461D01*
X488011Y173468D01*
X488043Y173475D01*
X488112Y173488D01*
X488185Y173498D01*
X488266Y173500D01*
X488268D01*
X488277D01*
X488289D01*
X488305Y173498D01*
D02*
G37*
G36*
X488638Y171851D02*
X488641Y171846D01*
X488645Y171837D01*
X488652Y171828D01*
X488659Y171814D01*
X488666Y171798D01*
X488687Y171761D01*
X488712Y171720D01*
X488742Y171674D01*
X488776Y171628D01*
X488813Y171584D01*
X488816Y171582D01*
X488818Y171580D01*
X488832Y171566D01*
X488852Y171545D01*
X488878Y171520D01*
X488910Y171492D01*
X488944Y171465D01*
X488981Y171439D01*
X489018Y171418D01*
Y171297D01*
X487500D01*
Y171483D01*
X488682D01*
X488680Y171485D01*
X488671Y171494D01*
X488659Y171511D01*
X488643Y171531D01*
X488622Y171556D01*
X488602Y171586D01*
X488576Y171621D01*
X488553Y171660D01*
Y171662D01*
X488551Y171665D01*
X488542Y171678D01*
X488530Y171699D01*
X488517Y171724D01*
X488500Y171754D01*
X488487Y171786D01*
X488471Y171821D01*
X488457Y171853D01*
X488638D01*
Y171851D01*
D02*
G37*
G36*
X542305Y172954D02*
X542326D01*
X542351Y172952D01*
X542376Y172950D01*
X542406Y172945D01*
X542471Y172934D01*
X542540Y172920D01*
X542611Y172897D01*
X542678Y172867D01*
X542680D01*
X542685Y172862D01*
X542694Y172858D01*
X542707Y172851D01*
X542721Y172842D01*
X542737Y172830D01*
X542776Y172800D01*
X542820Y172766D01*
X542864Y172722D01*
X542908Y172669D01*
X542944Y172612D01*
Y172609D01*
X542949Y172605D01*
X542954Y172596D01*
X542958Y172582D01*
X542965Y172568D01*
X542974Y172550D01*
X542981Y172527D01*
X542990Y172504D01*
X543000Y172478D01*
X543007Y172451D01*
X543023Y172389D01*
X543032Y172320D01*
X543036Y172246D01*
Y172223D01*
X543034Y172207D01*
X543032Y172188D01*
X543029Y172166D01*
X543027Y172140D01*
X543023Y172113D01*
X543009Y172053D01*
X542988Y171988D01*
X542974Y171956D01*
X542958Y171924D01*
X542940Y171894D01*
X542919Y171864D01*
X542917Y171862D01*
X542914Y171857D01*
X542908Y171850D01*
X542898Y171839D01*
X542887Y171827D01*
X542871Y171811D01*
X542855Y171795D01*
X542836Y171779D01*
X542813Y171761D01*
X542790Y171745D01*
X542763Y171726D01*
X542733Y171708D01*
X542703Y171692D01*
X542668Y171676D01*
X542595Y171648D01*
X542549Y171846D01*
X542551D01*
X542556Y171848D01*
X542565Y171850D01*
X542576Y171855D01*
X542590Y171862D01*
X542606Y171869D01*
X542641Y171885D01*
X542680Y171906D01*
X542721Y171933D01*
X542758Y171963D01*
X542790Y172000D01*
X542793Y172004D01*
X542802Y172018D01*
X542813Y172039D01*
X542829Y172069D01*
X542843Y172103D01*
X542855Y172147D01*
X542864Y172195D01*
X542866Y172251D01*
Y172267D01*
X542864Y172278D01*
Y172294D01*
X542862Y172310D01*
X542855Y172352D01*
X542845Y172398D01*
X542829Y172446D01*
X542809Y172494D01*
X542781Y172540D01*
Y172543D01*
X542776Y172545D01*
X542765Y172559D01*
X542747Y172580D01*
X542721Y172605D01*
X542689Y172630D01*
X542652Y172658D01*
X542606Y172683D01*
X542556Y172704D01*
X542553D01*
X542549Y172706D01*
X542542Y172708D01*
X542530Y172711D01*
X542519Y172715D01*
X542503Y172717D01*
X542466Y172727D01*
X542422Y172736D01*
X542374Y172743D01*
X542321Y172747D01*
X542266Y172750D01*
X542264D01*
X542257D01*
X542247D01*
X542234D01*
X542218Y172747D01*
X542197D01*
X542176Y172745D01*
X542153Y172743D01*
X542100Y172736D01*
X542043Y172727D01*
X541985Y172713D01*
X541930Y172695D01*
X541928D01*
X541923Y172692D01*
X541916Y172688D01*
X541907Y172683D01*
X541880Y172671D01*
X541850Y172653D01*
X541813Y172628D01*
X541778Y172598D01*
X541744Y172563D01*
X541714Y172522D01*
Y172520D01*
X541712Y172517D01*
X541707Y172511D01*
X541702Y172501D01*
X541693Y172476D01*
X541679Y172444D01*
X541668Y172407D01*
X541656Y172363D01*
X541647Y172315D01*
X541645Y172264D01*
Y172248D01*
X541647Y172237D01*
Y172223D01*
X541649Y172205D01*
X541656Y172166D01*
X541668Y172122D01*
X541686Y172073D01*
X541709Y172028D01*
X541742Y171982D01*
X541744Y171979D01*
X541746Y171977D01*
X541760Y171963D01*
X541783Y171942D01*
X541813Y171917D01*
X541854Y171892D01*
X541902Y171864D01*
X541962Y171841D01*
X542029Y171823D01*
X541978Y171623D01*
X541976D01*
X541967Y171625D01*
X541955Y171630D01*
X541937Y171634D01*
X541919Y171643D01*
X541893Y171653D01*
X541868Y171662D01*
X541840Y171676D01*
X541778Y171705D01*
X541716Y171747D01*
X541656Y171793D01*
X541629Y171820D01*
X541604Y171850D01*
X541601Y171853D01*
X541599Y171857D01*
X541592Y171867D01*
X541583Y171880D01*
X541574Y171896D01*
X541562Y171915D01*
X541551Y171935D01*
X541539Y171961D01*
X541528Y171988D01*
X541516Y172018D01*
X541505Y172053D01*
X541495Y172087D01*
X541479Y172163D01*
X541477Y172205D01*
X541475Y172248D01*
Y172271D01*
X541477Y172290D01*
Y172310D01*
X541479Y172333D01*
X541484Y172361D01*
X541486Y172389D01*
X541500Y172453D01*
X541516Y172520D01*
X541541Y172584D01*
X541555Y172616D01*
X541574Y172646D01*
X541576Y172649D01*
X541578Y172653D01*
X541585Y172660D01*
X541592Y172671D01*
X541615Y172699D01*
X541647Y172731D01*
X541686Y172770D01*
X541737Y172807D01*
X541794Y172846D01*
X541861Y172879D01*
X541863D01*
X541870Y172881D01*
X541880Y172885D01*
X541893Y172890D01*
X541912Y172897D01*
X541932Y172904D01*
X541955Y172911D01*
X541983Y172918D01*
X542011Y172924D01*
X542043Y172931D01*
X542112Y172945D01*
X542185Y172954D01*
X542266Y172957D01*
X542268D01*
X542277D01*
X542289D01*
X542305Y172954D01*
D02*
G37*
G36*
X541925Y171264D02*
X541923D01*
X541919Y171262D01*
X541909D01*
X541900Y171257D01*
X541873Y171250D01*
X541838Y171239D01*
X541801Y171225D01*
X541762Y171206D01*
X541728Y171183D01*
X541698Y171158D01*
X541695Y171153D01*
X541686Y171144D01*
X541677Y171128D01*
X541663Y171105D01*
X541652Y171080D01*
X541640Y171048D01*
X541631Y171011D01*
X541629Y170972D01*
Y170958D01*
X541631Y170949D01*
X541633Y170926D01*
X541640Y170896D01*
X541652Y170859D01*
X541666Y170822D01*
X541689Y170785D01*
X541718Y170751D01*
X541723Y170746D01*
X541735Y170737D01*
X541753Y170723D01*
X541781Y170705D01*
X541813Y170689D01*
X541852Y170675D01*
X541896Y170666D01*
X541944Y170661D01*
X541946D01*
X541949D01*
X541955D01*
X541965Y170664D01*
X541988Y170666D01*
X542018Y170673D01*
X542050Y170682D01*
X542087Y170698D01*
X542121Y170719D01*
X542153Y170746D01*
X542158Y170751D01*
X542167Y170760D01*
X542178Y170779D01*
X542195Y170804D01*
X542211Y170834D01*
X542222Y170871D01*
X542231Y170910D01*
X542236Y170956D01*
Y170976D01*
X542234Y170993D01*
X542231Y171011D01*
X542229Y171034D01*
X542225Y171059D01*
X542218Y171087D01*
X542381Y171066D01*
Y171055D01*
X542379Y171045D01*
Y171016D01*
X542381Y170995D01*
X542385Y170965D01*
X542392Y170933D01*
X542404Y170898D01*
X542418Y170861D01*
X542438Y170825D01*
X542441Y170820D01*
X542450Y170808D01*
X542466Y170795D01*
X542487Y170776D01*
X542512Y170758D01*
X542544Y170744D01*
X542583Y170733D01*
X542629Y170728D01*
X542632D01*
X542634D01*
X542645D01*
X542664Y170733D01*
X542689Y170737D01*
X542714Y170744D01*
X542742Y170758D01*
X542772Y170774D01*
X542797Y170797D01*
X542800Y170799D01*
X542809Y170808D01*
X542820Y170825D01*
X542832Y170845D01*
X542845Y170871D01*
X542855Y170900D01*
X542864Y170935D01*
X542866Y170974D01*
Y170993D01*
X542862Y171013D01*
X542857Y171036D01*
X542850Y171066D01*
X542836Y171096D01*
X542820Y171126D01*
X542797Y171156D01*
X542795Y171158D01*
X542786Y171167D01*
X542770Y171179D01*
X542747Y171193D01*
X542719Y171209D01*
X542685Y171222D01*
X542643Y171236D01*
X542595Y171246D01*
X542627Y171432D01*
X542629D01*
X542636Y171430D01*
X542645Y171427D01*
X542657Y171425D01*
X542673Y171420D01*
X542691Y171416D01*
X542733Y171400D01*
X542779Y171381D01*
X542827Y171354D01*
X542873Y171321D01*
X542914Y171280D01*
X542917Y171278D01*
X542919Y171275D01*
X542924Y171268D01*
X542931Y171257D01*
X542938Y171246D01*
X542947Y171232D01*
X542967Y171197D01*
X542986Y171153D01*
X543002Y171101D01*
X543013Y171043D01*
X543018Y171011D01*
Y170958D01*
X543016Y170935D01*
X543011Y170905D01*
X543004Y170871D01*
X542995Y170832D01*
X542981Y170792D01*
X542963Y170753D01*
Y170751D01*
X542961Y170749D01*
X542954Y170735D01*
X542942Y170717D01*
X542926Y170694D01*
X542905Y170668D01*
X542880Y170641D01*
X542850Y170615D01*
X542818Y170592D01*
X542813Y170590D01*
X542802Y170583D01*
X542783Y170574D01*
X542760Y170565D01*
X542731Y170555D01*
X542698Y170546D01*
X542664Y170539D01*
X542625Y170537D01*
X542620D01*
X542609D01*
X542590Y170539D01*
X542567Y170544D01*
X542540Y170551D01*
X542510Y170560D01*
X542478Y170572D01*
X542448Y170590D01*
X542443Y170592D01*
X542434Y170599D01*
X542420Y170613D01*
X542402Y170629D01*
X542381Y170652D01*
X542360Y170677D01*
X542337Y170710D01*
X542319Y170746D01*
Y170744D01*
X542316Y170739D01*
Y170733D01*
X542312Y170723D01*
X542305Y170700D01*
X542291Y170670D01*
X542275Y170638D01*
X542252Y170604D01*
X542225Y170569D01*
X542190Y170539D01*
X542185Y170537D01*
X542172Y170528D01*
X542151Y170516D01*
X542123Y170500D01*
X542089Y170486D01*
X542047Y170475D01*
X541999Y170466D01*
X541946Y170464D01*
X541944D01*
X541937D01*
X541928D01*
X541914Y170466D01*
X541896Y170468D01*
X541877Y170470D01*
X541854Y170475D01*
X541831Y170482D01*
X541778Y170498D01*
X541748Y170510D01*
X541721Y170526D01*
X541693Y170542D01*
X541666Y170560D01*
X541638Y170583D01*
X541610Y170608D01*
X541608Y170611D01*
X541604Y170615D01*
X541599Y170622D01*
X541590Y170634D01*
X541578Y170648D01*
X541567Y170666D01*
X541555Y170687D01*
X541544Y170707D01*
X541530Y170733D01*
X541518Y170760D01*
X541507Y170790D01*
X541495Y170822D01*
X541486Y170857D01*
X541482Y170894D01*
X541477Y170933D01*
X541475Y170972D01*
Y170990D01*
X541477Y171004D01*
X541479Y171022D01*
X541482Y171041D01*
X541484Y171064D01*
X541489Y171087D01*
X541502Y171140D01*
X541525Y171195D01*
X541537Y171222D01*
X541553Y171248D01*
X541571Y171275D01*
X541592Y171301D01*
X541594Y171303D01*
X541597Y171305D01*
X541604Y171312D01*
X541613Y171321D01*
X541627Y171331D01*
X541640Y171342D01*
X541656Y171356D01*
X541675Y171367D01*
X541721Y171395D01*
X541774Y171418D01*
X541833Y171439D01*
X541866Y171446D01*
X541900Y171450D01*
X541925Y171264D01*
D02*
G37*
G36*
X526805Y172954D02*
X526826D01*
X526851Y172952D01*
X526876Y172950D01*
X526906Y172945D01*
X526971Y172934D01*
X527040Y172920D01*
X527111Y172897D01*
X527178Y172867D01*
X527180D01*
X527184Y172862D01*
X527194Y172858D01*
X527208Y172851D01*
X527221Y172842D01*
X527237Y172830D01*
X527277Y172800D01*
X527320Y172766D01*
X527364Y172722D01*
X527408Y172669D01*
X527444Y172612D01*
Y172609D01*
X527449Y172605D01*
X527454Y172596D01*
X527458Y172582D01*
X527465Y172568D01*
X527474Y172550D01*
X527481Y172527D01*
X527490Y172504D01*
X527500Y172478D01*
X527506Y172451D01*
X527523Y172389D01*
X527532Y172320D01*
X527536Y172246D01*
Y172223D01*
X527534Y172207D01*
X527532Y172188D01*
X527529Y172166D01*
X527527Y172140D01*
X527523Y172113D01*
X527509Y172053D01*
X527488Y171988D01*
X527474Y171956D01*
X527458Y171924D01*
X527440Y171894D01*
X527419Y171864D01*
X527417Y171862D01*
X527415Y171857D01*
X527408Y171850D01*
X527398Y171839D01*
X527387Y171827D01*
X527371Y171811D01*
X527355Y171795D01*
X527336Y171779D01*
X527313Y171761D01*
X527290Y171745D01*
X527263Y171726D01*
X527233Y171708D01*
X527203Y171692D01*
X527168Y171676D01*
X527095Y171648D01*
X527049Y171846D01*
X527051D01*
X527056Y171848D01*
X527065Y171850D01*
X527076Y171855D01*
X527090Y171862D01*
X527106Y171869D01*
X527141Y171885D01*
X527180Y171906D01*
X527221Y171933D01*
X527258Y171963D01*
X527290Y172000D01*
X527293Y172004D01*
X527302Y172018D01*
X527313Y172039D01*
X527329Y172069D01*
X527343Y172103D01*
X527355Y172147D01*
X527364Y172195D01*
X527366Y172251D01*
Y172267D01*
X527364Y172278D01*
Y172294D01*
X527362Y172310D01*
X527355Y172352D01*
X527346Y172398D01*
X527329Y172446D01*
X527309Y172494D01*
X527281Y172540D01*
Y172543D01*
X527277Y172545D01*
X527265Y172559D01*
X527247Y172580D01*
X527221Y172605D01*
X527189Y172630D01*
X527152Y172658D01*
X527106Y172683D01*
X527056Y172704D01*
X527053D01*
X527049Y172706D01*
X527042Y172708D01*
X527030Y172711D01*
X527019Y172715D01*
X527003Y172717D01*
X526966Y172727D01*
X526922Y172736D01*
X526874Y172743D01*
X526821Y172747D01*
X526766Y172750D01*
X526764D01*
X526757D01*
X526748D01*
X526734D01*
X526718Y172747D01*
X526697D01*
X526676Y172745D01*
X526653Y172743D01*
X526600Y172736D01*
X526543Y172727D01*
X526485Y172713D01*
X526430Y172695D01*
X526428D01*
X526423Y172692D01*
X526416Y172688D01*
X526407Y172683D01*
X526379Y172671D01*
X526350Y172653D01*
X526313Y172628D01*
X526278Y172598D01*
X526244Y172563D01*
X526214Y172522D01*
Y172520D01*
X526212Y172517D01*
X526207Y172511D01*
X526202Y172501D01*
X526193Y172476D01*
X526179Y172444D01*
X526168Y172407D01*
X526156Y172363D01*
X526147Y172315D01*
X526145Y172264D01*
Y172248D01*
X526147Y172237D01*
Y172223D01*
X526150Y172205D01*
X526156Y172166D01*
X526168Y172122D01*
X526186Y172073D01*
X526209Y172028D01*
X526241Y171982D01*
X526244Y171979D01*
X526246Y171977D01*
X526260Y171963D01*
X526283Y171942D01*
X526313Y171917D01*
X526354Y171892D01*
X526403Y171864D01*
X526462Y171841D01*
X526529Y171823D01*
X526478Y171623D01*
X526476D01*
X526467Y171625D01*
X526455Y171630D01*
X526437Y171634D01*
X526419Y171643D01*
X526393Y171653D01*
X526368Y171662D01*
X526340Y171676D01*
X526278Y171705D01*
X526216Y171747D01*
X526156Y171793D01*
X526129Y171820D01*
X526103Y171850D01*
X526101Y171853D01*
X526099Y171857D01*
X526092Y171867D01*
X526083Y171880D01*
X526074Y171896D01*
X526062Y171915D01*
X526051Y171935D01*
X526039Y171961D01*
X526028Y171988D01*
X526016Y172018D01*
X526005Y172053D01*
X525995Y172087D01*
X525979Y172163D01*
X525977Y172205D01*
X525975Y172248D01*
Y172271D01*
X525977Y172290D01*
Y172310D01*
X525979Y172333D01*
X525984Y172361D01*
X525986Y172389D01*
X526000Y172453D01*
X526016Y172520D01*
X526041Y172584D01*
X526055Y172616D01*
X526074Y172646D01*
X526076Y172649D01*
X526078Y172653D01*
X526085Y172660D01*
X526092Y172671D01*
X526115Y172699D01*
X526147Y172731D01*
X526186Y172770D01*
X526237Y172807D01*
X526294Y172846D01*
X526361Y172879D01*
X526363D01*
X526370Y172881D01*
X526379Y172885D01*
X526393Y172890D01*
X526412Y172897D01*
X526432Y172904D01*
X526455Y172911D01*
X526483Y172918D01*
X526511Y172924D01*
X526543Y172931D01*
X526612Y172945D01*
X526685Y172954D01*
X526766Y172957D01*
X526768D01*
X526777D01*
X526789D01*
X526805Y172954D01*
D02*
G37*
G36*
X526041Y171476D02*
X526060Y171473D01*
X526081Y171471D01*
X526103Y171464D01*
X526126Y171457D01*
X526129D01*
X526131Y171455D01*
X526145Y171450D01*
X526163Y171441D01*
X526191Y171427D01*
X526221Y171411D01*
X526255Y171388D01*
X526290Y171365D01*
X526327Y171335D01*
X526329D01*
X526331Y171331D01*
X526345Y171319D01*
X526366Y171301D01*
X526393Y171273D01*
X526426Y171239D01*
X526465Y171197D01*
X526508Y171147D01*
X526557Y171091D01*
X526559Y171089D01*
X526566Y171080D01*
X526575Y171068D01*
X526591Y171052D01*
X526607Y171032D01*
X526628Y171009D01*
X526672Y170958D01*
X526724Y170903D01*
X526777Y170848D01*
X526803Y170820D01*
X526828Y170797D01*
X526853Y170776D01*
X526876Y170758D01*
X526879D01*
X526881Y170753D01*
X526888Y170749D01*
X526897Y170744D01*
X526920Y170730D01*
X526950Y170714D01*
X526984Y170698D01*
X527021Y170684D01*
X527063Y170675D01*
X527102Y170670D01*
X527104D01*
X527106D01*
X527120Y170673D01*
X527141Y170675D01*
X527166Y170680D01*
X527196Y170691D01*
X527226Y170705D01*
X527258Y170723D01*
X527288Y170751D01*
X527290Y170756D01*
X527299Y170765D01*
X527311Y170783D01*
X527327Y170806D01*
X527341Y170836D01*
X527352Y170871D01*
X527362Y170912D01*
X527364Y170958D01*
Y170972D01*
X527362Y170981D01*
X527359Y171004D01*
X527355Y171034D01*
X527343Y171068D01*
X527329Y171105D01*
X527309Y171140D01*
X527281Y171172D01*
X527277Y171174D01*
X527267Y171183D01*
X527249Y171197D01*
X527224Y171211D01*
X527191Y171227D01*
X527155Y171239D01*
X527111Y171248D01*
X527060Y171252D01*
X527081Y171443D01*
X527083D01*
X527090D01*
X527102Y171441D01*
X527115Y171439D01*
X527134Y171434D01*
X527155Y171432D01*
X527201Y171418D01*
X527253Y171400D01*
X527306Y171374D01*
X527359Y171340D01*
X527382Y171321D01*
X527405Y171298D01*
X527408Y171296D01*
X527410Y171291D01*
X527417Y171285D01*
X527424Y171275D01*
X527431Y171262D01*
X527442Y171246D01*
X527451Y171227D01*
X527463Y171206D01*
X527472Y171183D01*
X527484Y171158D01*
X527493Y171128D01*
X527500Y171098D01*
X527513Y171029D01*
X527516Y170993D01*
X527518Y170953D01*
Y170933D01*
X527516Y170917D01*
X527513Y170898D01*
X527511Y170878D01*
X527509Y170854D01*
X527502Y170829D01*
X527488Y170774D01*
X527467Y170717D01*
X527454Y170687D01*
X527437Y170659D01*
X527417Y170634D01*
X527396Y170608D01*
X527394Y170606D01*
X527391Y170604D01*
X527385Y170597D01*
X527375Y170588D01*
X527362Y170579D01*
X527348Y170567D01*
X527313Y170544D01*
X527270Y170521D01*
X527219Y170500D01*
X527162Y170484D01*
X527129Y170482D01*
X527097Y170480D01*
X527093D01*
X527081D01*
X527063Y170482D01*
X527040Y170484D01*
X527012Y170489D01*
X526982Y170496D01*
X526950Y170505D01*
X526918Y170519D01*
X526913Y170521D01*
X526902Y170526D01*
X526886Y170535D01*
X526862Y170549D01*
X526835Y170565D01*
X526803Y170585D01*
X526770Y170613D01*
X526734Y170643D01*
X526729Y170648D01*
X526715Y170659D01*
X526695Y170680D01*
X526681Y170694D01*
X526665Y170710D01*
X526646Y170728D01*
X526626Y170751D01*
X526605Y170774D01*
X526580Y170799D01*
X526554Y170827D01*
X526527Y170859D01*
X526499Y170891D01*
X526467Y170928D01*
X526465Y170930D01*
X526460Y170935D01*
X526453Y170944D01*
X526444Y170956D01*
X526421Y170983D01*
X526391Y171018D01*
X526359Y171052D01*
X526327Y171089D01*
X526299Y171119D01*
X526288Y171131D01*
X526276Y171142D01*
X526274Y171144D01*
X526267Y171149D01*
X526258Y171158D01*
X526244Y171170D01*
X526214Y171195D01*
X526177Y171220D01*
Y170477D01*
X526000D01*
Y171478D01*
X526002D01*
X526012D01*
X526025D01*
X526041Y171476D01*
D02*
G37*
%LPC*%
G36*
X483405Y153343D02*
X482928D01*
Y152844D01*
X483379D01*
X483405Y152846D01*
X483434Y152849D01*
X483469Y152851D01*
X483506Y152856D01*
X483540Y152863D01*
X483570Y152872D01*
X483575Y152874D01*
X483584Y152876D01*
X483598Y152883D01*
X483614Y152892D01*
X483632Y152906D01*
X483653Y152922D01*
X483671Y152941D01*
X483687Y152961D01*
X483690Y152964D01*
X483694Y152973D01*
X483701Y152984D01*
X483708Y153003D01*
X483715Y153021D01*
X483722Y153044D01*
X483727Y153069D01*
X483729Y153097D01*
Y153099D01*
Y153102D01*
Y153115D01*
X483724Y153134D01*
X483720Y153159D01*
X483710Y153187D01*
X483697Y153217D01*
X483676Y153247D01*
X483651Y153274D01*
X483646Y153277D01*
X483637Y153286D01*
X483616Y153297D01*
X483591Y153309D01*
X483556Y153323D01*
X483515Y153332D01*
X483464Y153341D01*
X483405Y153343D01*
D02*
G37*
%LPD*%
D30*
X587591Y164159D02*
X587778Y164534D01*
X588153Y164909D01*
X588528Y165096D01*
X589090Y165284D01*
X590028D01*
X590590Y165096D01*
X590965Y164909D01*
X591340Y164534D01*
X591527Y164159D01*
Y163409D01*
X591340Y163035D01*
X590965Y162660D01*
X590590Y162472D01*
X590028Y162285D01*
X589090D01*
X588528Y162472D01*
X588153Y162660D01*
X587778Y163035D01*
X587591Y163409D01*
Y164159D01*
Y161366D02*
X590403D01*
X590965Y161179D01*
X591340Y160804D01*
X591527Y160242D01*
Y159867D01*
X591340Y159305D01*
X590965Y158930D01*
X590403Y158742D01*
X587591D01*
Y156343D02*
X591527D01*
X587591Y157655D02*
Y155031D01*
X442409Y165382D02*
X438473D01*
X442409Y164557D02*
X438473D01*
X442409D02*
X438473Y161933D01*
X442409D02*
X438473D01*
M02*
