G04*
G04 #@! TF.GenerationSoftware,Altium Limited,Altium Designer,25.8.1 (18)*
G04*
G04 Layer_Color=16711935*
%FSLAX25Y25*%
%MOIN*%
G70*
G04*
G04 #@! TF.SameCoordinates,03386816-46D1-4981-AEED-FFC867A31DEE*
G04*
G04*
G04 #@! TF.FilePolarity,Positive*
G04*
G01*
G75*
%ADD11C,0.00787*%
%ADD30C,0.00394*%
G36*
X508022Y184000D02*
X507711D01*
Y185974D01*
X507707Y185970D01*
X507692Y185954D01*
X507665Y185935D01*
X507630Y185908D01*
X507588Y185874D01*
X507538Y185839D01*
X507481Y185797D01*
X507415Y185759D01*
X507412D01*
X507408Y185755D01*
X507385Y185740D01*
X507350Y185720D01*
X507308Y185697D01*
X507258Y185670D01*
X507204Y185647D01*
X507147Y185620D01*
X507093Y185597D01*
Y185901D01*
X507097D01*
X507104Y185905D01*
X507120Y185912D01*
X507135Y185924D01*
X507158Y185935D01*
X507185Y185947D01*
X507246Y185981D01*
X507316Y186024D01*
X507393Y186074D01*
X507469Y186131D01*
X507542Y186193D01*
X507546Y186196D01*
X507550Y186200D01*
X507573Y186223D01*
X507608Y186258D01*
X507650Y186300D01*
X507696Y186354D01*
X507742Y186411D01*
X507784Y186473D01*
X507819Y186534D01*
X508022D01*
Y184000D01*
D02*
G37*
G36*
X505342Y184296D02*
X506582D01*
Y184000D01*
X505008D01*
Y186523D01*
X505342D01*
Y184296D01*
D02*
G37*
D11*
X497114Y177602D02*
Y190398D01*
Y177602D02*
X512902D01*
Y190398D01*
X497114D02*
X512902D01*
D30*
X508626Y170445D02*
G03*
X508626Y170445I-1181J0D01*
G01*
X562591Y140472D02*
Y179843D01*
X616528D01*
Y140472D02*
Y179843D01*
X568142Y138110D02*
X583811D01*
X583220Y140472D02*
X583811Y138110D01*
X568142D02*
X568732Y140472D01*
X562591D02*
X568732D01*
X599284Y138110D02*
X614953D01*
X614480Y140472D02*
X614953Y138110D01*
X599284D02*
X599756Y140472D01*
X614480D02*
X616528D01*
X583220D02*
X599756D01*
X499221Y149843D02*
X507488D01*
X499221Y155157D02*
X507488D01*
Y149843D02*
Y155157D01*
X499221Y149843D02*
Y155157D01*
X485661Y151417D02*
X489795D01*
X485661Y153583D02*
X489795D01*
Y151417D02*
Y153583D01*
X485661Y151417D02*
Y153583D01*
X497898Y173102D02*
X510102D01*
X497898Y160898D02*
X510102D01*
Y173102D01*
X497898Y160898D02*
Y173102D01*
X485146Y164169D02*
Y172831D01*
X490854Y164169D02*
Y172831D01*
X485146Y164169D02*
X490854D01*
X485146Y172831D02*
X490854D01*
X467409Y143973D02*
Y183343D01*
X413472D02*
X467409D01*
X413472Y143973D02*
Y183343D01*
X446189Y141610D02*
X461858D01*
X446189D02*
X446779Y143973D01*
X461268D02*
X461858Y141610D01*
X461268Y143973D02*
X467409D01*
X415047Y141610D02*
X430717D01*
X415047D02*
X415520Y143973D01*
X430244D02*
X430717Y141610D01*
X413472Y143973D02*
X415520D01*
X430244D02*
X446779D01*
X539146Y163626D02*
Y172287D01*
X544854Y163626D02*
Y172287D01*
X539146Y163626D02*
X544854D01*
X539146Y172287D02*
X544854D01*
X523646Y163626D02*
Y172287D01*
X529354Y163626D02*
Y172287D01*
X523646Y163626D02*
X529354D01*
X523646Y172287D02*
X529354D01*
M02*
