G04*
G04 #@! TF.GenerationSoftware,Altium Limited,Altium Designer,25.8.1 (18)*
G04*
G04 Layer_Color=8421504*
%FSLAX25Y25*%
%MOIN*%
G70*
G04*
G04 #@! TF.SameCoordinates,03386816-46D1-4981-AEED-FFC867A31DEE*
G04*
G04*
G04 #@! TF.FilePolarity,Positive*
G04*
G01*
G75*
%ADD13R,0.04134X0.05118*%
G04:AMPARAMS|DCode=14|XSize=21.65mil|YSize=19.68mil|CornerRadius=2.46mil|HoleSize=0mil|Usage=FLASHONLY|Rotation=90.000|XOffset=0mil|YOffset=0mil|HoleType=Round|Shape=RoundedRectangle|*
%AMROUNDEDRECTD14*
21,1,0.02165,0.01476,0,0,90.0*
21,1,0.01673,0.01968,0,0,90.0*
1,1,0.00492,0.00738,0.00837*
1,1,0.00492,0.00738,-0.00837*
1,1,0.00492,-0.00738,-0.00837*
1,1,0.00492,-0.00738,0.00837*
%
%ADD14ROUNDEDRECTD14*%
%ADD15R,0.00945X0.02362*%
%ADD16R,0.05984X0.12008*%
G04:AMPARAMS|DCode=17|XSize=51.18mil|YSize=29.92mil|CornerRadius=3.74mil|HoleSize=0mil|Usage=FLASHONLY|Rotation=0.000|XOffset=0mil|YOffset=0mil|HoleType=Round|Shape=RoundedRectangle|*
%AMROUNDEDRECTD17*
21,1,0.05118,0.02244,0,0,0.0*
21,1,0.04370,0.02992,0,0,0.0*
1,1,0.00748,0.02185,-0.01122*
1,1,0.00748,-0.02185,-0.01122*
1,1,0.00748,-0.02185,0.01122*
1,1,0.00748,0.02185,0.01122*
%
%ADD17ROUNDEDRECTD17*%
G36*
X503606Y169953D02*
X499433D01*
Y164047D01*
X503606D01*
Y169953D01*
D02*
G37*
G36*
X508567D02*
X504394D01*
Y164047D01*
X508567D01*
Y169953D01*
D02*
G37*
D13*
X506209Y152500D02*
D03*
X500500D02*
D03*
D14*
X489500D02*
D03*
X485957D02*
D03*
D15*
X507937Y172512D02*
D03*
X505969D02*
D03*
X504000D02*
D03*
X502032D02*
D03*
X500063D02*
D03*
Y161488D02*
D03*
X502032D02*
D03*
X504000D02*
D03*
X505969D02*
D03*
X507937D02*
D03*
D16*
X509516Y184000D02*
D03*
X500500D02*
D03*
D17*
X488000Y164996D02*
D03*
Y172043D02*
D03*
X542000Y164453D02*
D03*
Y171500D02*
D03*
X526500Y164453D02*
D03*
Y171500D02*
D03*
M02*
