G04*
G04 #@! TF.GenerationSoftware,Altium Limited,Altium Designer,25.8.1 (18)*
G04*
G04 Layer_Physical_Order=1*
G04 Layer_Color=255*
%FSLAX25Y25*%
%MOIN*%
G70*
G04*
G04 #@! TF.SameCoordinates,03386816-46D1-4981-AEED-FFC867A31DEE*
G04*
G04*
G04 #@! TF.FilePolarity,Positive*
G04*
G01*
G75*
%ADD10C,0.01000*%
%ADD13R,0.04134X0.05118*%
G04:AMPARAMS|DCode=14|XSize=21.65mil|YSize=19.68mil|CornerRadius=2.46mil|HoleSize=0mil|Usage=FLASHONLY|Rotation=90.000|XOffset=0mil|YOffset=0mil|HoleType=Round|Shape=RoundedRectangle|*
%AMROUNDEDRECTD14*
21,1,0.02165,0.01476,0,0,90.0*
21,1,0.01673,0.01968,0,0,90.0*
1,1,0.00492,0.00738,0.00837*
1,1,0.00492,0.00738,-0.00837*
1,1,0.00492,-0.00738,-0.00837*
1,1,0.00492,-0.00738,0.00837*
%
%ADD14ROUNDEDRECTD14*%
%ADD15R,0.00945X0.02362*%
%ADD16R,0.05984X0.12008*%
G04:AMPARAMS|DCode=17|XSize=51.18mil|YSize=29.92mil|CornerRadius=3.74mil|HoleSize=0mil|Usage=FLASHONLY|Rotation=0.000|XOffset=0mil|YOffset=0mil|HoleType=Round|Shape=RoundedRectangle|*
%AMROUNDEDRECTD17*
21,1,0.05118,0.02244,0,0,0.0*
21,1,0.04370,0.02992,0,0,0.0*
1,1,0.00748,0.02185,-0.01122*
1,1,0.00748,-0.02185,-0.01122*
1,1,0.00748,-0.02185,0.01122*
1,1,0.00748,0.02185,0.01122*
%
%ADD17ROUNDEDRECTD17*%
%ADD26R,0.09449X0.06496*%
G04:AMPARAMS|DCode=27|XSize=88.58mil|YSize=88.58mil|CornerRadius=22.15mil|HoleSize=0mil|Usage=FLASHONLY|Rotation=270.000|XOffset=0mil|YOffset=0mil|HoleType=Round|Shape=RoundedRectangle|*
%AMROUNDEDRECTD27*
21,1,0.08858,0.04429,0,0,270.0*
21,1,0.04429,0.08858,0,0,270.0*
1,1,0.04429,-0.02215,-0.02215*
1,1,0.04429,-0.02215,0.02215*
1,1,0.04429,0.02215,0.02215*
1,1,0.04429,0.02215,-0.02215*
%
%ADD27ROUNDEDRECTD27*%
%ADD28C,0.08858*%
%ADD29C,0.05000*%
G36*
X630000Y133500D02*
X398000D01*
Y200500D01*
X630000D01*
Y133500D01*
D02*
G37*
%LPC*%
G36*
X504000Y195149D02*
X495500D01*
X495041Y194959D01*
X494851Y194500D01*
Y189374D01*
X494850Y189374D01*
X493851Y189004D01*
X493500Y189149D01*
X402000D01*
X401541Y188959D01*
X401351Y188500D01*
Y168000D01*
X401541Y167541D01*
X402000Y167351D01*
X438144D01*
X438279Y167406D01*
X438425Y167414D01*
X438500Y167498D01*
X438603Y167541D01*
X438659Y167676D01*
X438757Y167785D01*
X438837Y168012D01*
X438858Y168045D01*
X440043Y168546D01*
X440051Y168543D01*
X440785Y168447D01*
X445215D01*
X445949Y168543D01*
X445957Y168546D01*
X447142Y168045D01*
X447163Y168012D01*
X447243Y167785D01*
X447341Y167676D01*
X447397Y167541D01*
X447500Y167498D01*
X447575Y167414D01*
X447721Y167406D01*
X447856Y167351D01*
X480378D01*
Y153086D01*
X480378Y153086D01*
X480464Y152657D01*
X480707Y152293D01*
X481293Y151707D01*
X481293Y151707D01*
X481657Y151464D01*
X482086Y151378D01*
X484412D01*
X484421Y151333D01*
X484609Y151053D01*
X484888Y150866D01*
X485218Y150801D01*
X486695D01*
X486943Y150850D01*
X487008Y150797D01*
X487522Y150002D01*
X487441Y149780D01*
X487351Y149563D01*
Y148500D01*
X487541Y148041D01*
X488000Y147851D01*
X496616D01*
X496764Y147912D01*
X496924Y147928D01*
X497741Y148369D01*
X497803Y148445D01*
X497892Y148482D01*
X497954Y148630D01*
X498055Y148755D01*
X498831Y149341D01*
X503142D01*
Y148941D01*
X505709D01*
Y152500D01*
X506209D01*
Y153000D01*
X509276D01*
Y156059D01*
X507090D01*
Y159307D01*
X507441D01*
Y159707D01*
X509010D01*
Y160378D01*
X511139D01*
X511716Y159378D01*
X511611Y159197D01*
X511400Y158408D01*
Y157592D01*
X511611Y156803D01*
X512019Y156097D01*
X512597Y155519D01*
X513303Y155111D01*
X514092Y154900D01*
X514908D01*
X515697Y155111D01*
X516403Y155519D01*
X516981Y156097D01*
X517389Y156803D01*
X517600Y157592D01*
Y158408D01*
X517389Y159197D01*
X516981Y159903D01*
X516403Y160481D01*
X515697Y160889D01*
X515136Y161039D01*
X515075Y161343D01*
X514832Y161707D01*
X514832Y161707D01*
X514247Y162293D01*
X513883Y162536D01*
X513453Y162622D01*
X513453Y162622D01*
X510670D01*
X509724Y162752D01*
Y166500D01*
X504000D01*
X498276D01*
Y163649D01*
X495000D01*
X494541Y163459D01*
X494351Y163000D01*
X494351Y160149D01*
X488000D01*
X487541Y159959D01*
X487351Y159500D01*
Y155437D01*
X487441Y155219D01*
X487522Y154998D01*
X487009Y154203D01*
X486943Y154150D01*
X486695Y154199D01*
X485218D01*
X484888Y154134D01*
X484609Y153947D01*
X484421Y153667D01*
X484412Y153622D01*
X482622D01*
Y167351D01*
X483783D01*
X483988Y167157D01*
X484460Y166350D01*
X484414Y166118D01*
Y165496D01*
X491586D01*
Y166118D01*
X491540Y166350D01*
X492012Y167157D01*
X492217Y167351D01*
X494500D01*
X494959Y167541D01*
X495149Y168000D01*
Y170351D01*
X498276D01*
Y167500D01*
X504000D01*
X509724D01*
Y171248D01*
X510461Y171884D01*
X516853D01*
X517019Y171597D01*
X517597Y171019D01*
X518303Y170611D01*
X519092Y170400D01*
X519908D01*
X520697Y170611D01*
X521403Y171019D01*
X521981Y171597D01*
X523173Y171662D01*
X523322Y171558D01*
Y170378D01*
X523397Y169998D01*
X523613Y169676D01*
X523935Y169460D01*
X524315Y169385D01*
X528685D01*
X529065Y169460D01*
X529387Y169676D01*
X529602Y169998D01*
X529678Y170378D01*
Y172622D01*
X530611Y172803D01*
X531019Y172097D01*
X531597Y171519D01*
X532303Y171111D01*
X533092Y170900D01*
X533702D01*
X533927Y170884D01*
X534867Y170122D01*
X534944Y169832D01*
X535048Y169697D01*
X535113Y169541D01*
X535194Y169507D01*
X535247Y169438D01*
X535415Y169415D01*
X535572Y169351D01*
X538104D01*
X538135Y169363D01*
X538167Y169354D01*
X538361Y169457D01*
X538563Y169541D01*
X539435Y169460D01*
X539815Y169385D01*
X544185D01*
X544565Y169460D01*
X545437Y169541D01*
X545639Y169457D01*
X545832Y169354D01*
X545865Y169363D01*
X545896Y169351D01*
X556851D01*
Y163000D01*
X557041Y162541D01*
X557500Y162351D01*
X623418Y162350D01*
X623500Y162350D01*
X623500Y162351D01*
X623959Y162541D01*
X624149Y163000D01*
X624150Y163000D01*
X624149Y163082D01*
Y183500D01*
X623959Y183959D01*
X623500Y184149D01*
X516588D01*
X515649Y184786D01*
Y194500D01*
X515459Y194959D01*
X515000Y195149D01*
X505000D01*
X504500Y194974D01*
X504000Y195149D01*
D02*
G37*
G36*
X544185Y166976D02*
X542500D01*
Y164953D01*
X545586D01*
Y165575D01*
X545479Y166111D01*
X545176Y166565D01*
X544721Y166869D01*
X544185Y166976D01*
D02*
G37*
G36*
X541500D02*
X539815D01*
X539279Y166869D01*
X538824Y166565D01*
X538521Y166111D01*
X538414Y165575D01*
Y164953D01*
X541500D01*
Y166976D01*
D02*
G37*
G36*
X528685D02*
X527000D01*
Y164953D01*
X530086D01*
Y165575D01*
X529979Y166111D01*
X529676Y166565D01*
X529221Y166869D01*
X528685Y166976D01*
D02*
G37*
G36*
X526000D02*
X524315D01*
X523779Y166869D01*
X523324Y166565D01*
X523021Y166111D01*
X522914Y165575D01*
Y164953D01*
X526000D01*
Y166976D01*
D02*
G37*
G36*
X491586Y164496D02*
X488500D01*
Y162473D01*
X490185D01*
X490721Y162580D01*
X491176Y162883D01*
X491479Y163338D01*
X491586Y163874D01*
Y164496D01*
D02*
G37*
G36*
X487500D02*
X484414D01*
Y163874D01*
X484521Y163338D01*
X484824Y162883D01*
X485279Y162580D01*
X485815Y162473D01*
X487500D01*
Y164496D01*
D02*
G37*
G36*
X545586Y163953D02*
X542500D01*
Y161930D01*
X544185D01*
X544721Y162036D01*
X545176Y162340D01*
X545479Y162795D01*
X545586Y163331D01*
Y163953D01*
D02*
G37*
G36*
X541500D02*
X538414D01*
Y163331D01*
X538521Y162795D01*
X538824Y162340D01*
X539279Y162036D01*
X539815Y161930D01*
X541500D01*
Y163953D01*
D02*
G37*
G36*
X530086D02*
X527000D01*
Y161930D01*
X528685D01*
X529221Y162036D01*
X529676Y162340D01*
X529979Y162795D01*
X530086Y163331D01*
Y163953D01*
D02*
G37*
G36*
X526000D02*
X522914D01*
Y163331D01*
X523021Y162795D01*
X523324Y162340D01*
X523779Y162036D01*
X524315Y161930D01*
X526000D01*
Y163953D01*
D02*
G37*
G36*
X443715Y159244D02*
X443500D01*
Y154315D01*
X448429D01*
Y154530D01*
X448059Y155911D01*
X447344Y157149D01*
X446334Y158159D01*
X445096Y158874D01*
X443715Y159244D01*
D02*
G37*
G36*
X442500D02*
X442285D01*
X440904Y158874D01*
X439666Y158159D01*
X438656Y157149D01*
X437941Y155911D01*
X437571Y154530D01*
Y154315D01*
X442500D01*
Y159244D01*
D02*
G37*
G36*
X587715Y155744D02*
X587500D01*
Y150815D01*
X592429D01*
Y151030D01*
X592059Y152411D01*
X591344Y153649D01*
X590334Y154659D01*
X589096Y155374D01*
X587715Y155744D01*
D02*
G37*
G36*
X586500D02*
X586285D01*
X584904Y155374D01*
X583666Y154659D01*
X582656Y153649D01*
X581941Y152411D01*
X581571Y151030D01*
Y150815D01*
X586500D01*
Y155744D01*
D02*
G37*
G36*
X509276Y152000D02*
X506709D01*
Y148941D01*
X509276D01*
Y152000D01*
D02*
G37*
G36*
X448429Y153315D02*
X443500D01*
Y148386D01*
X443715D01*
X445096Y148756D01*
X446334Y149471D01*
X447344Y150481D01*
X448059Y151719D01*
X448429Y153100D01*
Y153315D01*
D02*
G37*
G36*
X442500D02*
X437571D01*
Y153100D01*
X437941Y151719D01*
X438656Y150481D01*
X439666Y149471D01*
X440904Y148756D01*
X442285Y148386D01*
X442500D01*
Y153315D01*
D02*
G37*
G36*
X592429Y149815D02*
X587500D01*
Y144886D01*
X587715D01*
X589096Y145256D01*
X590334Y145971D01*
X591344Y146981D01*
X592059Y148219D01*
X592429Y149600D01*
Y149815D01*
D02*
G37*
G36*
X586500D02*
X581571D01*
Y149600D01*
X581941Y148219D01*
X582656Y146981D01*
X583666Y145971D01*
X584904Y145256D01*
X586285Y144886D01*
X586500D01*
Y149815D01*
D02*
G37*
%LPD*%
G36*
X515000Y174500D02*
X507441D01*
Y174693D01*
X506468D01*
Y172512D01*
X505469D01*
Y174693D01*
X505000D01*
Y176213D01*
X505524Y176996D01*
X506000Y176996D01*
X509016D01*
Y184000D01*
Y191004D01*
X506000D01*
X505524Y191004D01*
X505000Y191787D01*
Y194500D01*
X515000D01*
Y174500D01*
D02*
G37*
G36*
X504000Y191004D02*
X501000D01*
Y184000D01*
Y176996D01*
X504000D01*
Y175487D01*
X503504Y174693D01*
X502531D01*
Y172512D01*
X501532D01*
Y174693D01*
X500559D01*
Y174500D01*
X495500D01*
Y194500D01*
X504000D01*
Y191004D01*
D02*
G37*
G36*
X493500Y173733D02*
X495467Y173864D01*
X495500Y173851D01*
X498591D01*
Y173012D01*
X500063D01*
Y172012D01*
X498591D01*
Y171000D01*
X494500D01*
Y168000D01*
X482622D01*
Y170922D01*
X484414D01*
Y170921D01*
X484521Y170385D01*
X484824Y169931D01*
X485279Y169627D01*
X485815Y169520D01*
X487500D01*
Y172043D01*
Y174566D01*
X485815D01*
X485279Y174460D01*
X484824Y174156D01*
X484521Y173702D01*
X484414Y173165D01*
Y173165D01*
X482086D01*
X481657Y173080D01*
X481293Y172836D01*
X481293Y172836D01*
X480707Y172251D01*
X480464Y171887D01*
X480378Y171458D01*
X480378Y171458D01*
Y168000D01*
X447856D01*
X447507Y168993D01*
X448023Y169664D01*
X448346Y170446D01*
X448457Y171285D01*
Y173000D01*
X443000D01*
X437543D01*
Y171285D01*
X437654Y170446D01*
X437978Y169664D01*
X438493Y168993D01*
X438144Y168000D01*
X402000D01*
Y188500D01*
X493500D01*
Y173733D01*
D02*
G37*
G36*
X623500Y163000D02*
X557500Y163000D01*
Y170000D01*
X545896D01*
X545586Y170378D01*
Y171000D01*
X538414D01*
Y170378D01*
X538104Y170000D01*
X535572D01*
X535304Y171000D01*
X535649Y171199D01*
X536301Y171851D01*
X536762Y172649D01*
X536989Y173500D01*
X533500D01*
Y174000D01*
X533000D01*
Y177489D01*
X532149Y177261D01*
X531351Y176801D01*
X530699Y176149D01*
X530238Y175351D01*
X530031Y174578D01*
X529711Y174316D01*
X529000Y173960D01*
X528685Y174023D01*
X527000D01*
Y171500D01*
X526000D01*
Y174023D01*
X524315D01*
X524000Y173960D01*
X523709Y173960D01*
X522855Y174502D01*
X522761Y174851D01*
X522301Y175649D01*
X521649Y176301D01*
X520851Y176761D01*
X520000Y176989D01*
Y173500D01*
X519000D01*
Y176989D01*
X518149Y176761D01*
X517588Y176438D01*
X516862Y176719D01*
X516588Y176952D01*
Y183500D01*
X623500D01*
Y163000D01*
D02*
G37*
G36*
X498591Y161988D02*
X500063D01*
Y161488D01*
X500563D01*
Y159307D01*
X501532D01*
Y161488D01*
X502531D01*
Y159307D01*
X503500D01*
Y161488D01*
X504500D01*
Y159307D01*
X504847D01*
Y157500D01*
X503500D01*
Y156059D01*
X501000D01*
Y152500D01*
X500500D01*
Y152000D01*
X497433D01*
Y148941D01*
X496616Y148500D01*
X488000D01*
Y149563D01*
X488762Y150393D01*
X489000D01*
Y152500D01*
Y154607D01*
X488496Y154897D01*
X488000Y155437D01*
Y159500D01*
X495000D01*
X495000Y163000D01*
X498591D01*
Y161988D01*
D02*
G37*
%LPC*%
G36*
X510016Y191004D02*
Y184500D01*
X513508D01*
Y191004D01*
X510016D01*
D02*
G37*
G36*
X513508Y183500D02*
X510016D01*
Y176996D01*
X513508D01*
Y183500D01*
D02*
G37*
G36*
X500000Y191004D02*
X496508D01*
Y184500D01*
X500000D01*
Y191004D01*
D02*
G37*
G36*
Y183500D02*
X496508D01*
Y176996D01*
X500000D01*
Y183500D01*
D02*
G37*
G36*
X445215Y178957D02*
X443500D01*
Y174000D01*
X448457D01*
Y175715D01*
X448346Y176554D01*
X448023Y177336D01*
X447507Y178007D01*
X446836Y178523D01*
X446054Y178846D01*
X445215Y178957D01*
D02*
G37*
G36*
X442500D02*
X440785D01*
X439946Y178846D01*
X439164Y178523D01*
X438493Y178007D01*
X437978Y177336D01*
X437654Y176554D01*
X437543Y175715D01*
Y174000D01*
X442500D01*
Y178957D01*
D02*
G37*
G36*
X490185Y174566D02*
X488500D01*
Y172543D01*
X491586D01*
Y173165D01*
X491479Y173702D01*
X491176Y174156D01*
X490721Y174460D01*
X490185Y174566D01*
D02*
G37*
G36*
X491586Y171543D02*
X488500D01*
Y169520D01*
X490185D01*
X490721Y169627D01*
X491176Y169931D01*
X491479Y170385D01*
X491586Y170921D01*
Y171543D01*
D02*
G37*
G36*
X534000Y177489D02*
Y174500D01*
X536989D01*
X536762Y175351D01*
X536301Y176149D01*
X535649Y176801D01*
X534851Y177261D01*
X534000Y177489D01*
D02*
G37*
G36*
X544185Y174023D02*
X542500D01*
Y172000D01*
X545586D01*
Y172622D01*
X545479Y173158D01*
X545176Y173613D01*
X544721Y173916D01*
X544185Y174023D01*
D02*
G37*
G36*
X541500D02*
X539815D01*
X539279Y173916D01*
X538824Y173613D01*
X538521Y173158D01*
X538414Y172622D01*
Y172000D01*
X541500D01*
Y174023D01*
D02*
G37*
G36*
X589215Y175457D02*
X587500D01*
Y170500D01*
X592457D01*
Y172215D01*
X592346Y173054D01*
X592023Y173836D01*
X591507Y174507D01*
X590836Y175022D01*
X590054Y175346D01*
X589215Y175457D01*
D02*
G37*
G36*
X586500D02*
X584785D01*
X583946Y175346D01*
X583164Y175022D01*
X582493Y174507D01*
X581978Y173836D01*
X581654Y173054D01*
X581543Y172215D01*
Y170500D01*
X586500D01*
Y175457D01*
D02*
G37*
G36*
X592457Y169500D02*
X587500D01*
Y164543D01*
X589215D01*
X590054Y164654D01*
X590836Y164978D01*
X591507Y165493D01*
X592023Y166164D01*
X592346Y166946D01*
X592457Y167785D01*
Y169500D01*
D02*
G37*
G36*
X586500D02*
X581543D01*
Y167785D01*
X581654Y166946D01*
X581978Y166164D01*
X582493Y165493D01*
X583164Y164978D01*
X583946Y164654D01*
X584785Y164543D01*
X586500D01*
Y169500D01*
D02*
G37*
G36*
X499563Y160988D02*
X498591D01*
Y159307D01*
X499563D01*
Y160988D01*
D02*
G37*
G36*
X490238Y154607D02*
X490000D01*
Y153000D01*
X491509D01*
Y153337D01*
X491412Y153823D01*
X491137Y154235D01*
X490724Y154510D01*
X490238Y154607D01*
D02*
G37*
G36*
X500000Y156059D02*
X497433D01*
Y153000D01*
X500000D01*
Y156059D01*
D02*
G37*
G36*
X491509Y152000D02*
X490000D01*
Y150393D01*
X490238D01*
X490724Y150490D01*
X491137Y150765D01*
X491412Y151177D01*
X491509Y151663D01*
Y152000D01*
D02*
G37*
%LPD*%
D10*
X507965Y173006D02*
X519006D01*
X519500Y173500D01*
X507937Y172978D02*
X507965Y173006D01*
X507937Y172512D02*
Y172978D01*
X507969Y161500D02*
X513453D01*
X514039Y160914D01*
Y158461D02*
Y160914D01*
Y158461D02*
X514500Y158000D01*
X505969Y152740D02*
X506209Y152500D01*
X505969Y152740D02*
Y161488D01*
X504000Y167000D02*
Y172512D01*
X482086Y152500D02*
X485957D01*
X481500Y153086D02*
X482086Y152500D01*
X481500Y153086D02*
Y171458D01*
X482086Y172043D01*
X488000D01*
D13*
X506209Y152500D02*
D03*
X500500D02*
D03*
D14*
X489500D02*
D03*
X485957D02*
D03*
D15*
X507937Y172512D02*
D03*
X505969D02*
D03*
X504000D02*
D03*
X502032D02*
D03*
X500063D02*
D03*
Y161488D02*
D03*
X502032D02*
D03*
X504000D02*
D03*
X505969D02*
D03*
X507937D02*
D03*
D16*
X509516Y184000D02*
D03*
X500500D02*
D03*
D17*
X488000Y164996D02*
D03*
Y172043D02*
D03*
X542000Y164453D02*
D03*
Y171500D02*
D03*
X526500Y164453D02*
D03*
Y171500D02*
D03*
D26*
X504000Y167000D02*
D03*
D27*
X587000Y170000D02*
D03*
X443000Y173500D02*
D03*
D28*
X587000Y150315D02*
D03*
X443000Y153815D02*
D03*
D29*
X519500Y173500D02*
D03*
X514500Y158000D02*
D03*
X533500Y174000D02*
D03*
M02*
