G04*
G04 #@! TF.GenerationSoftware,Altium Limited,Altium Designer,25.8.1 (18)*
G04*
G04 Layer_Color=8388736*
%FSLAX25Y25*%
%MOIN*%
G70*
G04*
G04 #@! TF.SameCoordinates,03386816-46D1-4981-AEED-FFC867A31DEE*
G04*
G04*
G04 #@! TF.FilePolarity,Negative*
G04*
G01*
G75*
%ADD16R,0.05984X0.12008*%
%ADD18R,0.04934X0.05918*%
G04:AMPARAMS|DCode=19|XSize=29.65mil|YSize=27.69mil|CornerRadius=6.46mil|HoleSize=0mil|Usage=FLASHONLY|Rotation=90.000|XOffset=0mil|YOffset=0mil|HoleType=Round|Shape=RoundedRectangle|*
%AMROUNDEDRECTD19*
21,1,0.02965,0.01476,0,0,90.0*
21,1,0.01673,0.02769,0,0,90.0*
1,1,0.01292,0.00738,0.00837*
1,1,0.01292,0.00738,-0.00837*
1,1,0.01292,-0.00738,-0.00837*
1,1,0.01292,-0.00738,0.00837*
%
%ADD19ROUNDEDRECTD19*%
%ADD20R,0.01345X0.02762*%
%ADD21R,0.09849X0.06896*%
G04:AMPARAMS|DCode=22|XSize=59.18mil|YSize=37.92mil|CornerRadius=7.74mil|HoleSize=0mil|Usage=FLASHONLY|Rotation=0.000|XOffset=0mil|YOffset=0mil|HoleType=Round|Shape=RoundedRectangle|*
%AMROUNDEDRECTD22*
21,1,0.05918,0.02244,0,0,0.0*
21,1,0.04370,0.03792,0,0,0.0*
1,1,0.01548,0.02185,-0.01122*
1,1,0.01548,-0.02185,-0.01122*
1,1,0.01548,-0.02185,0.01122*
1,1,0.01548,0.02185,0.01122*
%
%ADD22ROUNDEDRECTD22*%
G04:AMPARAMS|DCode=23|XSize=96.58mil|YSize=96.58mil|CornerRadius=26.15mil|HoleSize=0mil|Usage=FLASHONLY|Rotation=270.000|XOffset=0mil|YOffset=0mil|HoleType=Round|Shape=RoundedRectangle|*
%AMROUNDEDRECTD23*
21,1,0.09658,0.04429,0,0,270.0*
21,1,0.04429,0.09658,0,0,270.0*
1,1,0.05229,-0.02215,-0.02215*
1,1,0.05229,-0.02215,0.02215*
1,1,0.05229,0.02215,0.02215*
1,1,0.05229,0.02215,-0.02215*
%
%ADD23ROUNDEDRECTD23*%
%ADD24C,0.09658*%
%ADD25C,0.05800*%
D16*
X509516Y184000D02*
D03*
X500500D02*
D03*
D18*
X506209Y152500D02*
D03*
X500500D02*
D03*
D19*
X489500D02*
D03*
X485957D02*
D03*
D20*
X507937Y172512D02*
D03*
X505969D02*
D03*
X504000D02*
D03*
X502032D02*
D03*
X500063D02*
D03*
Y161488D02*
D03*
X502032D02*
D03*
X504000D02*
D03*
X505969D02*
D03*
X507937D02*
D03*
D21*
X504000Y167000D02*
D03*
D22*
X488000Y164996D02*
D03*
Y172043D02*
D03*
X542000Y164453D02*
D03*
Y171500D02*
D03*
X526500Y164453D02*
D03*
Y171500D02*
D03*
D23*
X587000Y170000D02*
D03*
X443000Y173500D02*
D03*
D24*
X587000Y150315D02*
D03*
X443000Y153815D02*
D03*
D25*
X519500Y173500D02*
D03*
X514500Y158000D02*
D03*
X533500Y174000D02*
D03*
M02*
